<svg width="50" height="50" viewBox="0 0 50 50" fill="none" xmlns="http://www.w3.org/2000/svg">
<path d="M26.5952 26.942C27.9168 26.942 29.2389 26.4395 30.2451 25.4347C31.2203 24.4609 31.7574 23.1662 31.7574 21.7886C31.7574 20.4113 31.2203 19.1165 30.2451 18.1425C28.2325 16.1328 24.9578 16.1328 22.9453 18.1425C21.9701 19.1165 21.4331 20.4113 21.4331 21.7886C21.4331 23.166 21.9701 24.4608 22.9453 25.4347C23.9517 26.4397 25.2732 26.942 26.5952 26.942ZM23.8489 19.0474C24.606 18.2913 25.6005 17.9133 26.5952 17.9133C27.5897 17.9133 28.5842 18.2913 29.3414 19.0474C30.0747 19.7797 30.4786 20.7532 30.4786 21.7886C30.4786 22.824 30.0747 23.7974 29.3414 24.5298C27.8272 26.0419 25.3632 26.0419 23.8489 24.5298C23.1155 23.7976 22.7117 22.824 22.7117 21.7886C22.7117 20.7532 23.1155 19.7797 23.8489 19.0474Z" fill="#12020A"/>
<path d="M31.3492 15.7072C31.5126 15.7072 31.6761 15.6449 31.801 15.5203L35.035 12.2915C35.6201 11.7074 34.7165 10.8024 34.1315 11.3865L30.8974 14.6153C30.5173 14.9947 30.812 15.7072 31.3492 15.7072Z" fill="#12020A"/>
<path d="M33.0072 17.6284C33.3086 17.8784 33.6101 17.8786 33.9115 17.6291L37.1457 14.4004C37.7307 13.8162 36.8272 12.9113 36.2421 13.4954L33.008 16.7243C32.758 16.9736 32.7577 17.3785 33.0072 17.6284Z" fill="#12020A"/>
<path d="M46.5687 36.5858L44.444 36.5852L44.4312 30.1812C44.4303 29.8287 44.1445 29.5432 43.7918 29.5432L32.947 29.5403L47.0345 15.4734C47.2846 15.1718 47.2846 14.8702 47.0345 14.5685L33.8246 1.37739C33.5751 1.12811 33.1706 1.12811 32.9209 1.37739L27.6742 6.61684C27.0893 7.20112 27.993 8.10589 28.5779 7.52176L33.3729 2.73343L45.6777 15.0209L31.1446 29.5329H29.5725L42.0903 17.0428C42.3406 16.7411 42.3406 16.4394 42.0905 16.1376C41.7916 15.8393 41.6271 15.4426 41.6271 15.0208C41.6272 14.5991 41.7918 14.2026 42.0905 13.9042C42.3406 13.6026 42.3406 13.301 42.0905 12.9993L35.396 6.31446C35.1465 6.06517 34.742 6.06517 34.4923 6.31446C33.8751 6.93073 32.8707 6.93089 32.2535 6.31446C32.0038 6.06509 31.5993 6.06517 31.3498 6.31446L11.0987 26.5354C10.8486 26.837 10.8486 27.1387 11.0987 27.4402C11.3975 27.7387 11.562 28.1352 11.562 28.557C11.562 28.916 11.4418 29.2563 11.222 29.5337L8.48883 29.5329L7.51145 28.557L26.1766 9.91922C26.7617 9.33493 25.8581 8.43033 25.2729 9.0143L6.1547 28.1045C5.90454 28.4061 5.90454 28.7079 6.1547 29.0095L6.67954 29.5334L4.21089 29.5329C3.8874 29.5329 3.57066 29.8578 3.57129 30.1735L3.58526 37.1501C3.58605 37.5026 3.87192 37.7881 4.22454 37.7883L6.3493 37.7888L6.36224 44.1927C6.36296 44.5452 6.64883 44.8309 7.00145 44.8309L28.48 44.8412C29.2765 44.8412 29.3514 43.5583 28.4802 43.5582L19.8005 43.5557V37.8576L33.7696 37.8613V43.5589L32.3264 43.5586C31.4842 43.5586 31.4839 44.8412 32.3261 44.8412H46.5825C46.9059 44.8412 47.2226 44.5161 47.2221 44.2006L47.2081 37.224C47.2074 36.8714 46.9214 36.586 46.5687 36.5858ZM17.0237 30.815L29.8031 30.8183L30.9929 30.8187V36.5164L17.0237 36.5126V30.815ZM43.1652 36.5196L32.2717 36.5167V35.3981H43.1629L43.1652 36.5196ZM43.1559 31.9335H39.2446C38.4179 31.9335 38.4179 33.2123 39.2446 33.2123H43.1585L43.1602 34.1191H32.2717V33.2123H36.4515C37.2783 33.2123 37.2783 31.9335 36.4515 31.9335H32.2717V30.8191L43.1537 30.8219L43.1559 31.9335ZM12.4049 27.0385L31.8523 7.61977C32.7785 8.20001 33.9674 8.20001 34.8933 7.61977L40.7843 13.5024C40.5003 13.9531 40.3483 14.4753 40.3483 15.0209C40.3483 15.5664 40.5003 16.0887 40.7843 16.5395L27.762 29.5329H21.9902L22.4268 29.0977C23.0125 28.5142 22.1099 27.6082 21.5243 28.1918L20.1783 29.5329H17.767L20.3156 26.9885C20.9008 26.4045 19.9972 25.4994 19.4122 26.0834L16.178 29.3123C16.1125 29.3778 16.0645 29.454 16.0333 29.5353L12.6697 29.5343C12.7819 29.2252 12.8407 28.8957 12.8407 28.5572C12.8409 28.0115 12.6888 27.4891 12.4049 27.0385ZM4.86058 35.3979H13.603C14.4298 35.3979 14.4298 34.1191 13.603 34.1191H4.85804L4.85621 33.2123H6.772C7.59875 33.2123 7.59875 31.9335 6.772 31.9335H4.85359L4.85129 30.8118L15.7447 30.8148V31.9335H9.50359C8.67692 31.9335 8.67692 33.2123 9.50359 33.2123H15.7449V36.5125L4.8628 36.5095L4.86058 35.3979ZM7.63978 43.5522L7.63756 42.4406H11.5488C12.3756 42.4406 12.3756 41.1618 11.5488 41.1618H7.63494L7.63312 40.2548H18.5217V41.1618H14.3418C13.5152 41.1618 13.5152 42.4406 14.3418 42.4406H18.5217V43.5552L7.63978 43.5522ZM18.5217 38.9761H7.63058L7.62827 37.8545L18.5217 37.8574V38.9761ZM35.0486 43.5593V42.4406H41.2898C42.1164 42.4406 42.1164 41.1618 41.2898 41.1618H35.0486V37.8618L45.9306 37.8645L45.9328 38.9761H37.1903C36.3637 38.9761 36.3637 40.2549 37.1903 40.2549H45.9352L45.9371 41.1618H44.0212C43.1945 41.1618 43.1945 42.4406 44.0212 42.4406H45.9396L45.9419 43.5622L35.0486 43.5593Z" fill="#12020A"/>
</svg>
