<svg width="35" height="50" viewBox="0 0 35 50" fill="none" xmlns="http://www.w3.org/2000/svg">
<g clip-path="url(#clip0_203_891)">
<path d="M22.7294 1.91079e-05C23.4437 0.547964 23.473 0.968708 22.8468 1.62428C22.6217 1.85912 22.4065 2.10374 22.1619 2.319C21.7998 2.63211 21.3399 2.60276 21.0268 2.27008C20.7333 1.95697 20.6942 1.51665 20.9975 1.1644C21.3595 0.753444 21.7509 0.381624 22.1325 -0.00976562C22.338 1.91079e-05 22.5337 1.91079e-05 22.7294 1.91079e-05Z" fill="#00171F"/>
<path d="M10.4502 6.03728C11.2428 5.29364 11.9962 4.62828 12.7105 3.91399C13.6988 2.91595 14.7849 2.48542 16.1351 3.13121C16.2526 3.18992 16.4483 3.13121 16.5852 3.0725C18.4737 2.37779 20.3328 3.09207 21.2428 4.88268C21.6537 5.69481 21.6146 6.52652 21.3015 7.33865C21.0373 8.03337 20.734 8.72808 20.3915 9.38366C19.1488 11.7809 19.5305 14.0118 21.2232 15.9884C22.2408 17.1821 23.3563 18.3367 24.5989 19.2858C27.8083 21.7418 29.9903 24.8827 31.3895 28.6205C32.3289 31.1449 32.6811 33.7574 32.4757 36.4385C32.2604 39.188 32.6224 41.8494 33.4052 44.4815C33.6596 45.3328 33.914 46.2036 34.0706 47.0745C34.3445 48.5911 33.278 49.8827 31.732 49.9805C31.6048 49.9903 31.4678 49.9903 31.3406 49.9903C27.505 49.9903 23.6596 49.9903 19.824 49.9903C18.1802 49.9903 17.2506 49.1782 17.0549 47.5441C17.006 47.1136 16.7614 46.8592 16.4189 46.6244C12.1332 43.6987 7.86705 40.7535 3.58133 37.8377C2.17233 36.8886 1.47762 35.6655 1.85922 33.9434C1.87879 33.8357 1.78094 33.64 1.67331 33.5715C0.293664 32.73 -0.47933 31.0764 0.332803 29.139C0.508928 28.7085 0.606776 28.2291 0.812255 27.8083C1.4874 26.458 1.41891 25.0784 1.25257 23.6107C0.998165 21.3406 0.949241 19.0412 0.851394 16.7516C0.812255 15.8416 1.21343 15.0882 1.82008 14.4228C2.32889 13.8749 2.81813 13.3073 3.3465 12.779C3.64004 12.4854 3.76725 12.1723 3.75746 11.7418C3.73789 9.28581 3.73789 6.82984 3.74768 4.37387C3.76724 2.83767 4.69679 1.75156 6.13515 1.70264C8.22908 1.62436 10.0099 3.12143 10.3426 5.15665C10.3817 5.41106 10.4013 5.67524 10.4502 6.03728ZM13.0138 16.6929C13.6205 16.6929 14.2076 16.6439 14.7849 16.7026C15.2447 16.7516 15.7633 16.8103 16.1254 17.0549C17.6909 18.1019 19.2369 19.188 20.7438 20.323C21.6537 20.9981 21.8396 22.1723 21.3113 23.1801C21.2526 23.2878 21.1939 23.3954 21.1254 23.5128C21.5657 23.8455 21.9962 24.139 22.3876 24.4717C23.2291 25.2056 23.4248 26.3993 22.8768 27.3582C21.9473 28.9727 19.9414 29.824 18.1704 29.2075C17.2506 28.8846 16.4483 28.2584 15.5774 27.7888C15.323 27.6518 15.049 27.4952 14.7751 27.4756C13.9825 27.4365 13.1802 27.4561 12.3876 27.4659C11.9766 27.4659 11.644 27.642 11.5168 28.0432C11.2036 29.0216 10.8612 29.9903 10.6459 30.9786C10.3719 32.231 10.6459 32.8377 11.5265 33.3661C12.0353 33.6694 12.2017 34.1097 11.9669 34.5402C11.7222 34.9805 11.2819 35.0784 10.734 34.8338C9.43261 34.2271 8.7966 33.0334 8.90423 31.5265C9.00208 30.1469 9.44239 28.8553 9.91206 27.5735C10.3426 26.3993 11.1743 25.822 12.4365 25.8025C13.1802 25.7927 13.9336 25.8025 14.687 25.8025C15.3034 25.8025 15.871 25.9688 16.3896 26.321C16.9864 26.7222 17.5637 27.1332 18.1899 27.4756C19.2173 28.0334 20.4991 27.7398 21.2232 26.8298C21.6635 26.2721 21.6244 25.959 21.0373 25.5383C19.8729 24.6968 18.7085 23.8749 17.5442 23.0334C16.9962 22.6322 16.3896 22.4659 15.7144 22.4659C13.6988 22.4756 11.6831 22.4659 9.65765 22.4659C8.25844 22.4659 7.43652 23.0432 6.96685 24.3543C5.84161 27.5246 4.72615 30.6948 3.61069 33.8651C3.18016 35.0882 3.38564 35.6948 4.46196 36.4385C8.7281 39.3641 12.9845 42.2897 17.2604 45.2056C18.0627 45.7535 18.5813 46.4287 18.6792 47.4169C18.7477 48.1214 19.0314 48.3367 19.7457 48.3367C23.6205 48.3367 27.4952 48.3367 31.3602 48.3367C32.231 48.3367 32.5735 47.8866 32.3582 47.0451C32.1528 46.2721 31.9571 45.5089 31.732 44.7457C30.9786 42.2115 30.5578 39.6381 30.7731 36.9962C31.0373 33.6694 30.5481 30.4796 29.0706 27.4659C27.8279 24.9218 26.233 22.6615 23.9238 20.9492C22.231 19.6968 20.7144 18.2486 19.4913 16.5167C18.1802 14.6576 17.6029 12.6224 18.2487 10.3915C18.5226 9.46194 18.9825 8.5911 19.3543 7.6909C19.5207 7.27016 19.7164 6.84941 19.824 6.4091C19.9903 5.73395 19.5989 5.2545 19.1097 4.86311C18.6107 4.47172 18.0432 4.37387 17.4267 4.56957C17.4463 4.6772 17.4463 4.72612 17.4659 4.76526C18.1997 6.68307 17.8475 8.27798 16.3602 9.68699C15.3622 10.6361 14.3543 11.5852 13.3563 12.5441C13.2291 12.6713 13.0921 12.8475 13.0627 13.0138C12.867 14.2173 12.7888 15.4111 13.0138 16.6929ZM2.68114 22.1332C2.72028 22.1332 2.7692 22.143 2.80834 22.143C3.0921 21.3504 3.38564 20.5676 3.65961 19.7751C4.19777 18.1899 5.21539 17.143 6.87879 16.7711C6.99621 16.7418 7.10384 16.5852 7.18212 16.4678C7.42674 16.0764 7.57351 15.597 7.8964 15.3034C10.3328 13.004 12.8181 10.7535 15.2447 8.45411C15.6263 8.09207 15.9297 7.58327 16.1058 7.08425C16.4189 6.23297 16.0764 5.4502 15.5578 4.76526C15.235 4.33473 14.6283 4.41301 14.0999 4.90225C12.006 6.8592 9.90227 8.79658 7.83769 10.7731C6.233 12.3191 4.68701 13.914 3.11167 15.4893C2.72028 15.8807 2.47566 16.3406 2.50501 16.9277C2.56372 18.6596 2.62243 20.4013 2.68114 22.1332ZM2.49523 32.0647C2.56372 31.8788 2.642 31.7026 2.70071 31.5265C3.61069 28.9531 4.51088 26.3797 5.42087 23.8064C6.12537 21.8201 7.57351 20.8024 9.66744 20.8024C11.6635 20.8024 13.6694 20.8122 15.6655 20.7927C16.7614 20.7829 17.7496 21.0862 18.6205 21.7418C18.9825 22.0158 19.3543 22.2702 19.7261 22.5343C20.0001 21.9766 19.9512 21.7711 19.462 21.4287C18.141 20.4796 16.8201 19.5402 15.4796 18.6205C15.2545 18.4639 14.9414 18.366 14.6674 18.366C12.3582 18.3465 10.049 18.3465 7.73985 18.3563C6.60482 18.366 5.72419 18.9433 5.34259 20.0197C4.13906 23.3465 2.95511 26.6831 1.79073 30.0197C1.4874 30.8905 1.72224 31.5265 2.49523 32.0647ZM5.45022 10.7242C6.56568 9.6772 7.60286 8.70851 8.63026 7.73004C8.70854 7.65176 8.73789 7.49521 8.74767 7.37779C8.75746 6.8592 8.77703 6.33082 8.73789 5.81223C8.65961 4.55978 7.83769 3.59109 6.70266 3.40518C5.79268 3.25841 5.42087 3.57153 5.42087 4.48151C5.42087 6.37975 5.42087 8.28777 5.42087 10.186C5.42087 10.3328 5.44043 10.4698 5.45022 10.7242ZM11.2917 16.6733C11.2526 15.959 11.2232 15.3034 11.1841 14.5598C10.3817 15.2839 9.64787 15.9394 8.83574 16.6733C9.72615 16.6733 10.4796 16.6733 11.2917 16.6733Z" fill="#00171F"/>
<path d="M24.0407 5.38156C23.5221 5.35221 23.209 5.17609 23.1111 4.75534C23.0035 4.32481 23.1503 3.96278 23.571 3.80622C23.9917 3.63988 24.4321 3.51268 24.8724 3.4344C25.2833 3.35612 25.5964 3.57139 25.753 3.96278C25.8998 4.34438 25.753 4.79448 25.3714 4.95104C24.9115 5.14673 24.4223 5.26415 24.0407 5.38156Z" fill="#00171F"/>
<path d="M23.4439 7.39746C23.7766 7.50509 24.2658 7.61273 24.7257 7.81821C25.1073 7.98455 25.2345 8.34658 25.0975 8.76732C24.9605 9.18807 24.6376 9.39355 24.2364 9.32506C23.7766 9.25656 23.3167 9.10979 22.8862 8.93367C22.485 8.77711 22.348 8.41507 22.4458 8.00412C22.5535 7.59316 22.847 7.39746 23.4439 7.39746Z" fill="#00171F"/>
<path d="M23.6885 42.3974C23.6885 42.867 23.3852 43.2291 22.9546 43.278C22.5143 43.3171 22.1034 43.0725 22.0642 42.6322C21.9175 40.6557 20.5867 39.5304 19.0995 38.6009C17.9253 37.867 16.6239 37.3289 15.3813 36.7124C15.2247 36.6342 15.0388 36.5852 14.9018 36.4874C14.5691 36.233 14.4419 35.9003 14.6278 35.4991C14.804 35.1077 15.1464 34.8729 15.528 35.0197C18.395 36.0764 21.1151 37.3582 22.9155 39.9903C23.4145 40.685 23.6591 41.5167 23.6885 42.3974Z" fill="#00171F"/>
<path d="M25.9792 36.6143C23.9538 36.5262 22.3589 35.5575 20.9792 34.1583C20.6367 33.8158 20.3236 33.4342 20.0203 33.0526C19.6778 32.6319 19.717 32.1329 20.0692 31.8295C20.4313 31.5164 20.8911 31.5849 21.2825 31.9665C22.036 32.7004 22.7698 33.4636 23.5819 34.1192C24.2865 34.6867 25.1769 34.8922 26.0868 34.9509C26.7913 34.99 27.173 35.5379 26.9283 36.1055C26.7522 36.536 26.4 36.6534 25.9792 36.6143Z" fill="#00171F"/>
</g>
<defs>
<clipPath id="clip0_203_891">
<rect width="34.1194" height="50" fill="white"/>
</clipPath>
</defs>
</svg>
