<svg width="36" height="50" viewBox="0 0 36 50" fill="none" xmlns="http://www.w3.org/2000/svg">
<g clip-path="url(#clip0_203_869)">
<path d="M27.9922 12.5946C29.7216 13.7383 30.3074 14.9098 29.9726 16.4719C29.6519 17.9503 28.5501 18.8568 26.723 19.1218C26.6254 19.5821 26.5556 20.0563 26.4301 20.5304C25.8164 22.8735 24.5054 24.7285 22.4413 25.9837C21.7997 26.3742 21.5626 26.7927 21.7858 27.5179C22.776 27.7829 23.6268 28.3268 24.2962 29.1915C24.6309 29.6239 25.8164 29.7494 26.2767 29.4705C27.5877 28.6616 29.3032 29.2194 29.875 30.6699C30.0005 31.0046 30.1958 31.1441 30.5026 31.2836C33.4036 32.6086 34.9936 34.868 35.0772 38.0479C35.1609 41.688 35.1051 45.3282 35.0912 48.9544C35.0912 49.6936 34.7844 49.9726 34.0312 49.9726C30.6421 49.9726 27.239 49.9726 23.8499 49.9726C16.3185 49.9726 8.78716 49.9726 1.25578 49.9726C0.251598 49.9726 0.0144994 49.7355 0.0144994 48.7592C0.0144994 45.3143 0.00055245 41.8694 0.0144994 38.4244C0.0284464 34.9935 1.63235 32.5807 4.77043 31.186C4.93779 31.1162 5.09121 30.9349 5.16094 30.7675C5.81645 29.1636 7.53193 28.6197 8.99636 29.5681C9.14978 29.6657 9.41477 29.6936 9.61003 29.6518C10.2516 29.5123 10.7816 29.2334 11.2837 28.7034C11.8276 28.1316 12.6086 27.7968 13.2781 27.3645C13.3199 27.4063 13.3478 27.4342 13.3897 27.4761C13.3897 27.1971 13.4176 26.9182 13.3757 26.6532C13.3618 26.5277 13.2641 26.3603 13.1665 26.2906C10.405 24.7146 8.84295 22.3436 8.42454 19.2055C8.42454 19.1776 8.39664 19.1497 8.3827 19.1079C6.40222 18.7592 5.38409 17.8666 5.09121 16.2208C4.84016 14.7982 5.53751 13.5291 6.97405 12.6783C6.90432 11.953 6.76485 11.2975 6.82063 10.656C6.87642 9.90283 7.36457 9.33101 8.03402 9.01023C8.34086 8.85681 8.39664 8.66155 8.39664 8.35472C8.3827 7.29475 8.3827 6.23477 8.39664 5.1748C8.36875 3.04091 9.73556 1.40911 11.8555 0.990701C13.3757 0.697814 14.882 0.335192 16.4022 0.0841456C17.1135 -0.0274304 17.8667 -0.0413774 18.564 0.0701986C20.1819 0.321245 21.7718 0.66992 23.3757 1.00465C25.3562 1.42306 26.7091 3.0688 26.7369 5.10507C26.7509 6.22083 26.723 7.33659 26.7509 8.45235C26.7509 8.61971 26.8625 8.85681 27.0019 8.94049C28.3548 9.76336 28.7453 10.9907 28.0898 12.4133C28.048 12.4691 28.0201 12.5388 27.9922 12.5946ZM8.3548 48.285C14.5054 48.285 20.6003 48.285 26.723 48.285C26.723 46.3603 26.723 44.4635 26.7091 42.5667C26.7091 42.4551 26.6254 42.2878 26.5277 42.2459C25.5933 41.7857 25.1191 41.0047 25.0215 39.9865C20.0005 39.9865 15.0075 39.9865 10.0284 39.9865C9.93081 41.0186 9.45662 41.7857 8.53611 42.2459C8.43849 42.2878 8.3548 42.4551 8.3548 42.5528C8.3548 44.4635 8.3548 46.3603 8.3548 48.285ZM25.147 13.7801C23.2223 13.4314 21.4231 13.1385 19.6379 12.7899C18.3269 12.5388 17.0159 12.497 15.7049 12.7341C14.5891 12.9293 13.4873 13.1385 12.3715 13.3477C11.5905 13.4872 10.8234 13.6406 10.0284 13.794C10.0284 15.3282 10.0284 16.8066 10.0284 18.285C10.0563 22.1622 12.9434 25.3143 16.8764 25.7466C20.5445 26.1511 24.1707 23.5988 24.8402 19.8749C25.1888 17.8945 25.0633 15.8443 25.147 13.7801ZM10.0424 8.4384C12.5668 8.13157 15.0633 7.60158 17.5598 7.60158C20.0563 7.60158 22.5389 8.13157 25.0354 8.42445C25.0354 8.41051 25.0494 8.38261 25.0494 8.35472C25.0494 7.36448 25.0633 6.37424 25.0494 5.38401C25.0494 3.82194 24.3102 2.91539 22.7899 2.59461C21.3952 2.30172 20.0005 2.00883 18.5919 1.75779C18.0898 1.66016 17.5459 1.57647 17.0438 1.66016C15.3283 1.95304 13.6268 2.31567 11.9392 2.67829C10.9071 2.90144 10.0982 3.75221 10.0424 4.78429C9.9866 6.01162 10.0424 7.2529 10.0424 8.4384ZM15.0354 27.0855C15.0354 28.536 15.0354 29.9168 15.0354 31.2836C15.0354 31.4231 15.1191 31.5765 15.1749 31.7159C15.8862 33.1525 16.5975 34.5751 17.3227 35.9977C17.3785 36.1092 17.4622 36.2069 17.5598 36.3603C18.3827 34.7146 19.1777 33.1246 19.9587 31.5346C20.0005 31.4649 20.0284 31.3673 20.0284 31.2836C20.0284 29.8889 20.0284 28.5081 20.0284 27.0716C18.3687 27.5318 16.7509 27.5458 15.0354 27.0855ZM1.77182 43.2641C3.33388 43.2641 4.99358 43.2641 6.77879 43.2641C6.65327 42.8735 6.65327 42.3854 6.43012 42.2459C5.42593 41.6462 4.97963 40.8094 4.99358 39.6518C5.00752 37.6016 4.99358 35.5374 4.99358 33.4872C4.99358 33.3199 4.99358 33.1525 4.99358 32.9154C3.19441 33.8498 1.98103 35.2027 1.79972 37.1134C1.63235 39.1357 1.77182 41.186 1.77182 43.2641ZM30.0703 32.9154C30.0703 33.2222 30.0703 33.4035 30.0703 33.5988C30.0703 35.6908 30.0703 37.7689 30.0703 39.861C30.0703 40.7815 29.7495 41.5904 28.9406 42.0088C28.299 42.3436 28.3687 42.762 28.4245 43.278C30.0982 43.278 31.73 43.278 33.4036 43.278C33.4036 42.1204 33.4176 40.9907 33.4036 39.861C33.3897 38.9405 33.4315 38.006 33.2781 37.1134C32.9713 35.2166 31.8694 33.8498 30.0703 32.9154ZM17.5459 9.1218C17.5459 9.16364 17.5319 9.19154 17.5319 9.23338C17.3367 9.23338 17.1414 9.20548 16.9601 9.23338C14.352 9.596 11.73 9.97257 9.12189 10.3631C8.56401 10.4468 8.28507 10.8931 8.3827 11.3673C8.52217 11.9809 8.94058 12.2738 9.58214 12.1622C11.1721 11.8833 12.7621 11.5904 14.352 11.2836C15.9559 10.9768 17.5738 10.7257 19.2195 11.0186C21.2837 11.3952 23.3478 11.7578 25.4259 12.1483C25.8164 12.218 26.193 12.218 26.472 11.8694C27.0019 11.2139 26.709 10.4747 25.8583 10.3352C24.7425 10.1539 23.6268 9.98652 22.511 9.81915C20.8513 9.58205 19.2056 9.3589 17.5459 9.1218ZM10.0703 35.3422C10.0703 36.3463 10.0703 37.3087 10.0703 38.271C12.246 38.271 14.3939 38.271 16.5975 38.271C16.0675 37.225 15.5793 36.2208 15.147 35.3701C14.7286 35.5235 14.3799 35.7606 14.0452 35.7466C13.571 35.7187 13.4036 35.3143 13.3478 34.854C13.292 34.4077 12.9852 34.1427 12.525 34.1427C12.0647 34.1427 11.8276 34.4356 11.6881 34.868C11.5905 35.1748 11.4371 35.5235 11.186 35.7048C10.7676 35.9837 10.3911 35.6769 10.0703 35.3422ZM25.0354 35.4956C24.7007 35.5793 24.3381 35.7745 24.0173 35.7327C23.571 35.6769 23.4315 35.2864 23.3757 34.8401C23.3199 34.3938 23.0131 34.1148 22.5528 34.1148C22.0926 34.1148 21.7858 34.3798 21.7439 34.8401C21.6881 35.2864 21.5487 35.6908 21.1024 35.7187C20.7537 35.7466 20.3911 35.5095 19.9448 35.3561C19.5124 36.2208 19.0243 37.2111 18.5082 38.2431C20.7258 38.2431 22.8876 38.2431 25.0494 38.2431C25.0354 37.2808 25.0354 36.3324 25.0354 35.4956ZM1.70209 48.285C3.38967 48.285 5.02147 48.285 6.65327 48.285C6.65327 47.1692 6.65327 46.0814 6.65327 45.0074C4.97963 45.0074 3.36178 45.0074 1.70209 45.0074C1.70209 46.1092 1.70209 47.1832 1.70209 48.285ZM28.4245 48.285C30.1121 48.285 31.7439 48.285 33.3757 48.285C33.3757 47.1692 33.3757 46.0814 33.3757 45.0074C31.7021 45.0074 30.0842 45.0074 28.4245 45.0074C28.4245 46.1092 28.4245 47.1832 28.4245 48.285ZM8.3548 35.8024C8.3548 34.4775 8.3548 33.1525 8.3548 31.8275C8.3548 31.1581 8.04797 30.7815 7.53193 30.7815C7.01589 30.7675 6.68116 31.1581 6.68116 31.8136C6.68116 34.4635 6.68116 37.0995 6.68116 39.7494C6.68116 40.4189 6.988 40.7954 7.50404 40.7954C8.03402 40.8094 8.3548 40.4049 8.3548 39.7076C8.3548 38.4105 8.3548 37.1134 8.3548 35.8024ZM26.7369 35.7885C26.7369 37.1134 26.7369 38.4384 26.7369 39.7634C26.7369 40.4189 27.0577 40.8094 27.5738 40.8094C28.0898 40.8094 28.4106 40.4189 28.4106 39.7634C28.4106 37.1134 28.4106 34.4775 28.4106 31.8275C28.4106 31.172 28.0898 30.7815 27.5738 30.7815C27.0577 30.7815 26.7369 31.1581 26.7369 31.8275C26.7369 33.1385 26.7369 34.4635 26.7369 35.7885ZM26.7648 14.0869C26.7648 15.2166 26.7648 16.2906 26.7648 17.3784C27.7411 17.2947 28.3966 16.6113 28.3966 15.7187C28.3966 14.8401 27.7272 14.1567 26.7648 14.0869ZM8.34086 14.1009C7.53193 14.0172 6.62538 14.854 6.68116 15.8443C6.73695 16.6811 7.57377 17.504 8.34086 17.3645C8.34086 16.2766 8.34086 15.2027 8.34086 14.1009ZM11.73 32.497C12.2739 32.497 12.7899 32.497 13.3339 32.497C13.3339 31.4649 13.3339 30.4049 13.3339 29.331C12.1344 29.6657 11.5626 30.8094 11.73 32.497ZM21.7439 32.497C22.3157 32.497 22.8318 32.497 23.3618 32.497C23.5152 30.7675 22.9294 29.6239 21.7439 29.345C21.7439 30.391 21.7439 31.451 21.7439 32.497Z" fill="#12020A"/>
<path d="M15.8731 15.7182C15.8871 16.6248 15.1479 17.3918 14.2413 17.4058C13.3348 17.4197 12.5677 16.6805 12.5398 15.7879C12.5119 14.8535 13.2651 14.0725 14.1995 14.0725C15.1061 14.0585 15.8592 14.8116 15.8731 15.7182Z" fill="#12020A"/>
<path d="M20.878 14.0723C21.7845 14.0723 22.5377 14.8115 22.5516 15.718C22.5656 16.6525 21.7845 17.4195 20.864 17.4056C19.9575 17.3917 19.2183 16.6385 19.2183 15.732C19.2183 14.8115 19.9714 14.0723 20.878 14.0723Z" fill="#12020A"/>
<path d="M20.2937 21.366C18.6898 22.7607 16.3606 22.7607 14.8125 21.366C15.1612 20.9755 15.5099 20.571 15.7888 20.2642C16.4304 20.4455 16.9743 20.7105 17.5322 20.7105C18.09 20.7105 18.6479 20.4455 19.3313 20.2642C19.5684 20.5292 19.9171 20.9336 20.2937 21.366Z" fill="#12020A"/>
</g>
<defs>
<clipPath id="clip0_203_869">
<rect width="35.1046" height="50" fill="white"/>
</clipPath>
</defs>
</svg>
