<svg width="50" height="32" viewBox="0 0 50 32" fill="none" xmlns="http://www.w3.org/2000/svg">
<path d="M49.9922 17.6183C49.9922 15.5679 48.7796 14.0268 46.7846 13.4782C46.6411 13.439 46.4716 13.2954 46.4325 13.1648C46.0153 11.5453 45.611 9.92582 45.2329 8.41083C45.4546 8.08432 45.7414 7.86229 45.7675 7.60109C46.1326 4.76701 44.3332 3.27813 42.2078 3.33037C40.5388 3.36955 38.8567 3.34343 37.1877 3.34343C37.0182 3.34343 36.8357 3.33037 36.627 3.31731C36.627 2.83408 36.627 2.40309 36.627 1.9721C36.627 0.587713 36.0403 0.0130603 34.6712 0.0130603C24.8918 0 15.0994 0 5.30694 0C3.95087 0 3.35107 0.600773 3.35107 1.9721C3.35107 6.45178 3.35107 10.9315 3.35107 15.4111C3.35107 15.5548 3.33803 15.7115 3.36411 15.8552C3.41626 16.3123 3.74224 16.6257 4.17254 16.6127C4.60283 16.5996 4.88969 16.2862 4.92881 15.816C4.94185 15.6723 4.92881 15.5287 4.92881 15.372C4.92881 10.9706 4.92881 6.56933 4.92881 2.18107C4.92881 1.98516 4.92881 1.80232 4.92881 1.59336C15.0081 1.59336 25.0222 1.59336 35.0754 1.59336C35.0754 1.81538 35.0754 1.99822 35.0754 2.19413C35.0754 6.59545 35.0754 10.9968 35.0754 15.385C35.0754 15.5287 35.0623 15.6854 35.0754 15.8291C35.1145 16.3123 35.4535 16.6388 35.8969 16.6127C36.3271 16.5866 36.614 16.2731 36.627 15.803C36.6401 15.5287 36.627 15.2675 36.627 14.9671C39.8608 14.9671 43.0293 14.941 46.1978 14.9802C47.1757 14.9932 48.0754 15.8421 48.2189 16.7172C47.4626 16.7172 46.7194 16.7041 45.9761 16.7172C45.3894 16.7302 45.1025 17.0045 45.0895 17.5792C45.0764 18.1277 45.0764 18.6893 45.0895 19.2378C45.1286 20.5308 46.1196 21.5495 47.4104 21.6017C47.7364 21.6148 48.0494 21.6017 48.3884 21.6017C48.3884 22.7902 48.3884 23.9003 48.3884 25.0758C47.8668 25.0758 47.3583 25.0496 46.8628 25.0888C46.4977 25.1149 46.3282 24.9843 46.1848 24.6448C45.1807 22.4376 42.8207 21.2883 40.4997 21.876C38.9219 22.2809 37.8136 23.2604 37.1225 24.7362C37.0573 24.8668 36.8878 24.9452 36.7705 25.0496C36.7183 24.919 36.627 24.7754 36.627 24.6448C36.614 24.0309 36.614 23.404 36.614 22.7902C36.614 21.6017 36.627 20.4132 36.614 19.2247C36.601 18.5456 35.949 18.1146 35.4666 18.5064C35.2449 18.6893 35.0884 19.0811 35.0754 19.3815C35.0363 21.0924 35.0623 22.8033 35.0623 24.5142C35.0623 24.6839 35.0623 24.8537 35.0623 25.0496C34.9189 25.0627 34.8407 25.0758 34.7624 25.0758C29.5729 25.0758 24.3833 25.0758 19.1937 25.0888C18.9198 25.0888 18.8025 24.9843 18.6982 24.7362C17.8115 22.8033 16.2859 21.7454 14.1736 21.7454C12.0352 21.7323 10.5096 22.8163 9.60987 24.7492C9.49252 24.9974 9.37517 25.0888 9.10134 25.0888C8.2538 25.0758 7.40625 25.0888 6.55871 25.0888C6.0241 25.0888 5.48949 25.0888 4.94185 25.0888C4.94185 24.4619 4.94185 23.9003 4.94185 23.2996C5.15048 23.2996 5.31998 23.2996 5.50253 23.2996C6.42831 23.2996 7.3541 23.3126 8.27988 23.2865C8.74929 23.2734 9.07527 22.96 9.08831 22.5421C9.10134 22.1241 8.80144 21.7976 8.33203 21.7454C8.2538 21.7323 8.17556 21.7323 8.08429 21.7323C5.7242 21.7323 3.36411 21.7323 1.00402 21.7323C0.547645 21.7323 0.221666 21.9021 0 22.2939C0 22.4506 0 22.6204 0 22.7771C0.234705 23.182 0.586763 23.3257 1.05617 23.2996C1.79941 23.2734 2.54264 23.2865 3.32499 23.2865C3.32499 23.5608 3.33803 23.7697 3.32499 23.9787C3.18156 26.212 3.91175 26.7605 5.9589 26.6561C6.87165 26.6038 7.78439 26.643 8.69713 26.643C8.8536 26.643 9.01007 26.6561 9.1535 26.6691C9.30997 29.7122 11.4745 31.4361 13.7042 31.6451C14.8647 31.7496 15.9339 31.4753 16.8988 30.8092C18.3461 29.8166 19.0372 28.4061 19.1154 26.6822C25.0091 26.6822 30.8507 26.6822 36.6922 26.6822C36.9009 30.0125 39.3653 31.5275 41.3863 31.6451C42.5599 31.7104 43.6421 31.3969 44.594 30.6917C45.937 29.6991 46.5759 28.3278 46.6542 26.643C47.4365 26.643 48.1928 26.643 48.936 26.643C49.7053 26.643 49.9661 26.3818 49.9661 25.6243C50.0052 22.96 50.0052 20.2826 49.9922 17.6183ZM36.6662 4.93679C36.7966 4.92373 36.9009 4.91067 37.0182 4.91067C38.8437 4.91067 40.6562 4.89761 42.4816 4.91067C43.5117 4.92373 44.2289 5.62898 44.2289 6.66075C41.6993 6.66075 39.2088 6.66075 36.6792 6.66075C36.6662 6.08609 36.6662 5.5245 36.6662 4.93679ZM44.8157 13.3607C42.0905 13.3607 39.3914 13.3607 36.6662 13.3607C36.6662 11.6759 36.6662 10.0042 36.6662 8.30634C36.7966 8.29328 36.9139 8.26716 37.0313 8.26716C39.0784 8.26716 41.1256 8.26716 43.1727 8.26716C43.4074 8.26716 43.59 8.26716 43.6682 8.58061C44.0333 10.1087 44.4245 11.6367 44.8026 13.1648C44.8287 13.217 44.8157 13.2693 44.8157 13.3607ZM48.4014 20.0084C46.928 20.2304 46.5238 19.8255 46.7063 18.3105C47.2801 18.3105 47.8277 18.3105 48.4014 18.3105C48.4014 18.8852 48.4014 19.4468 48.4014 20.0084ZM14.1605 30.104C12.309 30.104 10.7704 28.5759 10.7704 26.7214C10.7573 24.8407 12.322 23.2865 14.1866 23.3126C16.0512 23.3387 17.5638 24.8668 17.5507 26.7214C17.5377 28.5759 16.0121 30.104 14.1605 30.104ZM41.7254 30.104C39.8738 30.117 38.3352 28.602 38.3091 26.7344C38.283 24.8668 39.8347 23.2996 41.7123 23.3126C43.5639 23.3126 45.1025 24.8407 45.1025 26.6952C45.1025 28.5498 43.5769 30.0909 41.7254 30.104Z" fill="#00171F"/>
<path d="M26.8099 7.63108C26.6925 7.70935 26.5882 7.8137 26.4839 7.91806C25.0496 9.35297 23.6022 10.7879 22.1679 12.2358C21.3595 13.0446 20.551 13.8664 19.7165 14.7013C19.547 14.5447 19.4166 14.4273 19.2993 14.2969C18.2562 13.2533 17.2 12.1967 16.1568 11.1531C15.8961 10.8922 15.5701 10.7096 15.2441 10.9314C15.0224 11.0749 14.8008 11.3618 14.7877 11.5966C14.7747 11.8445 14.9703 12.1445 15.1528 12.3402C16.4176 13.6316 17.6955 14.91 18.9733 16.1753C19.534 16.7362 19.886 16.7362 20.4598 16.1623C22.8329 13.7881 25.193 11.4271 27.5661 9.05294C27.6835 8.93554 27.8008 8.81814 27.8791 8.68769C28.0747 8.34853 28.0355 8.02242 27.7617 7.74848C27.4748 7.48759 27.1489 7.43541 26.8099 7.63108Z" fill="#00171F"/>
<path d="M21.1518 21.7582C20.7737 21.8495 20.5781 22.1365 20.5781 22.5148C20.5912 22.9062 20.8128 23.1931 21.2301 23.2584C21.3866 23.2845 21.5561 23.2714 21.7125 23.2714C23.538 23.2714 25.3505 23.2714 27.1759 23.2714C29.0666 23.2714 30.9443 23.2714 32.835 23.2714C33.4608 23.2714 33.8129 22.9844 33.8129 22.5018C33.8129 22.0191 33.4478 21.7191 32.848 21.7061C32.7828 21.7061 32.7176 21.7061 32.6524 21.7061C29.0145 21.7061 25.3635 21.7061 21.7256 21.7061C21.543 21.7061 21.3474 21.7061 21.1518 21.7582Z" fill="#00171F"/>
<path d="M3.19619 19.9325C4.78697 19.9325 6.37775 19.9325 7.96853 19.9325C9.59843 19.9325 11.2153 19.9325 12.8452 19.9325C13.4319 19.9325 13.784 19.6456 13.797 19.176C13.8101 18.7063 13.4319 18.3672 12.8452 18.3672C9.62451 18.3672 6.40383 18.3672 3.19619 18.3672C2.59639 18.3672 2.21826 18.6803 2.23129 19.1629C2.21826 19.6456 2.58335 19.9325 3.19619 19.9325Z" fill="#00171F"/>
<path d="M42.2096 25.0591C41.3099 25.0721 40.6058 25.7896 40.6188 26.6897C40.6319 27.5767 41.3751 28.3072 42.2487 28.2941C43.1354 28.2811 43.8525 27.5376 43.8395 26.6505C43.8265 25.7504 43.1093 25.0591 42.2096 25.0591Z" fill="#00171F"/>
<path d="M14.6842 25.0591C13.7845 25.0591 13.0674 25.7896 13.0674 26.6766C13.0674 27.5506 13.8237 28.2941 14.6973 28.2941C15.5839 28.2941 16.3011 27.5636 16.3011 26.6636C16.2881 25.7635 15.5839 25.0591 14.6842 25.0591Z" fill="#00171F"/>
</svg>
