<svg width="246" height="97" viewBox="0 0 246 97" fill="none" xmlns="http://www.w3.org/2000/svg">
<path d="M25.2512 2.88119H35.9344C44.259 2.88119 50.1787 5.30505 53.6935 10.1528C57.2084 15.0005 58.9658 20.8086 58.9658 27.5771V66.1301C58.9658 75.6426 56.4221 82.777 51.3349 87.5332C46.2477 92.2895 40.4205 94.6676 33.8533 94.6676H13.1806C10.9607 94.6676 9.15704 93.9816 7.76961 92.6096C6.47467 91.2376 5.82721 89.2254 5.82721 86.5728C5.82721 81.4507 8.32458 78.8897 13.3193 78.8897H31.6334C35.1482 78.8897 37.9231 77.8835 39.958 75.8713C41.9929 73.7676 43.0103 70.6577 43.0103 66.5417V60.6421H25.2512C17.5741 60.6421 11.4232 58.4012 6.79841 53.9194C2.26614 49.3461 0 42.4404 0 33.2023V31.1443C0 21.9062 2.31238 14.909 6.93715 10.1528C11.5619 5.30505 17.6666 2.88119 25.2512 2.88119ZM34.2695 18.3847H27.0549C23.6326 18.3847 20.9039 19.4823 18.869 21.6775C16.9266 23.8727 15.9554 26.7996 15.9554 30.4583V33.7511C15.9554 37.3182 16.8804 40.0622 18.7303 41.983C20.5802 43.9038 23.1701 44.8642 26.4999 44.8642H43.0103V27.4399C43.0103 25.0618 42.3629 22.958 41.0679 21.1287C39.773 19.2994 37.5069 18.3847 34.2695 18.3847Z" fill="white"/>
<path d="M106.49 94.6676H95.8064C87.4818 94.6676 81.5621 92.2438 78.0473 87.396C74.5324 82.5483 72.775 76.7402 72.775 69.9717V31.4187C72.775 21.9062 75.3186 14.7718 80.4059 10.0156C85.4931 5.25931 91.3203 2.88119 97.8875 2.88119H118.56C120.78 2.88119 122.538 3.56719 123.832 4.93918C125.22 6.31117 125.914 8.32343 125.914 10.976C125.914 16.0981 123.416 18.6591 118.421 18.6591H100.107C96.5926 18.6591 93.8177 19.711 91.7828 21.8147C89.7479 23.827 88.7305 26.8911 88.7305 31.0071V36.9066H106.49C114.167 36.9066 120.271 39.1933 124.804 43.7666C129.428 48.2485 131.741 55.1084 131.741 64.3465V66.4045C131.741 75.6426 129.428 82.6855 124.804 87.5332C120.179 92.2895 114.074 94.6676 106.49 94.6676ZM97.4713 79.4385H104.686C108.108 79.4385 110.791 78.3409 112.733 76.1457C114.768 73.9505 115.785 71.0236 115.785 67.3649V63.7977C115.785 60.2305 114.86 57.4866 113.01 55.5658C111.161 53.645 108.571 52.6846 105.241 52.6846H88.7305V70.3833C88.7305 72.7614 89.3779 74.8652 90.6729 76.6945C91.9678 78.5238 94.2339 79.4385 97.4713 79.4385Z" fill="white"/>
<path d="M162.477 3.01839H164.558C170.2 3.01839 174.64 4.57332 177.877 7.68317C181.207 10.7016 182.872 15.1377 182.872 20.9915V40.611C182.872 46.3734 181.115 50.8095 177.6 53.9194C174.177 57.0292 169.83 58.5842 164.558 58.5842H162.477C156.927 58.5842 152.395 57.0292 148.88 53.9194C145.458 50.8095 143.746 46.3734 143.746 40.611V20.9915C143.746 15.3206 145.55 10.9302 149.157 7.82037C152.765 4.61905 157.204 3.01839 162.477 3.01839ZM169.691 41.4342V20.1683C169.691 18.4305 169.136 17.0585 168.026 16.0523C167.009 14.9547 165.622 14.4059 163.864 14.4059H163.032C161.182 14.4059 159.702 14.9547 158.592 16.0523C157.482 17.0585 156.927 18.4305 156.927 20.1683V41.4342C156.927 43.2636 157.482 44.727 158.592 45.8246C159.702 46.8307 161.182 47.3338 163.032 47.3338H163.864C165.529 47.3338 166.916 46.785 168.026 45.6874C169.136 44.4984 169.691 43.0806 169.691 41.4342ZM225.605 39.1018H227.686C233.328 39.1018 237.768 40.6568 241.005 43.7666C244.335 46.785 246 51.2211 246 57.075V76.6945C246 82.4569 244.243 86.893 240.728 90.0028C237.305 93.1127 232.958 94.6676 227.686 94.6676H225.605C220.055 94.6676 215.523 93.1127 212.008 90.0028C208.586 86.893 206.874 82.4569 206.874 76.6945V57.075C206.874 51.4041 208.678 47.0137 212.285 43.9038C215.893 40.7025 220.333 39.1018 225.605 39.1018ZM232.819 77.5177V56.2518C232.819 54.5139 232.264 53.1419 231.154 52.1358C230.137 51.0382 228.75 50.4894 226.992 50.4894H226.16C224.31 50.4894 222.83 51.0382 221.72 52.1358C220.61 53.1419 220.055 54.5139 220.055 56.2518V77.5177C220.055 79.347 220.61 80.8105 221.72 81.9081C222.83 82.9142 224.31 83.4173 226.16 83.4173H226.992C228.657 83.4173 230.045 82.8685 231.154 81.7709C232.264 80.5818 232.819 79.1641 232.819 77.5177ZM172.327 87.9448L205.348 3.97879C206.366 1.32626 208.354 0 211.314 0C212.887 0 214.413 0.457334 215.893 1.372C217.465 2.28666 218.251 3.84159 218.251 6.03678C218.251 6.95144 218.066 7.82037 217.696 8.64357L185.092 92.198C183.797 95.3993 181.716 97 178.848 97C176.628 97 174.871 96.4055 173.576 95.2164C172.281 94.1188 171.634 92.7468 171.634 91.1004C171.634 90.0943 171.865 89.0424 172.327 87.9448Z" fill="white"/>
</svg>
