<svg width="16" height="16" viewBox="0 0 16 16" fill="none" xmlns="http://www.w3.org/2000/svg">
<path fill-rule="evenodd" clip-rule="evenodd" d="M7.73389 15.6549C7.18808 15.1606 7.14634 14.3174 7.64066 13.7716L11.6602 9.33333L1.33333 9.33333C0.596954 9.33333 1.27001e-06 8.73638 1.39876e-06 8C1.52752e-06 7.26362 0.596954 6.66667 1.33333 6.66667L11.6602 6.66667L7.64066 2.22838C7.14634 1.68257 7.18809 0.839385 7.73389 0.34507C8.2797 -0.149246 9.12289 -0.107503 9.61721 0.438303L15.6549 7.10496C16.115 7.61297 16.115 8.38703 15.6549 8.89504L9.6172 15.5617C9.12289 16.1075 8.2797 16.1492 7.73389 15.6549Z" fill="#12020A"/>
</svg>
