<svg width="157" height="50" viewBox="0 0 157 50" fill="none" xmlns="http://www.w3.org/2000/svg">
<g clip-path="url(#clip0_203_29)">
<path d="M65.6424 32.0832C65.802 32.0034 65.6025 31.8837 65.6424 31.8438C65.403 31.9635 65.7621 31.9635 65.6424 32.0832Z" fill="#B13675"/>
<path d="M72.5856 31.9634H72.5457C72.5457 31.9634 72.5457 31.9634 72.5058 32.0033L72.5856 31.9634Z" fill="#B13675"/>
<path d="M72.7855 31.9634L72.7456 32.0831C72.8653 32.123 72.8254 31.9634 72.7855 31.9634Z" fill="#B13675"/>
<path d="M68.7549 31.9632C68.8347 32.043 68.9145 32.0031 68.9544 31.9233C68.9544 31.8834 68.8347 31.9632 68.7549 31.9632Z" fill="#B13675"/>
<path d="M81.6841 32.0431C81.8437 31.9633 81.6441 31.8436 81.6841 31.8037C81.4446 31.8835 81.8437 31.9234 81.6841 32.0431Z" fill="#B13675"/>
<path d="M88.6271 31.9238H88.5872C88.5872 31.9238 88.5872 31.9238 88.5473 31.9637L88.6271 31.9238Z" fill="#B13675"/>
<path d="M88.827 31.8838L88.7871 32.0035C88.9068 32.0833 88.9068 31.9237 88.827 31.8838Z" fill="#B13675"/>
<path d="M84.8364 31.9236C84.9162 32.0034 84.996 31.9635 85.0359 31.8837C84.996 31.8438 84.9162 31.8837 84.8364 31.9236Z" fill="#B13675"/>
<path d="M97.7653 31.9631C97.925 31.8832 97.7254 31.7635 97.7653 31.7236C97.5259 31.8433 97.8851 31.8832 97.7653 31.9631Z" fill="#B13675"/>
<path d="M104.709 31.8438H104.669C104.669 31.8438 104.669 31.8437 104.629 31.8837L104.709 31.8438Z" fill="#B13675"/>
<path d="M104.908 31.8438L104.868 31.9635C104.988 32.0034 104.948 31.8837 104.908 31.8438Z" fill="#B13675"/>
<path d="M100.878 31.8436C100.958 31.9234 101.037 31.8835 101.077 31.8037C101.077 31.8037 100.958 31.8436 100.878 31.8436Z" fill="#B13675"/>
<path d="M149.92 32.0832C149.761 31.9635 150.16 31.9635 149.92 31.8438C149.92 31.8837 149.721 32.0034 149.92 32.0832Z" fill="#B13675"/>
<path d="M142.778 32.0831L142.738 31.9634C142.698 31.9634 142.658 32.123 142.778 32.0831Z" fill="#B13675"/>
<path d="M146.528 31.9233C146.568 32.0031 146.688 32.043 146.728 31.9632C146.688 31.9632 146.608 31.8834 146.528 31.9233Z" fill="#B13675"/>
<path d="M133.839 32.0431C133.679 31.9234 134.078 31.9234 133.839 31.8037C133.879 31.8037 133.679 31.9633 133.839 32.0431Z" fill="#B13675"/>
<path d="M125.778 31.9635C125.778 31.9236 125.738 31.9236 125.778 31.9635C125.738 31.9635 125.738 31.9635 125.738 31.9635C125.738 31.9635 125.738 31.9635 125.778 31.9635Z" fill="#B13675"/>
<path d="M126.736 32.0435L126.696 31.9238C126.616 31.9238 126.616 32.0834 126.736 32.0435Z" fill="#B13675"/>
<path d="M130.487 31.8837C130.527 31.9635 130.646 32.0034 130.686 31.9236C130.607 31.8837 130.527 31.8438 130.487 31.8837Z" fill="#B13675"/>
<path d="M117.797 31.9631C117.638 31.8433 118.037 31.8433 117.797 31.7236C117.837 31.7635 117.598 31.9232 117.797 31.9631Z" fill="#B13675"/>
<path d="M110.894 31.8834C110.894 31.8435 110.854 31.8435 110.894 31.8834H110.814H110.894Z" fill="#B13675"/>
<path d="M110.654 31.9635L110.615 31.8438C110.575 31.8837 110.535 32.0034 110.654 31.9635Z" fill="#B13675"/>
<path d="M114.405 31.8037C114.445 31.8835 114.565 31.9234 114.605 31.8436C114.565 31.8436 114.485 31.8037 114.405 31.8037Z" fill="#B13675"/>
<path d="M58.8188 30.5269C58.8188 30.6466 58.8188 31.9235 58.8188 32.0831C59.178 32.0432 59.6568 32.123 59.8563 31.9634C60.2554 32.0432 60.5746 32.2028 61.0136 32.2028V32.1629C61.1732 32.123 61.4525 32.0831 61.4525 31.8836C61.7717 31.9235 61.9713 32.2028 62.3304 32.123L62.2506 32.0432C62.3304 32.0033 62.49 32.0831 62.5299 32.123C62.5698 32.123 62.5299 32.0831 62.5299 32.0432C62.6097 31.9634 62.6895 32.0831 62.7294 32.0831L62.6895 32.0033C62.9689 31.8836 63.4477 32.123 63.8468 32.0831C63.7669 32.0831 63.8068 32.0033 63.8468 31.9634C64.0064 32.1629 64.4453 32.123 64.6049 32.1629L64.5251 32.0831C64.8444 32.2028 64.8045 31.8836 65.1237 32.0033L64.9641 32.123C65.0838 32.0831 65.2035 32.123 65.1636 32.2028C65.3232 32.123 65.1636 32.0432 65.403 32.0432C65.403 32.0033 65.2434 32.0033 65.3232 31.9235L65.6424 31.7639C65.6424 31.7639 65.6424 31.7639 65.6824 31.7639H65.6424C65.6424 31.7639 65.6823 31.724 65.8021 31.7639C65.7622 32.0432 66.0415 31.7639 65.9218 32.0432C66.3607 32.0831 66.7199 31.8836 67.1189 32.0033C67.2785 31.7639 67.8771 32.0033 67.8372 31.6841C68.0367 31.6841 68.2362 31.7639 68.3559 31.8836C68.316 31.9235 68.2761 31.8836 68.2362 31.8437C68.2761 31.9235 68.5555 31.9235 68.6353 31.9235C68.5155 31.8437 68.2761 31.7639 68.1564 31.6442C68.3559 31.6841 68.6353 31.8038 68.7151 31.8437L68.755 31.6841C68.9146 31.8038 68.8747 31.5644 69.0343 31.724L68.9944 31.7639C69.2737 31.7639 69.3136 31.9235 69.5531 31.9634V31.8836C69.6329 31.8437 69.7925 32.0033 69.8723 31.8836H69.6728C69.6728 31.7639 69.8324 31.724 69.9122 31.6442C70.1117 31.6841 69.992 31.8437 70.0718 31.8437C70.1117 31.724 70.0718 31.8038 70.0319 31.6841C70.2314 31.724 70.5507 31.7639 70.6704 31.9235V31.8836C70.9098 31.8836 71.0694 32.0831 71.229 31.9634H71.1891C71.3487 31.8038 71.668 32.123 71.668 31.8437C71.7478 31.8038 71.4685 31.8437 71.6281 31.724C71.9074 31.6442 71.7877 31.9634 72.0271 31.8836C71.9872 31.8836 71.9872 31.8836 71.9872 31.8437C72.1468 31.8437 72.3863 31.8836 72.5459 31.9235C72.7853 31.6841 73.2242 32.0033 73.5036 31.724C73.4238 31.8038 73.5834 31.8437 73.5834 31.8836V31.8437C73.6632 31.8437 73.7031 31.9235 73.743 31.9634C73.8228 31.8836 74.0223 32.0432 74.0622 32.0033C74.0622 32.0432 74.142 32.0432 74.2219 32.0432C74.0622 31.9634 74.1819 31.9235 74.1021 31.8437C74.3416 31.8038 74.3815 32.123 74.6608 32.0432L74.8204 31.9235C74.8204 32.0033 74.9002 32.0432 74.9401 32.0432C75.2993 32.0033 75.7781 32.0432 75.9776 31.8836C76.3767 31.9634 76.6959 32.123 77.1349 32.123V32.0831C77.2945 32.0432 77.5738 32.0033 77.5738 31.8038C77.893 31.8437 78.0926 32.123 78.4517 32.0432L78.3719 31.9634C78.4517 31.9235 78.6113 32.0033 78.6512 32.0432C78.6911 32.0432 78.6512 32.0033 78.6512 31.9634C78.731 31.8836 78.8108 32.0033 78.8507 32.0033L78.8108 31.9235C79.0902 31.8038 79.569 32.0432 79.9681 32.0033C79.8883 32.0033 79.9282 31.9235 79.9681 31.8836C80.1277 32.0831 80.5666 32.0432 80.7262 32.0831L80.6464 32.0033C80.9657 32.123 80.9258 31.8038 81.245 31.9235L81.0854 32.0432C81.2051 32.0033 81.3248 32.0432 81.2849 32.123C81.4445 32.0432 81.2849 31.9634 81.5243 31.9634C81.5243 31.9235 81.3647 31.9235 81.4445 31.8437L81.7638 31.6841C81.7638 31.6841 81.7638 31.6841 81.8037 31.6841H81.7638C81.7638 31.6841 81.8037 31.6442 81.9234 31.6841C81.8835 31.9634 82.1628 31.6841 82.0431 31.9634C82.482 32.0033 82.8412 31.8038 83.2402 31.9235C83.3998 31.6841 83.9984 31.9235 83.9585 31.6043C84.158 31.6043 84.3575 31.6841 84.4772 31.8038C84.4373 31.8437 84.3974 31.8038 84.3575 31.7639C84.3974 31.8437 84.6768 31.8437 84.7566 31.8437C84.6369 31.7639 84.3974 31.6841 84.2777 31.5644C84.4772 31.6043 84.7566 31.724 84.8364 31.7639L84.8763 31.6043C85.0359 31.724 84.996 31.4846 85.1556 31.6442L85.1157 31.6841C85.395 31.6841 85.4349 31.8437 85.6744 31.8836V31.8038C85.7542 31.7639 85.9138 31.9235 85.9936 31.8038H85.7941C85.7941 31.6841 85.9537 31.6442 86.0335 31.5644C86.233 31.6043 86.1133 31.7639 86.1931 31.7639C86.233 31.6442 86.1931 31.724 86.1532 31.6043C86.3527 31.6442 86.672 31.6841 86.7917 31.8437V31.8038C87.0311 31.8038 87.1907 32.0033 87.3503 31.8836H87.3104C87.4701 31.724 87.7893 32.0432 87.7893 31.7639C87.8691 31.724 87.5898 31.7639 87.7494 31.6442C88.0287 31.5644 87.909 31.8836 88.1484 31.8038C88.1085 31.8038 88.1085 31.8038 88.1085 31.7639C88.2681 31.7639 88.5076 31.8038 88.6672 31.8437C88.9066 31.6043 89.3456 31.9235 89.6249 31.6442C89.5451 31.724 89.7047 31.7639 89.7047 31.8038V31.7639C89.7845 31.7639 89.8244 31.8437 89.8643 31.8836C89.9441 31.8038 90.1436 31.9634 90.1835 31.9235C90.1835 31.9634 90.2634 31.9634 90.3432 31.9634C90.1835 31.8836 90.3033 31.8437 90.2235 31.7639C90.4629 31.724 90.5028 32.0432 90.7821 31.9634L90.9417 31.8437C90.9417 31.9235 91.0215 31.9634 91.0614 31.9634C91.4206 31.9235 91.8994 31.9634 92.099 31.8038C92.498 31.8836 92.8172 32.0432 93.2562 32.0432V32.0033C93.4158 31.9634 93.6951 31.9235 93.6951 31.724C94.0144 31.7639 94.2139 32.0432 94.573 31.9634L94.4932 31.8836C94.573 31.8437 94.7326 31.9235 94.7725 31.9634C94.8124 31.9634 94.7725 31.9235 94.7725 31.8836C94.8523 31.8038 94.9322 31.9235 94.9721 31.9235L94.9322 31.8437C95.2115 31.724 95.6903 31.9634 96.0894 31.9235C96.0096 31.9235 96.0495 31.8437 96.0894 31.8038C96.249 32.0033 96.6879 31.9634 96.8476 32.0033L96.7677 31.9235C97.087 32.0432 97.0471 31.724 97.3663 31.8437L97.2067 31.9634C97.3264 31.9235 97.4461 31.9634 97.4062 32.0432C97.5658 31.9634 97.4062 31.8836 97.6456 31.8836C97.6456 31.8437 97.486 31.8437 97.5658 31.7639L97.8851 31.6043C97.8851 31.6043 97.8851 31.6043 97.925 31.6043H97.8851C97.8851 31.6043 97.925 31.5644 98.0447 31.6043C98.0048 31.8836 98.2841 31.6043 98.1644 31.8836C98.6033 31.9235 98.9625 31.724 99.3615 31.8437C99.5211 31.6043 100.12 31.8437 100.08 31.5245C100.279 31.5245 100.479 31.6043 100.599 31.724C100.559 31.7639 100.519 31.724 100.479 31.6841C100.519 31.7639 100.798 31.7639 100.878 31.7639C100.758 31.6841 100.519 31.6043 100.399 31.4846C100.599 31.5245 100.878 31.6442 100.958 31.6841L100.998 31.5245C101.157 31.6442 101.117 31.4047 101.277 31.5644L101.237 31.6043C101.516 31.6043 101.556 31.7639 101.796 31.8038V31.724C101.875 31.6841 102.035 31.8437 102.115 31.724H101.915C101.915 31.6043 102.075 31.5644 102.155 31.4846C102.354 31.5245 102.235 31.6841 102.314 31.6841C102.354 31.5644 102.314 31.6442 102.275 31.5245C102.474 31.5644 102.793 31.6043 102.913 31.7639V31.724C103.152 31.724 103.312 31.9235 103.472 31.8038H103.432C103.591 31.6442 103.911 31.9634 103.911 31.6841C103.99 31.6442 103.711 31.6841 103.871 31.5644C104.15 31.4846 104.03 31.8038 104.27 31.724C104.23 31.724 104.23 31.724 104.23 31.6841C104.389 31.6841 104.629 31.724 104.789 31.7639C105.028 31.5245 105.467 31.8437 105.746 31.5644C105.666 31.6442 105.826 31.6841 105.826 31.724V31.6841C105.906 31.6841 105.946 31.7639 105.986 31.8038C106.065 31.724 106.265 31.8836 106.305 31.8437C106.305 31.8836 106.385 31.8836 106.464 31.8836C106.305 31.8038 106.425 31.7639 106.345 31.6841C106.584 31.6442 106.624 31.9634 106.903 31.8836L107.063 31.7639C107.063 31.7639 107.103 31.7639 107.183 31.8038C107.422 32.0033 107.542 31.724 107.542 31.8437C107.502 32.0432 107.941 31.8437 107.981 31.8437C108.021 31.8437 108.46 32.0432 108.42 31.8437C108.38 31.7639 108.5 32.0432 108.779 31.8038C108.819 31.7639 108.899 31.8038 108.899 31.7639L109.058 31.8836C109.338 31.9235 109.377 31.6442 109.617 31.6841C109.537 31.7639 109.657 31.8437 109.497 31.8836C109.577 31.8836 109.657 31.8836 109.657 31.8437C109.697 31.8836 109.896 31.724 109.976 31.8038C110.016 31.7639 110.016 31.6841 110.136 31.6841V31.724C110.136 31.6841 110.295 31.6841 110.215 31.5644C110.495 31.8437 110.934 31.5245 111.173 31.7639C111.373 31.724 111.572 31.724 111.732 31.6841C111.732 31.724 111.732 31.724 111.692 31.724C111.931 31.8038 111.852 31.4846 112.091 31.5644C112.211 31.6841 111.931 31.6442 112.051 31.6841C112.091 31.9634 112.37 31.6442 112.53 31.8038H112.49C112.61 31.8836 112.809 31.6841 113.049 31.724V31.7639C113.208 31.6043 113.488 31.5644 113.687 31.5245C113.607 31.6442 113.607 31.5644 113.647 31.6841C113.727 31.6841 113.607 31.5245 113.807 31.4846C113.887 31.5245 114.006 31.6043 114.046 31.724H113.847C113.927 31.8836 114.086 31.724 114.166 31.724V31.8038C114.445 31.7639 114.445 31.6043 114.725 31.6043L114.685 31.5644C114.844 31.4047 114.804 31.6442 114.964 31.5245L115.004 31.6841C115.124 31.6442 115.363 31.5245 115.563 31.4846C115.443 31.6043 115.243 31.6841 115.084 31.7639C115.204 31.7639 115.443 31.7639 115.483 31.6841C115.443 31.6841 115.403 31.724 115.363 31.724C115.483 31.6043 115.682 31.5245 115.882 31.5245C115.842 31.8437 116.441 31.6043 116.6 31.8437C116.959 31.724 117.358 31.8836 117.797 31.8836C117.638 31.6442 117.917 31.8836 117.917 31.6043C118.037 31.6043 118.037 31.6043 118.077 31.6043H118.037C118.037 31.6043 118.037 31.6043 118.077 31.6043L118.396 31.7639C118.476 31.8437 118.316 31.8038 118.316 31.8836C118.555 31.8836 118.396 32.0033 118.555 32.0432C118.516 31.9634 118.635 31.9235 118.755 31.9634L118.595 31.8437C118.915 31.6841 118.875 32.0432 119.194 31.9235L119.114 32.0033C119.274 31.9634 119.713 32.0033 119.872 31.8038C119.912 31.8437 119.952 31.9235 119.872 31.9235C120.271 31.9634 120.71 31.6841 121.03 31.8437L120.99 31.9235C121.069 31.9235 121.109 31.8038 121.189 31.8836C121.189 31.9235 121.149 31.9634 121.189 31.9634C121.229 31.9235 121.389 31.8437 121.468 31.8836L121.389 31.9634C121.748 32.0432 121.947 31.8038 122.267 31.724C122.267 31.9235 122.546 31.9634 122.706 32.0033V32.0432C123.144 32.0831 123.464 31.8836 123.863 31.8038C124.062 31.9634 124.541 31.9235 124.9 31.9634C124.94 31.9634 125.02 31.9235 125.02 31.8437L125.18 31.9634C125.459 32.0033 125.499 31.724 125.738 31.7639C125.658 31.8437 125.778 31.9235 125.619 31.9634C125.698 31.9634 125.778 31.9634 125.778 31.9235C125.818 31.9634 126.018 31.8038 126.097 31.8836C126.137 31.8437 126.137 31.7639 126.257 31.7639V31.8038C126.257 31.7639 126.417 31.7639 126.337 31.6442C126.616 31.9235 127.055 31.6043 127.294 31.8437C127.494 31.8038 127.694 31.8038 127.853 31.7639C127.853 31.8038 127.853 31.8038 127.813 31.8038C128.053 31.8836 127.973 31.5644 128.212 31.6442C128.332 31.7639 128.053 31.724 128.172 31.7639C128.212 32.0432 128.492 31.724 128.651 31.8836H128.611C128.731 31.9634 128.931 31.7639 129.17 31.8038V31.8437C129.33 31.6841 129.609 31.6442 129.808 31.6043C129.729 31.724 129.729 31.6442 129.769 31.7639C129.848 31.7639 129.729 31.6043 129.928 31.5644C130.008 31.6043 130.128 31.6841 130.168 31.8038H129.968C130.048 31.9634 130.207 31.8038 130.287 31.8038V31.8836C130.567 31.8437 130.567 31.6841 130.846 31.6841L130.806 31.6442C130.966 31.4846 130.926 31.724 131.085 31.6043L131.125 31.7639C131.245 31.724 131.484 31.6043 131.684 31.5644C131.564 31.6841 131.365 31.7639 131.205 31.8437C131.325 31.8437 131.564 31.8437 131.604 31.7639C131.564 31.7639 131.524 31.8038 131.484 31.8038C131.604 31.6841 131.804 31.6043 132.003 31.6043C131.963 31.9235 132.562 31.6841 132.721 31.9235C133.081 31.8038 133.48 31.9634 133.919 31.9634C133.759 31.724 134.038 31.9634 134.038 31.6841C134.158 31.6841 134.158 31.6841 134.198 31.6841H134.158C134.158 31.6841 134.158 31.6841 134.198 31.6841L134.517 31.8437C134.597 31.9235 134.437 31.8836 134.437 31.9634C134.677 31.9634 134.517 32.0831 134.677 32.123C134.637 32.0432 134.757 32.0033 134.876 32.0432L134.717 31.9235C135.036 31.7639 134.996 32.123 135.315 32.0033L135.235 32.0831C135.395 32.0432 135.834 32.0831 135.994 31.8836C136.034 31.9235 136.073 32.0033 135.994 32.0033C136.393 32.0432 136.832 31.7639 137.151 31.9235L137.111 32.0033C137.191 32.0033 137.231 31.8836 137.31 31.9634C137.31 32.0033 137.271 32.0432 137.31 32.0432C137.35 32.0033 137.51 31.9235 137.59 31.9634L137.51 32.0432C137.869 32.123 138.069 31.8836 138.388 31.8038C138.388 32.0033 138.667 32.0432 138.827 32.0831V32.123C139.266 32.1629 139.585 31.9634 139.984 31.8836C140.184 32.0432 140.662 32.0033 141.022 32.0432C141.061 32.0432 141.141 32.0033 141.141 31.9235L141.301 32.0432C141.58 32.0831 141.62 31.8038 141.86 31.8437C141.78 31.9235 141.899 32.0033 141.74 32.0432C141.82 32.0432 141.899 32.0432 141.899 32.0033C141.939 32.0432 142.139 31.8836 142.219 31.9634C142.259 31.9235 142.259 31.8437 142.378 31.8437V31.8836C142.378 31.8437 142.538 31.8437 142.458 31.724C142.737 32.0033 143.176 31.6841 143.416 31.9235C143.615 31.8836 143.815 31.8836 143.974 31.8437C143.974 31.8836 143.974 31.8836 143.935 31.8836C144.174 31.9634 144.094 31.6442 144.334 31.724C144.453 31.8437 144.174 31.8038 144.294 31.8437C144.334 32.123 144.613 31.8038 144.773 31.9634H144.733C144.852 32.0432 145.052 31.8437 145.291 31.8836V31.9235C145.451 31.7639 145.73 31.724 145.93 31.6841C145.85 31.8038 145.85 31.724 145.89 31.8437C145.97 31.8437 145.85 31.6841 146.049 31.6442C146.129 31.6841 146.249 31.7639 146.289 31.8836H146.089C146.169 32.0432 146.329 31.8836 146.409 31.8836V31.9634C146.688 31.9235 146.688 31.7639 146.967 31.7639L146.927 31.724C147.087 31.5644 147.047 31.8038 147.207 31.6841L147.247 31.8437C147.366 31.8038 147.606 31.6841 147.805 31.6442C147.686 31.7639 147.486 31.8437 147.326 31.9235C147.446 31.9235 147.686 31.9235 147.725 31.8437C147.686 31.8437 147.646 31.8836 147.606 31.8836C147.725 31.7639 147.925 31.6841 148.125 31.6841C148.085 32.0033 148.683 31.7639 148.843 32.0033C149.202 31.8836 149.601 32.0432 150.04 32.0432C149.88 31.8038 150.16 32.0432 150.16 31.7639C150.279 31.7639 150.279 31.7639 150.319 31.7639H150.279C150.279 31.7639 150.279 31.7639 150.319 31.7639L150.638 31.9235C150.718 32.0033 150.559 31.9634 150.559 32.0432C150.798 32.0432 150.638 32.1629 150.798 32.2028C150.758 32.123 150.878 32.0831 150.998 32.123L150.838 32.0033C151.157 31.8437 151.117 32.2028 151.437 32.0831L151.357 32.1629C151.516 32.123 151.955 32.1629 152.115 31.9634C152.155 32.0033 152.195 32.0831 152.115 32.0831C152.514 32.123 152.953 31.8437 153.272 32.0033L153.232 32.0831C153.312 32.0831 153.352 31.9634 153.432 32.0432C153.432 32.0831 153.392 32.123 153.432 32.123C153.472 32.0831 153.631 32.0033 153.711 32.0432L153.631 32.123C153.99 32.2028 154.19 31.9634 154.509 31.8836C154.509 32.0831 154.789 32.123 154.948 32.1629V32.2028C155.387 32.2427 155.706 32.0432 156.105 31.9634C156.305 32.123 156.784 32.0432 157.143 32.0831C157.143 31.8836 157.143 30.6466 157.143 30.5269H58.8188Z" fill="#B13675"/>
<path d="M68.4358 23.743L61.0136 12.8492V23.743H58.9785V9.25781H60.854L68.9545 21.0695L77.1349 9.25781H79.0104V23.7031H76.9354V12.7694L69.4334 23.743H68.4358Z" fill="#434343"/>
<path d="M99.0022 11.0534H88.9064C88.3876 11.0534 87.8689 11.1731 87.3501 11.3726C86.8314 11.5721 86.3525 11.8914 85.9535 12.2505C85.5544 12.6495 85.1953 13.0885 84.916 13.6072C84.6367 14.126 84.5169 14.6847 84.477 15.2832H98.8825V16.9991H84.477V17.3183C84.477 17.9967 84.5967 18.6352 84.8362 19.1938C85.0756 19.7525 85.4347 20.2313 85.8338 20.6703C86.2727 21.0693 86.7516 21.3886 87.3102 21.628C87.8689 21.8674 88.4675 21.9472 89.1458 21.9472H98.9623V23.6631H88.4675C87.6694 23.6631 86.9112 23.5035 86.1929 23.2242C85.4746 22.9448 84.7963 22.5059 84.2376 21.9472C83.6789 21.3886 83.2001 20.7501 82.841 19.9919C82.4818 19.2337 82.3222 18.3957 82.3222 17.438V15.4029C82.3222 14.4851 82.4818 13.6471 82.8809 12.889C83.24 12.1308 83.7189 11.4923 84.3174 10.9337C84.916 10.375 85.5544 9.97595 86.3126 9.65672C87.0708 9.33749 87.829 9.21777 88.5872 9.21777H98.9623V11.0534H99.0022Z" fill="#434343"/>
<path d="M118.396 23.7432H107.981C107.103 23.7432 106.305 23.5836 105.586 23.3042C104.868 23.0249 104.23 22.586 103.671 22.0672C103.152 21.5484 102.713 20.8701 102.434 20.1119C102.115 19.3537 101.995 18.4758 101.995 17.5181V9.29785H104.11V17.3585C104.11 18.0768 104.23 18.7153 104.429 19.3138C104.629 19.8725 104.948 20.3513 105.307 20.7903C105.706 21.1893 106.145 21.5085 106.664 21.7081C107.183 21.9076 107.781 22.0273 108.42 22.0273H118.396V23.7432Z" fill="#434343"/>
<path d="M122.227 9.29785V15.4032H129.849C130.447 15.4032 130.926 15.3234 131.365 15.1638C131.764 15.0042 132.163 14.645 132.482 14.0864C132.562 13.9267 132.762 13.6474 133.001 13.1686C133.28 12.6897 133.56 12.2109 133.839 11.6921C134.158 11.1734 134.438 10.6546 134.677 10.2156C134.916 9.7368 135.116 9.45747 135.196 9.29785H137.47L134.398 14.8046C134.198 15.1638 133.999 15.4431 133.759 15.7224C133.52 16.0018 133.2 16.2013 132.801 16.321V16.3609C133.28 16.4407 133.679 16.6003 133.959 16.8398C134.278 17.0792 134.517 17.4383 134.757 17.8773L137.949 23.7831H135.675L132.881 18.5955C132.762 18.3162 132.602 18.1167 132.402 17.9172C132.243 17.7176 132.003 17.5979 131.764 17.4782C131.525 17.3585 131.205 17.2787 130.886 17.2388C130.527 17.1989 130.128 17.159 129.649 17.159H122.227V23.7831H120.152V9.29785H122.227Z" fill="#434343"/>
<path d="M156.864 11.0534H146.768C146.249 11.0534 145.73 11.1731 145.211 11.3726C144.693 11.5721 144.214 11.8914 143.815 12.2505C143.416 12.6495 143.057 13.0885 142.777 13.6072C142.498 14.126 142.378 14.6847 142.338 15.2832H156.744V16.9991H142.338V17.3183C142.338 17.9967 142.458 18.6352 142.698 19.1938C142.937 19.7525 143.296 20.2313 143.695 20.6703C144.134 21.0693 144.613 21.3886 145.172 21.628C145.73 21.8674 146.329 21.9472 147.007 21.9472H156.824V23.6631H146.329C145.531 23.6631 144.773 23.5035 144.054 23.2242C143.336 22.9448 142.658 22.5059 142.099 21.9472C141.54 21.3886 141.061 20.7501 140.702 19.9919C140.343 19.2337 140.184 18.3957 140.184 17.438V15.4029C140.184 14.4851 140.343 13.6471 140.742 12.889C141.141 12.1308 141.58 11.4923 142.179 10.9337C142.777 10.375 143.416 9.97595 144.174 9.65672C144.932 9.33749 145.69 9.21777 146.449 9.21777H156.824V11.0534H156.864Z" fill="#434343"/>
<path d="M48.3241 12.4904L40.7423 1.83594V11.1336C40.7024 11.1336 40.6625 11.1336 40.6226 11.1336C40.5428 11.1735 40.5029 11.1735 40.463 11.2533H40.5029C40.5029 11.2932 40.463 11.2932 40.4231 11.2932C40.4231 11.3331 40.3832 11.2932 40.3832 11.3331C40.3433 11.413 40.2236 11.4529 40.1837 11.4928C40.1438 11.4928 40.064 11.5726 40.0241 11.5726H40.064C39.9842 11.6125 40.064 11.6524 39.9842 11.6923V11.6524C39.9842 11.6923 39.9442 11.6923 39.9442 11.6524C39.9442 11.6923 39.9442 11.6923 39.9442 11.7322H39.9842L39.9442 11.812C39.9442 11.812 39.9442 11.812 39.9043 11.8519C39.8644 11.812 39.8644 11.8918 39.8644 11.812C39.7846 11.8918 39.7447 11.9716 39.6649 12.0115C39.6649 12.0913 39.5452 12.1312 39.5851 12.1711C39.5452 12.211 39.5053 12.211 39.4654 12.211C39.4654 12.211 39.4654 12.211 39.5053 12.211C39.4654 12.211 39.4255 12.2509 39.4255 12.2509C39.4654 12.2509 39.5053 12.211 39.5452 12.211C39.5053 12.2509 39.4255 12.2509 39.4255 12.2908V12.3307C39.3856 12.3307 39.4255 12.3707 39.3856 12.3707C39.3457 12.4106 39.3058 12.4106 39.2659 12.4505C39.2659 12.4505 39.226 12.4505 39.226 12.4904L39.2659 12.4505C39.2659 12.4904 39.2659 12.4904 39.2659 12.5303C39.226 12.5702 39.226 12.5303 39.226 12.5303C39.226 12.5702 39.226 12.5303 39.2659 12.5303C39.226 12.5702 39.1861 12.6101 39.1063 12.6101C39.0664 12.65 39.0264 12.65 38.9865 12.6899C38.9865 12.7298 38.8668 12.7298 38.9067 12.7697C38.9067 12.8096 38.9466 12.7298 38.9466 12.7697C38.9067 12.8096 38.8668 12.7697 38.8668 12.8096C38.8269 12.8495 38.787 12.8495 38.7471 12.8894C38.7471 12.9692 38.6274 13.0091 38.6274 13.0889C38.6274 13.049 38.5875 13.0889 38.5875 13.0889H38.5476C38.5476 13.1288 38.5077 13.1288 38.5077 13.1288C38.5077 13.1288 38.5077 13.1288 38.4678 13.1288C38.5077 13.1288 38.5077 13.1288 38.5077 13.1288C38.4678 13.1687 38.4279 13.1288 38.388 13.1687V13.2086H38.3481C38.3082 13.2884 38.1885 13.3284 38.1885 13.4082C38.1087 13.4481 38.0288 13.488 37.949 13.5678C37.9091 13.6077 37.8692 13.6476 37.9091 13.6875C37.8293 13.7274 37.7894 13.7274 37.7096 13.8072H37.7495C37.7495 13.8471 37.7096 13.8471 37.6697 13.8471C37.6697 13.887 37.6298 13.8471 37.6298 13.887C37.5899 13.9668 37.4702 14.0067 37.4303 14.0466C37.3904 14.0466 37.3106 14.1264 37.2707 14.1264H37.3106C37.2308 14.1663 37.3106 14.2062 37.2308 14.2462V14.2062C37.2308 14.2462 37.1909 14.2462 37.1909 14.2062C37.1909 14.2462 37.1909 14.2462 37.1909 14.2861H37.2308L37.1909 14.3659C37.1909 14.3659 37.1909 14.3659 37.151 14.4058C37.111 14.3659 37.111 14.4457 37.111 14.3659C37.0312 14.4457 36.9913 14.5255 36.9115 14.5654C36.9115 14.6452 36.7918 14.6851 36.8317 14.725C36.7918 14.7649 36.7519 14.7649 36.712 14.7649C36.712 14.7649 36.712 14.7649 36.7519 14.7649C36.712 14.7649 36.6721 14.8048 36.6721 14.8048C36.712 14.8048 36.7519 14.7649 36.7918 14.7649C36.7519 14.8048 36.6721 14.8048 36.6721 14.8447V14.8846C36.6322 14.8846 36.6721 14.9245 36.6322 14.9245C36.5923 14.9644 36.5524 14.9644 36.5125 15.0043C36.5125 15.0043 36.4726 15.0043 36.4726 15.0442L36.5125 15.0043C36.5125 15.0442 36.5125 15.0442 36.5125 15.0841C36.4726 15.124 36.4726 15.0841 36.4726 15.0841C36.4726 15.124 36.4726 15.0841 36.5125 15.0841C36.4726 15.124 36.4327 15.1639 36.3529 15.1639C36.313 15.2039 36.2731 15.2039 36.2332 15.2438C36.2332 15.2837 36.1134 15.2837 36.1533 15.3236C36.1533 15.3635 36.1932 15.2837 36.1932 15.3236C36.1533 15.3635 36.1134 15.3236 36.1134 15.3635C36.0735 15.4034 36.0336 15.4034 35.9937 15.4433C35.9937 15.5231 35.874 15.563 35.874 15.6428C35.874 15.6029 35.8341 15.6428 35.8341 15.6428H35.7942C35.7942 15.6827 35.7543 15.6827 35.7543 15.6827C35.7543 15.6827 35.7543 15.6827 35.7144 15.6827C35.7543 15.6827 35.7543 15.6827 35.7543 15.6827C35.7144 15.7226 35.6745 15.6827 35.6346 15.7226V15.7625H35.5947C35.5548 15.8423 35.4351 15.8822 35.4351 15.962C35.3553 16.0019 35.2755 16.0418 35.1956 16.1217C35.1557 16.1616 35.1158 16.2015 35.1557 16.2414C35.0759 16.2813 35.036 16.2813 34.9562 16.3611H34.9961C34.9961 16.401 34.9562 16.401 34.9163 16.401C34.9163 16.4409 34.8764 16.401 34.8764 16.4409C34.8365 16.5207 34.7168 16.5606 34.6769 16.6005C34.637 16.6005 34.5572 16.6803 34.5173 16.6803H34.5572C34.4774 16.7202 34.5572 16.7601 34.4774 16.8V16.7601C34.4774 16.8 34.4375 16.8 34.4375 16.7601C34.4375 16.8 34.4375 16.8 34.4375 16.8399H34.4774L34.4375 16.9197C34.4375 16.9197 34.4375 16.9197 34.3976 16.9596C34.3577 16.9197 34.3577 16.9995 34.3577 16.9197C34.2778 16.9995 34.2379 17.0794 34.1581 17.1193C34.1581 17.1991 34.0384 17.239 34.0783 17.2789C34.0384 17.3188 33.9985 17.3188 33.9586 17.3188C33.9586 17.3188 33.9586 17.3188 33.9985 17.3188C33.9586 17.3188 33.9187 17.3587 33.9187 17.3587C33.9586 17.3587 33.9985 17.3188 34.0384 17.3188C33.9985 17.3587 33.9187 17.3587 33.9187 17.3986V17.4385C33.8788 17.4385 33.9187 17.4784 33.8788 17.4784C33.8389 17.5183 33.799 17.5183 33.7591 17.5582C33.7591 17.5582 33.7192 17.5582 33.7192 17.5981L33.7591 17.5582C33.7591 17.5981 33.7591 17.5981 33.7591 17.638C33.7192 17.6779 33.7192 17.638 33.7192 17.638C33.7192 17.6779 33.7192 17.638 33.7591 17.638C33.7192 17.6779 33.6793 17.7178 33.5995 17.7178C33.5596 17.7577 33.5197 17.7577 33.4798 17.7976C33.4798 17.8375 33.36 17.8375 33.4 17.8774C33.4 17.9173 33.4399 17.8375 33.4399 17.8774C33.4 17.9173 33.36 17.8774 33.36 17.9173C33.3201 17.9572 33.2802 17.9572 33.2403 17.9971C33.2403 18.077 33.1206 18.1169 33.1206 18.1967C33.1206 18.1568 33.0807 18.1967 33.0807 18.1967H33.0408C33.0408 18.2366 33.0009 18.2366 33.0009 18.2366C33.0009 18.2366 33.0009 18.2366 32.961 18.2366C33.0009 18.2366 33.0009 18.2366 33.0009 18.2366C32.961 18.2765 32.9211 18.2366 32.8812 18.2765V18.3164C32.8812 18.3164 32.8812 18.3164 32.8413 18.3164C32.7615 18.3164 32.8014 18.3962 32.7615 18.3563C32.7615 18.3164 32.6817 18.4361 32.6817 18.4361C32.6817 18.4361 32.562 18.476 32.6019 18.5159C32.6019 18.5159 32.562 18.5159 32.562 18.5558C32.562 18.5558 32.562 18.5558 32.562 18.5957H32.5221C32.4822 18.6356 32.5221 18.6755 32.4423 18.7154C32.4423 18.6755 32.4023 18.7154 32.4423 18.6755L32.4023 18.7154L32.3624 18.7553V18.7952V18.8351C32.2826 18.8351 32.2427 18.9549 32.1629 18.9549C32.123 18.9948 32.0831 19.0347 32.0831 19.0746C32.0432 19.1145 32.0831 19.1145 32.0432 19.1544C32.0033 19.1544 32.0432 19.1145 32.0432 19.1145C32.0033 19.0746 32.0033 19.1544 31.9235 19.1943C31.8836 19.1943 31.8836 19.2741 31.8437 19.314C31.8437 19.3539 31.8038 19.3938 31.7639 19.4736C31.7639 19.4337 31.7639 19.4337 31.7639 19.4337C31.7639 19.4337 31.8038 19.4736 31.7639 19.4736C31.7639 19.4736 31.724 19.4736 31.6841 19.4736L31.724 19.4337C31.6841 19.4337 31.6841 19.4736 31.6841 19.4736C31.6442 19.5135 31.6442 19.5534 31.6043 19.5933C31.6043 19.6332 31.5644 19.5933 31.5644 19.6332H31.5245C31.5245 19.6731 31.4846 19.713 31.4446 19.7529C31.4446 19.713 31.4846 19.6731 31.4846 19.6332C31.4846 19.6332 31.4047 19.713 31.4446 19.713V19.6731C31.4446 19.713 31.4047 19.7529 31.3648 19.7928C31.3249 19.7529 31.2451 19.8726 31.2052 19.8726C31.1653 19.9525 31.0855 19.9924 31.0057 20.0722C31.0855 20.0722 30.9658 20.1121 31.0057 20.1121L30.9658 20.152L30.886 20.1919C30.8461 20.1919 30.886 20.152 30.886 20.152C30.8461 20.1919 30.8461 20.152 30.8062 20.152C30.8062 20.152 30.8062 20.1919 30.7663 20.1919H30.8062C30.7663 20.2717 30.7264 20.1919 30.6865 20.2717V20.2318C30.6466 20.2717 30.5668 20.3116 30.5668 20.3914C30.5668 20.3914 30.5268 20.3914 30.5668 20.3914C30.4869 20.4313 30.447 20.551 30.3672 20.5909C30.3672 20.5909 30.3672 20.6308 30.3273 20.6308C30.3273 20.6308 30.3273 20.6707 30.2874 20.6707V20.6308C30.2076 20.6707 30.2076 20.7505 30.1677 20.7904C30.1278 20.7505 30.0879 20.7904 30.048 20.8303C29.9682 20.9102 29.9283 20.99 29.8884 21.0698C29.8485 21.0698 29.7687 21.1496 29.6889 21.2294V21.2693H29.649C29.6091 21.3092 29.649 21.3491 29.5691 21.389C29.5691 21.3491 29.5292 21.389 29.5691 21.3491L29.5292 21.389L29.4893 21.4289V21.4688V21.5087C29.4095 21.5087 29.3696 21.6284 29.2898 21.6284C29.2499 21.6683 29.21 21.7082 29.21 21.7481C29.1701 21.788 29.21 21.7881 29.1701 21.828C29.1302 21.828 29.1701 21.788 29.1701 21.788C29.1302 21.7481 29.1302 21.828 29.0504 21.8679C29.0105 21.8679 29.0105 21.9477 28.9706 21.9876C28.9706 22.0275 28.9307 22.0674 28.8908 22.1472C28.8908 22.1073 28.8908 22.1073 28.8908 22.1073C28.8908 22.1073 28.9307 22.1472 28.8908 22.1472C28.8908 22.1472 28.8509 22.1472 28.811 22.1472L28.8509 22.1073C28.811 22.1073 28.811 22.1472 28.811 22.1472C28.7711 22.1871 28.7711 22.227 28.7312 22.2669C28.7312 22.3068 28.6913 22.2669 28.6913 22.3068H28.6514C28.6514 22.3467 28.6114 22.3866 28.5715 22.4265C28.5715 22.3866 28.6114 22.3467 28.6114 22.3068C28.6114 22.3068 28.5316 22.3866 28.5715 22.3866V22.3467C28.5715 22.3866 28.5316 22.4265 28.4917 22.4664C28.4518 22.4265 28.372 22.5462 28.3321 22.5462C28.2922 22.626 28.2124 22.6659 28.1326 22.7458C28.2124 22.7458 28.0927 22.7857 28.1326 22.7857L28.0927 22.8256L28.0129 22.8655C27.973 22.8655 28.0129 22.8256 28.0129 22.8256C27.973 22.8655 27.973 22.8256 27.9331 22.8256C27.9331 22.8256 27.9331 22.8655 27.8932 22.8655H27.9331C27.8932 22.9453 27.8533 22.8655 27.8134 22.9453V22.9054C27.7735 22.9453 27.6937 22.9852 27.6937 23.065C27.6937 23.065 27.6537 23.065 27.6937 23.065C27.6138 23.1049 27.5739 23.2246 27.4941 23.2645C27.4941 23.2645 27.4941 23.3044 27.4542 23.3044C27.4542 23.3044 27.4542 23.3443 27.4143 23.3443V23.3044C27.3345 23.3443 27.3345 23.4241 27.2946 23.464C27.2547 23.4241 27.2148 23.464 27.1749 23.5039C27.0951 23.5837 27.0552 23.6635 27.0153 23.7434C26.9754 23.7434 26.8956 23.8232 26.8158 23.903V23.9429H26.7759C26.7359 23.9828 26.7759 24.0227 26.696 24.0626C26.696 24.0227 26.6561 24.0626 26.696 24.0227L26.6561 24.0626L26.6162 24.1025V24.1424V24.1823C26.5364 24.1823 26.4965 24.302 26.4167 24.302C26.3768 24.3419 26.3369 24.3818 26.3369 24.4217C26.297 24.4616 26.3369 24.4616 26.297 24.5015C26.2571 24.5015 26.297 24.4616 26.297 24.4616C26.2571 24.4217 26.2571 24.5015 26.1773 24.5414C26.1374 24.5414 26.1374 24.6213 26.0975 24.6612C26.0975 24.7011 26.0576 24.741 26.0177 24.8208C26.0177 24.7809 26.0177 24.7809 26.0177 24.7809C26.0177 24.7809 26.0576 24.8208 26.0177 24.8208C26.0177 24.8208 25.9778 24.8208 25.9379 24.8208L25.9778 24.7809C25.9379 24.7809 25.9379 24.8208 25.9379 24.8208C25.898 24.8607 25.898 24.9006 25.8581 24.9405C25.8581 24.9804 25.8181 24.9405 25.8181 24.9804H25.7782C25.7782 25.0203 25.7383 25.0602 25.6984 25.1001C25.6984 25.0602 25.7383 25.0203 25.7383 24.9804C25.7383 24.9804 25.6585 25.0602 25.6984 25.0602V25.0203C25.6984 25.0602 25.6585 25.1001 25.6186 25.14C25.5787 25.1001 25.4989 25.2198 25.459 25.2198C25.4191 25.2996 25.3393 25.3395 25.2595 25.4193C25.3393 25.4193 25.2196 25.4592 25.2595 25.4592L25.2196 25.4991L25.1398 25.539C25.0999 25.539 25.1398 25.4991 25.1398 25.4991C25.0999 25.539 25.0999 25.4991 25.06 25.4991C25.06 25.4991 25.06 25.539 25.0201 25.539H25.06C25.0201 25.6189 24.9802 25.539 24.9403 25.6189V25.579C24.9004 25.6189 24.8205 25.6588 24.8205 25.7386C24.8205 25.7386 24.7806 25.7386 24.8205 25.7386C24.7407 25.7785 24.7008 25.8982 24.621 25.9381C24.621 25.9381 24.621 25.978 24.5811 25.978C24.5811 25.978 24.5811 26.0179 24.5412 26.0179V25.978C24.4614 26.0179 24.4614 26.0977 24.4215 26.1376C24.3816 26.0977 24.3417 26.1376 24.3018 26.1775C24.222 26.2573 24.1821 26.3371 24.1422 26.4169C24.1023 26.4169 24.1023 26.4169 24.0225 26.4967C24.0225 26.5367 24.0225 26.6165 24.0225 26.6564V50.0402L31.5644 38.2286V20.3914L40.6226 11.9317V24.2222L48.3241 12.4904Z" fill="#AB3473"/>
<path d="M25.2992 25.4593C25.2992 25.4593 25.2992 25.4194 25.2593 25.4194C25.2992 25.4194 25.2593 25.4992 25.2992 25.4593Z" fill="#AB3473"/>
<path d="M25.8184 24.9403C25.8184 24.9403 25.8583 24.9403 25.8583 24.9004C25.8583 24.9004 25.8184 24.9004 25.8184 24.9403Z" fill="#AB3473"/>
<path d="M28.0927 22.8651C28.0927 22.8651 28.0927 22.8252 28.0528 22.8252C28.0927 22.8252 28.0528 22.905 28.0927 22.8651Z" fill="#AB3473"/>
<path d="M28.6113 22.3465C28.6113 22.3465 28.6512 22.3465 28.6512 22.3066C28.6512 22.3066 28.6113 22.3066 28.6113 22.3465Z" fill="#AB3473"/>
<path d="M30.8861 20.2714C30.8861 20.2714 30.8861 20.2314 30.8462 20.2314C30.8861 20.2314 30.8462 20.3113 30.8861 20.2714Z" fill="#AB3473"/>
<path d="M31.4047 19.7528C31.4047 19.7528 31.4446 19.7528 31.4446 19.7129C31.4446 19.7129 31.4047 19.7129 31.4047 19.7528Z" fill="#AB3473"/>
<path d="M39.8643 11.772C39.8643 11.8119 39.9042 11.8119 39.8643 11.772C39.9441 11.772 39.8643 11.8119 39.8643 11.772Z" fill="#AB3473"/>
<path d="M38.5075 13.0889C38.4676 13.0889 38.4676 13.1288 38.5075 13.0889C38.4676 13.1288 38.5075 13.0889 38.5075 13.0889Z" fill="#AB3473"/>
<path d="M39.3057 12.371C39.3057 12.371 39.3057 12.3311 39.3456 12.3311C39.3456 12.3311 39.3057 12.3311 39.3057 12.371Z" fill="#AB3473"/>
<path d="M37.111 14.4056C37.0711 14.4455 37.1509 14.4056 37.111 14.4056C37.1509 14.3657 37.111 14.4455 37.111 14.4056Z" fill="#AB3473"/>
<path d="M36.5522 14.9647C36.5522 14.9647 36.5522 14.9248 36.5922 14.9248C36.5522 14.9248 36.5522 14.9248 36.5522 14.9647Z" fill="#AB3473"/>
<path d="M34.3179 16.9995C34.3179 17.0394 34.3578 17.0394 34.3179 16.9995C34.3977 16.9995 34.3179 17.0394 34.3179 16.9995Z" fill="#AB3473"/>
<path d="M33.7593 17.5585C33.7593 17.5585 33.7593 17.5186 33.7992 17.5186C33.7593 17.5186 33.7593 17.5585 33.7593 17.5585Z" fill="#AB3473"/>
<path d="M23.0648 25.4189C23.0249 25.4189 23.0249 25.4588 23.0249 25.4588C23.1047 25.4988 23.0249 25.4189 23.0648 25.4189Z" fill="#CDD430"/>
<path d="M22.4663 24.9004C22.4663 24.9004 22.5062 24.9004 22.5062 24.9403C22.5062 24.9004 22.5062 24.9004 22.4663 24.9004Z" fill="#CDD430"/>
<path d="M20.2713 22.8252C20.2314 22.8252 20.2314 22.8651 20.2314 22.8651C20.3112 22.905 20.2314 22.8252 20.2713 22.8252Z" fill="#CDD430"/>
<path d="M19.6728 22.3062C19.6728 22.3062 19.7127 22.3062 19.7127 22.3461C19.7127 22.3062 19.7127 22.3062 19.6728 22.3062Z" fill="#CDD430"/>
<path d="M17.4779 20.2314C17.438 20.2314 17.438 20.2714 17.438 20.2714C17.5178 20.3113 17.438 20.2314 17.4779 20.2314Z" fill="#CDD430"/>
<path d="M16.8795 19.7124C16.8795 19.7124 16.9194 19.7124 16.9194 19.7523C16.9194 19.7124 16.9194 19.7124 16.8795 19.7124Z" fill="#CDD430"/>
<path d="M8.45969 11.7715C8.45969 11.8114 8.41979 11.7715 8.45969 11.7715C8.41979 11.8114 8.49959 11.8114 8.45969 11.7715Z" fill="#CDD430"/>
<path d="M9.69672 12.9287C9.69672 12.9686 9.73662 12.9287 9.69672 12.9287V12.9287Z" fill="#CDD430"/>
<path d="M8.97845 12.3301L9.01836 12.37C9.01836 12.3301 9.01836 12.3301 8.97845 12.3301Z" fill="#CDD430"/>
<path d="M11.2528 14.4051C11.2528 14.445 11.1729 14.3652 11.2528 14.4051C11.2129 14.4051 11.2528 14.445 11.2528 14.4051Z" fill="#CDD430"/>
<path d="M11.772 14.9238L11.8119 14.9637C11.8119 14.9238 11.772 14.9238 11.772 14.9238Z" fill="#CDD430"/>
<path d="M14.0061 16.999C14.0461 17.0389 13.9662 16.999 14.0061 16.999C13.9662 17.0389 14.0461 17.0389 14.0061 16.999Z" fill="#CDD430"/>
<path d="M15.2437 18.1562C15.2437 18.1962 15.2836 18.1562 15.2437 18.1562V18.1562Z" fill="#CDD430"/>
<path d="M14.5649 17.5176L14.6048 17.5575C14.5649 17.5575 14.5649 17.5176 14.5649 17.5176Z" fill="#CDD430"/>
<path d="M24.182 26.4564C24.1022 26.4165 24.1421 26.3765 24.0622 26.3765C23.9824 26.2967 23.9824 26.2169 23.9026 26.1371C23.8627 26.1371 23.8228 26.0972 23.7829 26.0972C23.743 26.0573 23.743 25.9775 23.6632 25.9376V25.9775C23.6233 25.9775 23.6233 25.9376 23.6233 25.9376C23.5834 25.9376 23.6233 25.8977 23.5834 25.8977C23.5036 25.8578 23.4637 25.7381 23.3839 25.6982C23.3839 25.6583 23.3041 25.5785 23.2642 25.5386V25.5785C23.2243 25.4987 23.1844 25.5785 23.1445 25.4987H23.1844C23.1444 25.4987 23.1445 25.4588 23.1445 25.4588C23.1045 25.4588 23.1045 25.4987 23.0646 25.4588C23.0646 25.4588 23.1045 25.4987 23.0646 25.4987L22.9848 25.4588C22.9848 25.4588 22.9848 25.4588 22.9449 25.4188C22.9848 25.3789 22.905 25.3789 22.9449 25.3789C22.8651 25.2991 22.7853 25.2592 22.7454 25.1794C22.6656 25.1794 22.6257 25.0597 22.5858 25.0996C22.5459 25.0597 22.5459 25.0198 22.506 24.9799C22.506 24.9799 22.506 24.9799 22.506 25.0198C22.506 24.9799 22.4661 24.94 22.4661 24.94C22.4661 24.9799 22.506 25.0198 22.506 25.0597C22.4661 25.0198 22.4661 24.9799 22.4262 24.94H22.3863C22.3863 24.9001 22.3464 24.94 22.3464 24.9001C22.3065 24.8602 22.3065 24.8203 22.2666 24.7804C22.2267 24.7804 22.2267 24.7405 22.2267 24.7405L22.2666 24.7804C22.2666 24.7804 22.2267 24.7804 22.1867 24.7804C22.1468 24.7405 22.1867 24.7405 22.1867 24.7405C22.1468 24.7405 22.1867 24.7405 22.1867 24.7804C22.1468 24.7405 22.1069 24.7006 22.1069 24.6208C22.067 24.5809 22.067 24.541 22.0271 24.5011C21.9872 24.5011 21.9872 24.4212 21.9074 24.4212C21.8675 24.4212 21.9473 24.4611 21.9074 24.4611C21.8675 24.4212 21.9074 24.3813 21.8675 24.3813C21.8276 24.3414 21.7877 24.3015 21.7877 24.2616C21.7079 24.2616 21.668 24.1419 21.5882 24.1419C21.6281 24.1419 21.5882 24.102 21.5882 24.102V24.0621C21.5483 24.0621 21.5483 24.0222 21.5483 24.0222C21.5483 24.0222 21.5483 24.0222 21.5084 23.9823C21.5483 24.0222 21.5084 24.0222 21.5084 24.0222C21.4685 23.9823 21.5084 23.9424 21.4286 23.9025H21.3887V23.8626C21.3089 23.8227 21.229 23.7429 21.1891 23.703C21.1093 23.6232 21.1093 23.5434 21.0295 23.4635C20.9896 23.4635 20.9497 23.4236 20.9098 23.4236C20.8699 23.3837 20.8699 23.3039 20.7901 23.264V23.3039C20.7502 23.3039 20.7502 23.264 20.7502 23.264C20.7103 23.264 20.7502 23.2241 20.7103 23.2241C20.6305 23.1842 20.5906 23.0645 20.5108 23.0246C20.5108 22.9847 20.431 22.9049 20.3911 22.865V22.9049C20.3512 22.8251 20.3113 22.9049 20.2713 22.8251H20.3113C20.2713 22.8251 20.2713 22.7852 20.2713 22.7852C20.2314 22.7852 20.2314 22.8251 20.1915 22.7852C20.1915 22.7852 20.2314 22.8251 20.1915 22.8251L20.1117 22.7852C20.1117 22.7852 20.1117 22.7852 20.0718 22.7453C20.1117 22.7054 20.0319 22.7054 20.0718 22.7054C19.992 22.6256 19.9122 22.5856 19.8723 22.5058C19.7925 22.5058 19.7526 22.3861 19.7127 22.426C19.6728 22.3861 19.6728 22.3462 19.6329 22.3063C19.6329 22.3063 19.6329 22.3063 19.6329 22.3462C19.6329 22.3063 19.593 22.2664 19.593 22.2664C19.593 22.3063 19.6329 22.3462 19.6329 22.3861C19.593 22.3462 19.593 22.3063 19.5531 22.2664H19.5132C19.5132 22.2265 19.4733 22.2664 19.4733 22.2265C19.4334 22.1866 19.4334 22.1467 19.3935 22.1068C19.3535 22.1068 19.3535 22.0669 19.3535 22.0669L19.3935 22.1068C19.3935 22.1068 19.3535 22.1068 19.3136 22.1068C19.2737 22.0669 19.3136 22.0669 19.3136 22.0669C19.2737 22.0669 19.3136 22.0669 19.3136 22.1068C19.2737 22.0669 19.2338 22.027 19.2338 21.9472C19.1939 21.9073 19.1939 21.8674 19.154 21.8275C19.1141 21.8275 19.1141 21.7477 19.0343 21.7477C18.9944 21.7477 19.0742 21.7876 19.0343 21.7876C18.9944 21.7477 19.0343 21.7078 18.9944 21.7078C18.9545 21.6679 18.9146 21.6279 18.9146 21.588C18.8348 21.588 18.7949 21.4683 18.7151 21.4683C18.755 21.4683 18.7151 21.4284 18.7151 21.4284V21.3885C18.6752 21.3885 18.6752 21.3486 18.6752 21.3486C18.6752 21.3486 18.6752 21.3486 18.6353 21.3087C18.6752 21.3486 18.6353 21.3486 18.6353 21.3486C18.5954 21.3087 18.6353 21.2688 18.5555 21.2289H18.5156V21.189C18.4358 21.1491 18.3559 21.0693 18.316 21.0294C18.2362 20.9496 18.2362 20.8698 18.1564 20.79C18.1165 20.79 18.0766 20.7501 18.0367 20.7501C17.9968 20.7101 17.9968 20.6303 17.917 20.5904V20.6303C17.8771 20.6303 17.8771 20.5904 17.8771 20.5904C17.8372 20.5904 17.8771 20.5505 17.8372 20.5505C17.7574 20.5106 17.7175 20.3909 17.6377 20.351C17.6377 20.3111 17.5579 20.2313 17.518 20.1914V20.2313C17.4781 20.1515 17.4381 20.2313 17.3982 20.1515H17.4381C17.3982 20.1515 17.3982 20.1116 17.3982 20.1116C17.3583 20.1116 17.3583 20.1515 17.3184 20.1116C17.3184 20.1116 17.3583 20.1515 17.3184 20.1515L17.2386 20.1116C17.2386 20.1116 17.2386 20.1116 17.1987 20.0717C17.2386 20.0318 17.1588 20.0318 17.1987 20.0318C17.1189 19.952 17.0391 19.9121 16.9992 19.8323C16.9194 19.8323 16.8795 19.7125 16.8396 19.7524C16.7997 19.7125 16.7997 19.6726 16.7598 19.6327C16.7598 19.6327 16.7598 19.6327 16.7598 19.6726C16.7598 19.6327 16.7199 19.5928 16.7199 19.5928C16.7199 19.6327 16.7598 19.6726 16.7598 19.7125C16.7199 19.6726 16.7199 19.6327 16.68 19.5928H16.6401C16.6401 19.5529 16.6002 19.5928 16.6002 19.5529C16.5603 19.513 16.5603 19.4731 16.5203 19.4332C16.4804 19.4332 16.4804 19.3933 16.4804 19.3933L16.5203 19.4332C16.5203 19.4332 16.4804 19.4332 16.4405 19.4332C16.4006 19.3933 16.4405 19.3933 16.4405 19.3933C16.4006 19.3933 16.4405 19.3933 16.4405 19.4332C16.4006 19.3933 16.3607 19.3534 16.3607 19.2736C16.3208 19.2337 16.3208 19.1938 16.2809 19.1539C16.241 19.1539 16.241 19.0741 16.1612 19.0741C16.1213 19.0741 16.2011 19.114 16.1612 19.114C16.1213 19.0741 16.1612 19.0342 16.1213 19.0342C16.0814 18.9943 16.0415 18.9544 16.0415 18.9145C15.9617 18.9145 15.9218 18.7947 15.842 18.7947C15.8819 18.7947 15.842 18.7548 15.842 18.7548V18.7149C15.8021 18.7149 15.8021 18.675 15.8021 18.675C15.8021 18.675 15.8021 18.675 15.7622 18.6351C15.8021 18.675 15.7622 18.675 15.7622 18.675C15.7223 18.6351 15.7622 18.5952 15.6824 18.5553H15.6425C15.6425 18.5553 15.6425 18.5553 15.6425 18.5154C15.6425 18.4356 15.5626 18.4755 15.6026 18.4755C15.6425 18.4755 15.5227 18.3957 15.5227 18.3957C15.5227 18.3957 15.4828 18.276 15.4429 18.3159C15.4429 18.3159 15.4429 18.276 15.3631 18.276H15.3232V18.2361C15.2833 18.1962 15.2434 18.2361 15.2035 18.1962C15.2434 18.1962 15.2035 18.1563 15.2434 18.1962C15.2434 18.1962 15.2035 18.1563 15.2035 18.1962L15.1636 18.1563H15.1237H15.0838C15.0838 18.0765 14.9641 18.0366 14.9641 17.9568C14.9242 17.9169 14.8843 17.9169 14.8444 17.8769C14.8045 17.837 14.8045 17.8769 14.7646 17.837C14.7646 17.7971 14.8045 17.837 14.8045 17.837C14.8444 17.7971 14.7247 17.7971 14.7247 17.7572C14.7247 17.7173 14.6448 17.7173 14.6049 17.6774C14.565 17.6774 14.4852 17.6375 14.4453 17.5976C14.4852 17.5976 14.4852 17.5976 14.4852 17.5976C14.4852 17.5976 14.4852 17.6375 14.4453 17.5976C14.4453 17.5976 14.4453 17.5577 14.4453 17.5178L14.4852 17.5577C14.4852 17.5178 14.4453 17.5178 14.4453 17.5178C14.4054 17.4779 14.3655 17.5178 14.3256 17.438C14.2857 17.438 14.3256 17.3981 14.2857 17.3981V17.3582C14.2458 17.3582 14.2059 17.3183 14.166 17.2784C14.2059 17.2784 14.2458 17.3183 14.2857 17.3183L14.2059 17.2784H14.2458C14.2059 17.2784 14.166 17.2784 14.1261 17.2385C14.166 17.1986 14.0463 17.1188 14.0463 17.0789C13.9665 17.039 13.9266 16.9592 13.8468 16.8793C13.8468 16.9592 13.8069 16.8793 13.8069 16.9192L13.767 16.8793L13.9665 16.9592C13.9665 16.9192 14.0064 16.9592 14.0064 16.9592C13.9665 16.9192 14.0064 16.9192 14.0064 16.8793H13.9665V16.9192C13.8867 16.8793 13.9665 16.8394 13.8867 16.7995H13.9266C13.8867 16.7995 13.8069 16.7197 13.767 16.7197C13.767 16.7197 13.767 16.6798 13.767 16.7197C13.6871 16.6399 13.6073 16.6 13.5674 16.5601C13.5674 16.5601 13.5275 16.5601 13.5275 16.5202C13.5275 16.5202 13.4876 16.5202 13.4477 16.4803H13.4876C13.4477 16.4005 13.3679 16.4005 13.2881 16.3606C13.328 16.3207 13.2881 16.2808 13.2482 16.2409C13.1684 16.1611 13.0886 16.1611 13.0088 16.0813C13.0088 16.0414 12.929 15.9615 12.8492 15.8817H12.8093V15.8418C12.7694 15.8019 12.7294 15.8418 12.6895 15.8019C12.7294 15.8019 12.6895 15.762 12.7294 15.8019C12.7294 15.8019 12.6895 15.762 12.6895 15.8019L12.6496 15.762H12.6097H12.5698C12.5698 15.6822 12.4501 15.6423 12.4501 15.5625C12.4102 15.5226 12.3703 15.5226 12.3304 15.4827C12.2905 15.4428 12.2905 15.4827 12.2506 15.4428C12.2506 15.4029 12.2905 15.4428 12.2905 15.4428C12.3304 15.4029 12.2107 15.4029 12.2107 15.363C12.2107 15.3231 12.1309 15.3231 12.091 15.2832C12.0511 15.2832 11.9713 15.2433 11.9314 15.2034C11.9713 15.2034 11.9713 15.2034 11.9713 15.2034C11.9713 15.2034 11.9713 15.2433 11.9314 15.2034C11.9314 15.2034 11.9314 15.1635 11.9314 15.1236L11.9713 15.1635C11.9713 15.1236 11.9314 15.1236 11.9314 15.1236C11.8915 15.0837 11.8516 15.1236 11.8117 15.0437C11.7717 15.0437 11.8117 15.0038 11.7717 15.0038V14.9639C11.7318 14.9639 11.6919 14.924 11.652 14.8841C11.6919 14.8841 11.7318 14.924 11.7717 14.924L11.6919 14.8841H11.7318C11.6919 14.8841 11.652 14.8841 11.6121 14.8442C11.652 14.8043 11.5323 14.7245 11.5323 14.6846C11.4525 14.6447 11.4126 14.5649 11.3328 14.4851C11.3328 14.5649 11.2929 14.4851 11.2929 14.525L11.253 14.4851L11.1732 14.3654C11.1732 14.3255 11.2131 14.3654 11.2131 14.3654C11.1732 14.3255 11.2131 14.3255 11.2131 14.2856H11.1732V14.3255C11.0934 14.2856 11.1732 14.2457 11.0934 14.2058H11.1333C11.0934 14.2058 11.0136 14.126 10.9737 14.126C10.9737 14.126 10.9737 14.086 10.9737 14.126C10.8939 14.0461 10.814 14.0062 10.7741 13.9663C10.7741 13.9663 10.7342 13.9663 10.7342 13.9264C10.7342 13.9264 10.6943 13.9264 10.6544 13.8865H10.6943C10.6544 13.8067 10.5746 13.8067 10.4948 13.7668C10.5347 13.7269 10.4948 13.687 10.4549 13.6471C10.3751 13.5673 10.2953 13.5673 10.2155 13.4875C10.2155 13.4476 10.1357 13.3678 10.0559 13.288H10.016V13.2481C9.97606 13.2082 9.93615 13.2481 9.89625 13.2082C9.93615 13.2082 9.89625 13.1682 9.93615 13.2082C9.93615 13.2082 9.89625 13.1682 9.89625 13.2082L9.85634 13.1683H9.81644H9.77654C9.77654 13.0884 9.65682 13.0485 9.65682 12.9687C9.61692 12.9288 9.57701 12.9288 9.53711 12.8889C9.49721 12.849 9.49721 12.8889 9.4573 12.849C9.4573 12.8091 9.4972 12.849 9.4972 12.849C9.53711 12.8091 9.4174 12.8091 9.4174 12.7692C9.4174 12.7293 9.33759 12.7293 9.29768 12.6894C9.25778 12.6894 9.17797 12.6495 9.13807 12.6096C9.17797 12.6096 9.17797 12.6096 9.17797 12.6096C9.17797 12.6096 9.17797 12.6495 9.13807 12.6096C9.13807 12.6096 9.13807 12.5697 9.13807 12.5298L9.17797 12.5697C9.17797 12.5298 9.13807 12.5298 9.13807 12.5298C9.09816 12.4899 9.05826 12.5298 9.01836 12.45C8.97845 12.45 9.01835 12.4101 8.97845 12.4101V12.3702C8.93855 12.3702 8.89864 12.3303 8.85874 12.2904C8.89864 12.2904 8.93855 12.3303 8.97845 12.3303L8.89864 12.2904H8.93855C8.89864 12.2904 8.85874 12.2904 8.81883 12.2505C8.85874 12.2105 8.73903 12.1307 8.73903 12.0908C8.65922 12.0509 8.61931 11.9711 8.5395 11.8913C8.5395 11.9711 8.4996 11.8913 8.4996 11.9312L8.4597 11.8913L8.37989 11.7317C8.37989 11.6918 8.41979 11.7317 8.41979 11.7317C8.37989 11.6918 8.41979 11.6918 8.41979 11.6519H8.37989V11.6918C8.30008 11.6519 8.37989 11.612 8.30008 11.5721H8.33998C8.30008 11.5721 8.22027 11.4923 8.18037 11.4923C8.18037 11.4923 8.18037 11.4524 8.18037 11.4923C8.10056 11.4125 8.02075 11.3726 7.98084 11.3327C7.98084 11.3327 7.94094 11.3327 7.94094 11.2928C7.94094 11.2928 7.90104 11.2928 7.86113 11.2528H7.90104C7.86113 11.173 7.78132 11.2129 7.74142 11.1331C7.70152 11.1331 7.70152 11.0932 7.62171 11.1331V1.83545L0 12.4899L7.5818 24.2217V11.9312L16.6401 20.3909V38.1882L24.182 49.9999V26.616C24.182 26.5761 24.182 26.5362 24.182 26.4564Z" fill="#CDD430"/>
<path d="M24.1821 0V14.2458L39.4256 0H24.1821Z" fill="#B1618D"/>
<path d="M24.1818 14.2458V0H8.89844L24.1818 14.2458Z" fill="#D4DB62"/>
<path d="M24.1818 14.2458V3.07263L8.89844 0L24.1818 14.2458Z" fill="#C4CA2F"/>
<path d="M24.1821 14.2458V3.07263L39.4256 0L24.1821 14.2458Z" fill="#B13675"/>
<path d="M16.6401 20.3911L24.182 50.0001L16.6401 38.1884V20.3911Z" fill="#C1C724"/>
<path d="M31.6841 20.3911V38.1884L24.1821 50.0001L31.6841 20.3911Z" fill="#A13069"/>
<path d="M0 12.4899L7.5818 11.1331V1.83545L0 12.4899Z" fill="#DCE329"/>
<path d="M48.324 12.4899L40.7422 11.1331V1.83545L48.324 12.4899Z" fill="#B14A80"/>
<path d="M83.679 42.6175H83.3996L82.1227 39.5848C81.9631 39.1857 81.7636 38.7069 81.6039 38.228H81.564C81.6039 38.9463 81.6039 39.5848 81.6039 40.1833V42.6574H81.0054V37.5098H81.8833L83.0804 40.3829C83.2001 40.7021 83.3597 41.1011 83.5193 41.58C83.7189 41.0612 83.8386 40.6622 83.9583 40.3829L85.1554 37.5098H86.0333V42.5776H85.3948V40.1035C85.3948 39.5449 85.3948 38.8665 85.4347 38.1482H85.3948C85.1953 38.667 85.0357 39.1059 84.8761 39.505L83.679 42.6175Z" fill="#434343"/>
<path d="M89.4249 42.2183C89.3451 42.2981 89.3052 42.338 89.2254 42.4178C89.1456 42.4577 89.0658 42.5375 88.986 42.5774C88.9062 42.6173 88.7865 42.6572 88.6667 42.6971C88.547 42.7371 88.4273 42.7371 88.3076 42.7371C88.148 42.7371 87.9884 42.6971 87.8288 42.6572C87.6691 42.6173 87.5494 42.5375 87.4696 42.4178C87.3499 42.2981 87.2701 42.1784 87.2302 42.0587C87.1903 41.8991 87.1504 41.7394 87.1504 41.5798C87.1504 41.3803 87.1903 41.2207 87.2302 41.101C87.31 40.9414 87.3898 40.8217 87.5095 40.7418C87.6292 40.662 87.749 40.5822 87.9485 40.5024C88.1081 40.4625 88.3076 40.4226 88.5071 40.4226C88.7067 40.4226 88.8663 40.4226 89.0259 40.4625C89.1855 40.5024 89.3451 40.5423 89.4648 40.5822V40.3029C89.4648 40.2231 89.4648 40.1034 89.4648 40.0236C89.4648 39.9438 89.4249 39.864 89.385 39.824C89.3052 39.7043 89.2254 39.5846 89.0658 39.5048C88.9062 39.425 88.7066 39.3851 88.4672 39.3851C88.2677 39.3851 88.1081 39.3851 87.9485 39.425C87.7889 39.4649 87.6292 39.5048 87.4696 39.5846V39.1058C87.5494 39.0659 87.5893 39.0659 87.6691 39.026C87.749 38.9861 87.8288 38.9861 87.9485 38.9462C88.0283 38.9462 88.148 38.9062 88.2278 38.9062C88.3475 38.9062 88.4273 38.9062 88.547 38.9062C88.9062 38.9062 89.2254 38.9861 89.4249 39.1058C89.6643 39.2255 89.824 39.425 89.9437 39.6245C89.9836 39.7043 90.0235 39.7841 90.0235 39.9039C90.0235 39.9837 90.0634 40.1034 90.0634 40.2231V42.6173H89.5845L89.4249 42.2183ZM89.385 41.0212C89.2653 40.9813 89.1456 40.9813 88.986 40.9414C88.8264 40.9015 88.6667 40.9015 88.5071 40.9015C88.2677 40.9015 88.0682 40.9414 87.9086 41.0611C87.749 41.1808 87.7091 41.3404 87.7091 41.5399C87.7091 41.6596 87.709 41.7394 87.749 41.8193C87.7889 41.8991 87.8288 41.9789 87.9086 42.0188C87.9884 42.0587 88.0283 42.0986 88.1081 42.1385C88.1879 42.1784 88.2677 42.1784 88.3874 42.1784C88.5071 42.1784 88.6268 42.1784 88.7466 42.1385C88.8663 42.0986 88.9461 42.0587 89.0259 42.0188C89.1057 41.9789 89.1855 41.8991 89.2254 41.8592C89.2653 41.8193 89.3451 41.7794 89.3451 41.7394V41.0212H89.385Z" fill="#434343"/>
<path d="M90.9019 40.8219C90.9019 40.5825 90.9418 40.3431 90.9817 40.1436C91.0216 39.944 91.1014 39.7844 91.1812 39.6248C91.261 39.4652 91.3408 39.3455 91.4605 39.2657C91.5802 39.1859 91.6999 39.1061 91.7797 39.0262C91.8596 38.9464 92.0192 38.9065 92.1389 38.9065C92.2586 38.8666 92.3783 38.8666 92.498 38.8666C92.7375 38.8666 92.8971 38.9065 93.0567 38.9863C93.2163 39.0661 93.3759 39.1859 93.4956 39.3056V37.1108H94.0942V42.6176H93.6553L93.5355 42.2186C93.4956 42.2585 93.4557 42.3383 93.3759 42.3782C93.2961 42.4181 93.2562 42.4979 93.1764 42.5378C93.0966 42.5777 93.0168 42.6176 92.8971 42.6575C92.7774 42.6974 92.6576 42.6974 92.5379 42.6974C92.3384 42.6974 92.1389 42.6575 91.9394 42.5777C91.7398 42.4979 91.5802 42.4181 91.4206 42.2585C91.261 42.0989 91.1413 41.8993 91.0615 41.6998C90.9418 41.4604 90.9019 41.1811 90.9019 40.8219ZM91.5403 40.8219C91.5403 41.0215 91.5802 41.221 91.6201 41.3806C91.66 41.5402 91.7398 41.6998 91.8197 41.8195C91.8995 41.9393 92.0192 42.0191 92.1389 42.0989C92.2586 42.1787 92.4182 42.1787 92.5778 42.1787C92.6975 42.1787 92.8173 42.1787 92.8971 42.1388C93.0168 42.0989 93.0966 42.059 93.1764 42.0191C93.2562 41.9792 93.336 41.8993 93.3759 41.8594C93.4158 41.8195 93.4956 41.7397 93.4956 41.6998V39.8243C93.3759 39.7046 93.2163 39.5849 93.0567 39.545C92.8971 39.4652 92.7375 39.4253 92.5379 39.4253C92.4182 39.4253 92.2985 39.4652 92.1788 39.5051C92.0591 39.545 91.9394 39.6248 91.8197 39.7445C91.6999 39.8642 91.6201 39.9839 91.5403 40.1835C91.5802 40.3032 91.5403 40.5426 91.5403 40.8219Z" fill="#434343"/>
<path d="M97.007 42.1787C97.2065 42.1787 97.3661 42.1787 97.5257 42.1388C97.6854 42.0989 97.845 42.059 98.0046 42.0191V42.4979C97.8849 42.5777 97.7253 42.6176 97.5257 42.6575C97.3262 42.6974 97.1267 42.6974 96.9272 42.6974C96.6877 42.6974 96.4084 42.6575 96.2089 42.6176C95.9695 42.5378 95.7699 42.458 95.6103 42.2984C95.4507 42.1388 95.331 41.9791 95.2113 41.7397C95.1315 41.5003 95.0517 41.221 95.0517 40.9017C95.0517 40.5825 95.0916 40.3032 95.1714 40.0637C95.2512 39.8243 95.3709 39.6248 95.5305 39.4652C95.6901 39.3056 95.8498 39.1859 96.0493 39.106C96.2488 39.0262 96.4483 38.9863 96.6478 38.9863C96.8474 38.9863 97.0469 39.0262 97.2065 39.106C97.3661 39.1859 97.5257 39.2657 97.6455 39.4253C97.7652 39.5849 97.8849 39.7445 97.9647 39.9839C98.0445 40.2234 98.0844 40.5027 98.0844 40.8219C98.0844 40.8618 98.0844 40.8618 98.0844 40.9017C98.0844 40.9416 98.0844 40.9815 98.0844 41.0613H95.6103C95.6103 41.3008 95.6502 41.5003 95.73 41.6599C95.8098 41.8195 95.8897 41.9392 96.0094 42.059C96.1291 42.1787 96.2887 42.2186 96.4483 42.2585C96.6478 42.1787 96.8075 42.1787 97.007 42.1787ZM96.6877 39.3854C96.568 39.3854 96.4084 39.4253 96.3286 39.4652C96.2089 39.5051 96.1291 39.5849 96.0094 39.6647C95.8897 39.7445 95.8498 39.8642 95.8099 39.9839C95.7699 40.1036 95.73 40.2234 95.6901 40.383H97.5257C97.5257 40.2234 97.5257 40.1036 97.4858 39.9839C97.4459 39.8642 97.406 39.7445 97.3262 39.6647C97.2464 39.5849 97.1666 39.5051 97.0469 39.4652C96.9671 39.4253 96.8474 39.3854 96.6877 39.3854Z" fill="#434343"/>
<path d="M100.758 38.1482V37.5098H101.356V38.1482H100.758ZM100.758 42.6175V39.0261H101.356V42.6175H100.758Z" fill="#434343"/>
<path d="M103.112 39.5053C103.192 39.4255 103.272 39.3457 103.352 39.2659C103.432 39.1861 103.511 39.1462 103.631 39.0664C103.711 39.0265 103.831 38.9865 103.95 38.9466C104.07 38.9067 104.19 38.9067 104.349 38.9067C104.509 38.9067 104.669 38.9466 104.828 38.9865C104.988 39.0264 105.108 39.1063 105.187 39.226C105.307 39.3457 105.387 39.4654 105.427 39.625C105.467 39.7846 105.507 39.9842 105.507 40.2236V42.6577H104.908V40.3433C104.908 40.0241 104.828 39.8245 104.708 39.6649C104.589 39.5452 104.429 39.4654 104.19 39.4654C103.99 39.4654 103.791 39.5053 103.591 39.625C103.392 39.7447 103.232 39.9043 103.112 40.1039V42.6577H102.514V39.0664H102.953L103.112 39.5053Z" fill="#434343"/>
<path d="M108.898 42.6175H108.26V37.5098H111.292V38.0684H108.898V39.7045H111.053V40.2632H108.898V42.6175Z" fill="#434343"/>
<path d="M114.086 39.4649H114.046C113.927 39.4649 113.767 39.4649 113.647 39.5048C113.528 39.5447 113.368 39.5846 113.288 39.6245C113.168 39.6644 113.049 39.7442 112.969 39.824C112.889 39.9039 112.809 39.9837 112.729 40.1034V42.6173H112.131V39.026H112.57L112.69 39.5846C112.729 39.5048 112.809 39.3851 112.889 39.3053C112.969 39.2255 113.089 39.1457 113.168 39.1058C113.288 39.026 113.408 38.9861 113.528 38.9462C113.647 38.9062 113.807 38.9062 113.927 38.9062C113.966 38.9062 113.966 38.9062 114.006 38.9062C114.046 38.9062 114.046 38.9062 114.086 38.9062V39.4649Z" fill="#434343"/>
<path d="M114.286 38.9863H114.884L116.002 41.8195H116.041L117.199 38.9863H117.797L115.563 44.3734H114.924L115.682 42.5378L114.286 38.9863Z" fill="#434343"/>
<path d="M120.59 42.2188C120.511 42.2986 120.471 42.3385 120.391 42.4183C120.311 42.4582 120.231 42.538 120.151 42.5779C120.072 42.6178 119.952 42.6577 119.832 42.6976C119.712 42.7375 119.593 42.7375 119.473 42.7375C119.313 42.7375 119.154 42.6976 118.994 42.6577C118.835 42.6178 118.715 42.538 118.635 42.4183C118.515 42.2986 118.436 42.1789 118.396 42.0592C118.356 41.8996 118.316 41.7399 118.316 41.5803C118.316 41.3808 118.356 41.2212 118.396 41.1015C118.436 40.9818 118.555 40.8221 118.675 40.7423C118.795 40.6625 118.914 40.5827 119.114 40.5029C119.274 40.463 119.473 40.4231 119.673 40.4231C119.872 40.4231 120.032 40.4231 120.191 40.463C120.351 40.5029 120.511 40.5428 120.63 40.5827V40.3034C120.63 40.2236 120.63 40.1039 120.63 40.0241C120.63 39.9442 120.59 39.8644 120.55 39.8245C120.471 39.7048 120.391 39.5851 120.231 39.5053C120.072 39.4255 119.872 39.3856 119.633 39.3856C119.433 39.3856 119.274 39.3856 119.114 39.4255C118.954 39.4654 118.795 39.5053 118.635 39.5851V39.1063C118.715 39.0664 118.755 39.0664 118.835 39.0265C118.914 38.9865 118.994 38.9865 119.114 38.9466C119.194 38.9466 119.313 38.9067 119.393 38.9067C119.513 38.9067 119.593 38.9067 119.712 38.9067C120.072 38.9067 120.391 38.9865 120.59 39.1063C120.79 39.226 120.989 39.4255 121.109 39.625C121.149 39.7048 121.189 39.7846 121.189 39.9043C121.189 39.9842 121.229 40.1039 121.229 40.2236V42.6178H120.75L120.59 42.2188ZM120.55 41.0217C120.431 40.9818 120.311 40.9818 120.151 40.9419C119.992 40.9019 119.832 40.9019 119.673 40.9019C119.433 40.9019 119.234 40.9419 119.074 41.0616C118.914 41.1813 118.874 41.3409 118.874 41.5404C118.874 41.6601 118.874 41.7399 118.914 41.8197C118.954 41.8996 118.994 41.9794 119.074 42.0193C119.154 42.0592 119.194 42.0991 119.274 42.139C119.353 42.1789 119.433 42.1789 119.553 42.1789C119.673 42.1789 119.792 42.1789 119.912 42.139C120.032 42.0991 120.112 42.0592 120.191 42.0193C120.271 41.9794 120.351 41.8996 120.391 41.8596C120.431 41.8197 120.511 41.7798 120.511 41.7399V41.0217H120.55Z" fill="#434343"/>
<path d="M124.022 39.5051H122.027V38.9863H124.74V39.3455L122.745 42.059H124.9V42.5777H121.987V42.2984L124.022 39.5051Z" fill="#434343"/>
<path d="M125.738 38.1482V37.5098H126.336V38.1482H125.738ZM125.778 42.6175V39.0261H126.376V42.6175H125.778Z" fill="#434343"/>
<path d="M128.092 39.5048C128.172 39.425 128.252 39.3452 128.332 39.2654C128.411 39.1856 128.491 39.1457 128.611 39.0659C128.691 39.026 128.81 38.9861 128.93 38.9462C129.05 38.9062 129.17 38.9062 129.329 38.9062C129.489 38.9062 129.648 38.9462 129.808 38.9861C129.968 39.026 130.087 39.1058 130.167 39.2255C130.287 39.3452 130.367 39.4649 130.407 39.6245C130.447 39.7841 130.486 39.9837 130.486 40.2231V42.6572H129.888V40.3428C129.888 40.0236 129.808 39.824 129.688 39.6644C129.569 39.5048 129.409 39.4649 129.17 39.4649C128.97 39.4649 128.771 39.5048 128.571 39.6245C128.372 39.7442 128.212 39.9039 128.092 40.1034V42.6572H127.494V39.0659H127.933L128.092 39.5048Z" fill="#434343"/>
<path d="M134.876 40.7821C134.876 41.0614 134.836 41.3408 134.756 41.5403C134.676 41.7797 134.557 41.9792 134.397 42.1388C134.238 42.2985 134.078 42.4182 133.878 42.5379C133.679 42.6177 133.439 42.6576 133.16 42.6576C132.881 42.6576 132.641 42.6177 132.442 42.5379C132.242 42.4581 132.043 42.2985 131.883 42.1388C131.724 41.9792 131.604 41.7797 131.524 41.5403C131.444 41.3009 131.404 41.0614 131.404 40.7821C131.404 40.5028 131.444 40.2234 131.524 39.984C131.604 39.7446 131.724 39.5451 131.883 39.3855C132.043 39.2258 132.202 39.1061 132.442 38.9864C132.641 38.9066 132.881 38.8667 133.16 38.8667C133.439 38.8667 133.679 38.9066 133.878 38.9864C134.078 39.0662 134.277 39.2258 134.437 39.3855C134.597 39.5451 134.716 39.7446 134.756 39.984C134.836 40.2633 134.876 40.5028 134.876 40.7821ZM134.238 40.7821C134.238 40.5427 134.198 40.3432 134.158 40.1835C134.118 40.0239 134.038 39.8643 133.918 39.7446C133.838 39.6249 133.719 39.5451 133.559 39.4653C133.4 39.3855 133.28 39.3855 133.12 39.3855C132.961 39.3855 132.801 39.4254 132.681 39.4653C132.562 39.5052 132.442 39.6249 132.322 39.7446C132.242 39.8643 132.162 40.0239 132.083 40.1835C132.043 40.3432 132.003 40.5427 132.003 40.7821C132.003 41.0215 132.043 41.1811 132.083 41.3807C132.123 41.5403 132.202 41.6999 132.322 41.8196C132.402 41.9393 132.522 42.0191 132.681 42.0989C132.801 42.1788 132.961 42.1788 133.12 42.1788C133.28 42.1788 133.439 42.1388 133.559 42.0989C133.679 42.0191 133.799 41.9393 133.918 41.8196C133.998 41.6999 134.078 41.5403 134.158 41.3807C134.238 41.221 134.238 41.0215 134.238 40.7821Z" fill="#434343"/>
</g>
<defs>
<clipPath id="clip0_203_29">
<rect width="156.864" height="50" fill="white"/>
</clipPath>
</defs>
</svg>
