<svg width="21" height="20" viewBox="0 0 21 20" fill="none" xmlns="http://www.w3.org/2000/svg">
<g clip-path="url(#clip0_204_147)">
<path d="M16.3115 20.0001C15.8315 19.8384 15.3564 19.6768 14.8763 19.5151C12.0451 18.5502 9.53711 17.0366 7.29856 15.0576C4.98653 13.0199 3.08597 10.654 1.70463 7.88644C1.04335 6.55898 0.53882 5.17275 0.0930688 3.76202C0.053882 3.63956 0.0293902 3.5122 0 3.38485C0 3.20361 0 3.01747 0 2.83623C0.0636787 2.6207 0.107764 2.39538 0.195934 2.18965C0.426157 1.66062 0.813128 1.27365 1.37154 1.11691C2.72349 0.739733 4.08523 0.387051 5.44698 0.0294708C5.78006 -0.0586997 6.02498 0.0980478 6.18663 0.45073C6.5638 1.29815 6.93608 2.14066 7.31325 2.98808C7.66103 3.77672 8.00882 4.56045 8.3566 5.34909C8.52315 5.72136 8.48396 5.9222 8.19495 6.2112C7.68063 6.73043 7.1712 7.24965 6.63728 7.78847C8.22924 9.93396 10.1053 11.8051 12.2557 13.4167C12.4516 13.2208 12.6427 13.0346 12.8288 12.8436C13.1668 12.5007 13.5048 12.1578 13.8477 11.8149C14.0926 11.57 14.313 11.5259 14.6265 11.6631C16.2772 12.3978 17.9329 13.1375 19.5836 13.8771C19.9657 14.0486 20.0833 14.2935 19.9755 14.7001C19.6375 15.9785 19.2995 17.257 18.9518 18.5355C18.7607 19.2457 18.3052 19.7111 17.6145 19.9511C17.5802 19.9609 17.5459 19.9854 17.5116 20.0001C17.1198 20.0001 16.7181 20.0001 16.3115 20.0001ZM18.7411 14.798C18.7068 14.7784 18.6872 14.7588 18.6627 14.749C17.301 14.1416 15.9393 13.5342 14.5775 12.922C14.4698 12.873 14.4159 12.9073 14.3424 12.9807C13.8281 13.5 13.3088 14.0143 12.7896 14.5286C12.5251 14.7931 12.2508 14.8176 11.9471 14.607C11.6679 14.416 11.3838 14.2298 11.1193 14.0192C8.9689 12.3195 7.03894 10.4042 5.47147 8.14116C5.21185 7.76398 5.23145 7.50927 5.54984 7.18597C6.04947 6.68144 6.554 6.18181 7.05364 5.67238C7.09772 5.6283 7.13691 5.51563 7.11242 5.46665C6.52461 4.1147 5.92701 2.76276 5.31962 1.41571C5.30002 1.36672 5.19716 1.31284 5.15307 1.32754C4.03625 1.61164 2.92432 1.91044 1.81239 2.20434C1.55768 2.27292 1.37154 2.42477 1.26378 2.66969C1.14622 2.9342 1.15111 3.20361 1.22949 3.47302C1.59197 4.67312 2.01323 5.84872 2.56184 6.98024C4.04604 10.0515 6.15234 12.6281 8.78276 14.7784C10.3306 16.0471 12.001 17.1101 13.8624 17.8595C14.7686 18.222 15.6943 18.5355 16.625 18.8294C17.203 19.0106 17.688 18.7412 17.83 18.2122C18.1386 17.0856 18.4374 15.9491 18.7411 14.798Z" fill="white"/>
<path d="M10.3942 0.00480194C13.2255 0.151753 15.611 1.25878 17.5066 3.36997C18.937 4.96194 19.7452 6.84291 19.9754 8.9688C20.0097 9.28719 20.0195 9.60558 20.0244 9.92887C20.0342 10.3011 19.7942 10.5608 19.4562 10.5706C19.1084 10.5804 18.8537 10.3256 18.8537 9.94357C18.8439 8.6602 18.5892 7.42091 18.021 6.2698C16.6837 3.54631 14.5186 1.88087 11.5404 1.31266C11.0555 1.21959 10.5559 1.2098 10.066 1.17551C9.81621 1.15592 9.60558 1.07754 9.48802 0.842421C9.30678 0.479943 9.537 0.0537855 9.93866 0.0097003C10.0905 -0.00989313 10.2424 0.00480194 10.3942 0.00480194Z" fill="white"/>
<path d="M10.3501 2.35592C12.1478 2.45878 13.7348 3.08577 15.0819 4.29077C16.3702 5.44188 17.1784 6.86731 17.5017 8.56704C17.585 9.01279 17.6144 9.47323 17.6388 9.92878C17.6584 10.3011 17.4135 10.5607 17.0804 10.5705C16.7327 10.5803 16.4828 10.3304 16.473 9.94837C16.4436 8.52785 16.0273 7.24448 15.1701 6.10806C14.2345 4.86877 13.0099 4.06544 11.5061 3.70297C11.1289 3.61479 10.737 3.5854 10.3501 3.53642C10.208 3.51683 10.0611 3.52173 9.92392 3.50213C9.63981 3.45805 9.43408 3.21313 9.43408 2.92902C9.43408 2.63512 9.65451 2.38531 9.94351 2.35592C10.0758 2.34612 10.2129 2.35592 10.3501 2.35592Z" fill="white"/>
<path d="M10.2621 4.71246C12.5349 4.80063 14.5432 6.41219 15.1016 8.62135C15.2045 9.03771 15.2486 9.46877 15.2878 9.89492C15.3221 10.2868 15.0722 10.5611 14.7196 10.566C14.3767 10.5709 14.1318 10.3211 14.122 9.93411C14.0877 8.72422 13.6272 7.70536 12.721 6.89713C12.0206 6.27504 11.1976 5.93215 10.2572 5.88317C10.1592 5.87827 10.0612 5.87337 9.96326 5.85868C9.63507 5.81459 9.40975 5.55988 9.42934 5.24638C9.44893 4.92309 9.70365 4.69287 10.0465 4.69287C10.12 4.70267 10.1886 4.70757 10.2621 4.71246Z" fill="white"/>
</g>
<defs>
<clipPath id="clip0_204_147">
<rect width="20.0294" height="20" fill="white"/>
</clipPath>
</defs>
</svg>
