<svg width="246" height="97" fill="none" xmlns="http://www.w3.org/2000/svg"><path d="M25.251 2.881h10.683c8.325 0 14.245 2.424 17.76 7.272 3.514 4.848 5.272 10.656 5.272 17.424V66.13c0 9.513-2.544 16.647-7.631 21.403-5.087 4.757-10.915 7.135-17.482 7.135H13.181c-2.22 0-4.024-.686-5.411-2.058-1.295-1.372-1.943-3.385-1.943-6.037 0-5.122 2.498-7.683 7.492-7.683h18.314c3.515 0 6.29-1.007 8.325-3.019 2.035-2.103 3.052-5.213 3.052-9.33v-5.899H25.251c-7.677 0-13.828-2.24-18.453-6.723C2.266 49.346 0 42.44 0 33.202v-2.058c0-9.238 2.312-16.235 6.937-20.991 4.625-4.848 10.73-7.272 18.314-7.272Zm9.018 15.504h-7.214c-3.422 0-6.151 1.097-8.186 3.292-1.942 2.196-2.914 5.123-2.914 8.781v3.293c0 3.567.925 6.311 2.775 8.232 1.85 1.92 4.44 2.881 7.77 2.881h16.51V27.44c0-2.378-.647-4.482-1.942-6.311-1.295-1.83-3.561-2.744-6.798-2.744Zm72.221 76.283H95.806c-8.324 0-14.244-2.424-17.759-7.272-3.515-4.848-5.272-10.656-5.272-17.424V31.419c0-9.513 2.544-16.647 7.63-21.403C85.494 5.259 91.32 2.88 97.889 2.88h20.672c2.22 0 3.978.686 5.272 2.058 1.388 1.372 2.082 3.384 2.082 6.037 0 5.122-2.498 7.683-7.493 7.683h-18.314c-3.514 0-6.29 1.052-8.324 3.156-2.035 2.012-3.052 5.076-3.052 9.192v5.9h17.759c7.677 0 13.781 2.286 18.314 6.86 4.624 4.481 6.937 11.341 6.937 20.58v2.058c0 9.238-2.313 16.28-6.937 21.128-4.625 4.757-10.73 7.135-18.314 7.135Zm-9.019-15.23h7.215c3.422 0 6.105-1.097 8.047-3.292 2.035-2.195 3.052-5.122 3.052-8.781v-3.567c0-3.568-.925-6.311-2.775-8.232-1.849-1.921-4.439-2.881-7.769-2.881h-16.51v17.698c0 2.378.647 4.482 1.942 6.312 1.295 1.829 3.56 2.744 6.798 2.744Zm65.006-76.42h2.081c5.642 0 10.082 1.555 13.319 4.665 3.33 3.019 4.995 7.455 4.995 13.308v19.62c0 5.762-1.757 10.199-5.272 13.308-3.423 3.11-7.77 4.665-13.042 4.665h-2.081c-5.55 0-10.082-1.555-13.597-4.665-3.422-3.11-5.134-7.546-5.134-13.308v-19.62c0-5.67 1.804-10.06 5.411-13.17 3.608-3.202 8.047-4.803 13.32-4.803Zm7.214 38.416V20.168c0-1.738-.555-3.11-1.665-4.116-1.017-1.097-2.404-1.646-4.162-1.646h-.832c-1.85 0-3.33.549-4.44 1.646-1.11 1.006-1.665 2.378-1.665 4.116v21.266c0 1.83.555 3.293 1.665 4.39 1.11 1.007 2.59 1.51 4.44 1.51h.832c1.665 0 3.052-.549 4.162-1.647 1.11-1.189 1.665-2.606 1.665-4.253Zm55.914-2.332h2.081c5.642 0 10.082 1.555 13.319 4.665 3.33 3.018 4.995 7.454 4.995 13.308v19.62c0 5.762-1.757 10.198-5.272 13.308-3.423 3.11-7.77 4.665-13.042 4.665h-2.081c-5.55 0-10.082-1.555-13.597-4.665-3.422-3.11-5.134-7.546-5.134-13.308v-19.62c0-5.67 1.804-10.061 5.411-13.171 3.608-3.202 8.048-4.802 13.32-4.802Zm7.214 38.416V56.252c0-1.738-.555-3.11-1.665-4.116-1.017-1.098-2.404-1.647-4.162-1.647h-.832c-1.85 0-3.33.55-4.44 1.647-1.11 1.006-1.665 2.378-1.665 4.116v21.266c0 1.829.555 3.293 1.665 4.39 1.11 1.006 2.59 1.51 4.44 1.51h.832c1.665 0 3.053-.55 4.162-1.647 1.11-1.19 1.665-2.607 1.665-4.253Zm-60.492 10.427 33.021-83.966C206.366 1.326 208.354 0 211.314 0c1.573 0 3.099.457 4.579 1.372 1.572.915 2.358 2.47 2.358 4.665 0 .914-.185 1.783-.555 2.607l-32.604 83.554c-1.295 3.201-3.376 4.802-6.244 4.802-2.22 0-3.977-.594-5.272-1.784-1.295-1.097-1.942-2.47-1.942-4.116 0-1.006.231-2.058.693-3.155Z" fill="#fff"/></svg>