<svg width="11" height="20" fill="none" xmlns="http://www.w3.org/2000/svg"><g clip-path="url(#a)"><path d="M1.397 9.348c0 1.752-.006 3.498 0 5.25.006 1.828 1.182 3.382 2.899 3.854 2.55.698 5-1.188 5.011-3.865.006-2.719 0-5.431.006-8.15 0-.122 0-.25.03-.366.08-.303.372-.495.692-.483.308.012.57.221.64.53.023.093.03.186.03.279 0 2.73.005 5.46 0 8.19-.007 2.578-1.7 4.691-4.197 5.273-2.969.693-5.996-1.373-6.432-4.394a5.964 5.964 0 0 1-.07-.908C0 11.048 0 7.544 0 4.034 0 2.078 1.275.494 3.16.087c2.265-.489 4.535 1.188 4.721 3.487.018.21.03.419.03.629 0 3.224.005 6.449 0 9.674 0 1.274-.833 2.322-2.026 2.572-1.583.332-3.08-.844-3.091-2.473-.023-3.016-.006-6.03-.006-9.04 0-.448.297-.745.71-.74.402.007.681.303.681.746v8.888c0 .454.14.827.524 1.088a1.154 1.154 0 0 0 1.781-.768 1.51 1.51 0 0 0 .024-.28c0-3.288.005-6.577 0-9.871 0-1.246-.839-2.282-2.014-2.538-1.601-.343-3.085.861-3.097 2.532-.006 1.781 0 3.568 0 5.355Z" fill="#12020A"/></g><defs><clipPath id="a"><path fill="#fff" d="M0 0h10.704v20H0z"/></clipPath></defs></svg>