<svg width="95" height="30" fill="none" xmlns="http://www.w3.org/2000/svg"><g clip-path="url(#a)"><path d="M39.386 19.25c.095-.048-.024-.12 0-.144-.144.072.071.072 0 .144Zm4.165-.072h-.024l-.024.024.048-.024Zm.12 0-.024.072c.072.023.048-.072.024-.072Zm-2.418 0c.048.048.096.024.12-.024 0-.024-.072.024-.12.024Zm7.757.049c.096-.048-.024-.12 0-.144-.143.048.096.072 0 .144Zm4.166-.073h-.024l-.024.024.048-.024Zm.12-.024-.024.073c.072.048.072-.048.024-.072Zm-2.394.025c.048.048.096.024.12-.024-.024-.024-.072 0-.12.024Zm7.758.023c.095-.048-.025-.12 0-.144-.144.072.071.096 0 .144Zm4.165-.072h-.024l-.024.024.048-.024Zm.12 0-.024.072c.072.024.048-.048.024-.072Zm-2.418.001c.047.048.095.024.12-.024 0 0-.072.024-.12.024Zm29.425.143c-.096-.072.144-.072 0-.144 0 .024-.12.096 0 .144Zm-4.286 0-.023-.072c-.024 0-.048.095.023.072Zm2.251-.096c.024.048.096.072.12.024-.024 0-.072-.048-.12-.024Zm-7.614.073c-.095-.072.144-.072 0-.144.024 0-.095.096 0 .144Zm-4.836-.049c0-.024-.024-.024 0 0h-.024.024Zm.575.048-.024-.072c-.048 0-.048.096.024.072Zm2.25-.095c.024.048.096.072.12.024-.048-.024-.096-.048-.12-.024Zm-7.614.047c-.095-.072.144-.072 0-.144.024.024-.12.12 0 .144Zm-4.142-.048c0-.024-.024-.024 0 0h-.048.048Zm-.143.048-.024-.072c-.024.024-.048.096.024.072Zm2.25-.095c.024.048.096.072.12.024-.024 0-.072-.024-.12-.024Z" fill="#B13675"/><path d="M35.291 18.316v.934c.216-.024.503.024.623-.072.24.048.43.144.694.144v-.024c.096-.024.264-.048.264-.167.191.023.31.191.526.143l-.048-.048c.048-.024.144.024.168.048.024 0 0-.024 0-.048.048-.048.096.024.12.024l-.024-.048c.167-.072.455.072.694.048-.048 0-.024-.048 0-.072.096.12.36.096.455.12l-.048-.048c.192.072.168-.12.36-.048l-.097.072c.072-.024.144 0 .12.048.096-.048 0-.096.144-.096 0-.024-.096-.024-.048-.072l.191-.095h.024-.024s.024-.024.096 0c-.024.167.144 0 .072.167.263.024.479-.095.718-.024.096-.143.455 0 .431-.191.12 0 .24.048.312.12-.024.023-.048 0-.072-.024.024.047.191.047.24.047-.073-.047-.216-.095-.288-.167.12.024.287.096.335.12l.024-.096c.096.072.072-.072.168.024l-.024.024c.167 0 .191.095.335.12v-.048c.048-.024.144.071.191 0h-.12c0-.072.096-.096.144-.144.12.024.048.12.096.12.024-.072 0-.024-.024-.096.12.024.311.048.383.143v-.023c.144 0 .24.12.335.047h-.024c.096-.095.288.096.288-.072.048-.023-.12 0-.024-.071.167-.048.096.143.24.096-.025 0-.025 0-.025-.024.096 0 .24.024.336.047.143-.143.407.048.574-.12-.048.049.048.073.048.097v-.024c.048 0 .072.047.096.071.048-.047.167.048.191.024 0 .024.048.024.096.024-.096-.048-.024-.072-.072-.12.144-.023.168.168.336.12l.095-.072c0 .048.048.072.072.072.215-.024.503 0 .623-.095.239.047.43.143.694.143v-.024c.096-.024.263-.048.263-.167.192.024.312.191.527.143l-.048-.048c.048-.024.144.024.168.048.024 0 0-.024 0-.048.048-.047.095.024.12.024l-.025-.048c.168-.071.455.072.695.048-.048 0-.024-.048 0-.072.096.12.359.096.455.12l-.048-.048c.191.072.167-.12.359-.048l-.096.072c.072-.024.144 0 .12.048.096-.048 0-.096.144-.096 0-.024-.096-.024-.048-.072l.191-.095h.024-.024s.024-.024.096 0c-.024.167.144 0 .072.167.263.024.479-.095.718-.024.096-.143.455 0 .431-.191.12 0 .24.048.311.12-.024.024-.048 0-.072-.024.024.047.192.047.24.047-.072-.047-.216-.095-.287-.167.12.024.287.096.335.12l.024-.096c.096.072.072-.072.167.024l-.024.024c.168 0 .192.096.336.12v-.048c.047-.024.143.071.191 0h-.12c0-.072.096-.096.144-.144.12.024.048.12.096.12.024-.072 0-.024-.024-.096.12.024.311.048.383.143v-.023c.144 0 .24.12.335.048h-.024c.096-.096.287.095.287-.072.048-.024-.12 0-.023-.072.167-.048.095.144.239.096-.024 0-.024 0-.024-.024.096 0 .24.024.335.047.144-.143.407.048.575-.12-.048.049.048.073.048.097v-.024c.048 0 .072.047.096.072.047-.048.167.047.191.023 0 .024.048.024.096.024-.096-.047-.024-.072-.072-.12.144-.023.168.168.335.12l.096-.072c0 .048.048.072.072.072.215-.024.503 0 .622-.095.24.048.431.143.695.143v-.024c.095-.024.263-.048.263-.167.192.024.311.191.527.143l-.048-.047c.048-.024.144.023.168.047.023 0 0-.024 0-.047.047-.048.095.023.12.023l-.025-.047c.168-.072.455.071.695.047-.048 0-.024-.047 0-.071.095.12.359.095.454.12l-.047-.049c.191.072.167-.12.359-.047l-.096.071c.072-.024.144 0 .12.048.095-.048 0-.095.143-.095 0-.024-.095-.024-.048-.072l.192-.096h.024-.024s.024-.024.096 0c-.024.168.143 0 .072.168.263.023.478-.096.718-.024.096-.144.455 0 .43-.192.12 0 .24.048.312.12-.024.024-.048 0-.072-.024.024.048.192.048.24.048-.072-.048-.216-.096-.288-.168.12.024.288.096.336.12l.023-.096c.096.072.072-.072.168.024l-.024.024c.168 0 .192.096.335.12v-.048c.048-.024.144.072.192 0h-.12c0-.072.096-.096.144-.144.12.024.048.12.096.12.024-.072 0-.024-.024-.096.12.024.31.048.383.144v-.024c.143 0 .24.12.335.048h-.024c.096-.096.287.095.287-.072.048-.024-.12 0-.024-.072.168-.048.096.144.24.096-.024 0-.024 0-.024-.024.096 0 .24.024.335.048.144-.144.407.047.575-.12-.048.048.048.072.048.096v-.024c.047 0 .071.048.095.072.048-.048.168.048.192.024 0 .024.048.024.096.024-.096-.048-.024-.072-.072-.12.143-.024.167.167.335.12l.096-.072s.024 0 .072.024c.143.12.215-.048.215.024-.024.12.24 0 .263 0 .024 0 .288.12.264 0-.024-.048.048.12.215-.024.024-.024.072 0 .072-.024l.096.072c.168.023.191-.144.335-.12-.048.048.024.096-.072.12.048 0 .096 0 .096-.024.024.024.144-.072.192-.024.023-.024.023-.072.095-.072v.024c0-.024.096-.024.048-.096.168.168.431-.024.575.12.12-.024.24-.024.335-.048 0 .024 0 .024-.024.024.144.048.096-.144.24-.096.071.072-.096.048-.024.072.024.167.191-.024.287.072h-.024c.072.048.192-.072.335-.048v.024c.096-.096.264-.12.383-.144-.048.072-.048.024-.024.096.048 0-.024-.096.096-.12.048.024.12.072.144.144h-.12c.048.096.144 0 .192 0v.048c.167-.024.167-.12.335-.12l-.024-.024c.096-.096.072.048.167-.024l.024.096c.072-.024.216-.096.336-.12-.072.072-.192.12-.288.168.072 0 .216 0 .24-.048-.024 0-.048.024-.072.024a.456.456 0 0 1 .311-.12c-.024.192.335.048.431.192.216-.072.455.024.718.024-.095-.144.072 0 .072-.168h.096-.024.024l.191.096c.048.047-.047.024-.047.072.143 0 .047.071.143.095-.024-.048.048-.072.12-.048l-.096-.072c.192-.095.168.12.36.048l-.049.048c.096-.024.36 0 .455-.12.024.024.048.072 0 .072.24.024.503-.143.695-.047l-.024.047c.048 0 .072-.071.12-.023 0 .023-.025.047 0 .047.023-.024.12-.072.167-.047l-.048.047c.216.048.335-.095.527-.143 0 .12.168.143.263.167v.024c.264.024.455-.095.695-.143.12.095.407.071.622.095.024 0 .072-.024.072-.072l.096.072c.167.024.191-.143.335-.12-.048.049.024.096-.072.12.048 0 .096 0 .096-.024.024.024.144-.071.191-.023.024-.024.024-.072.096-.072v.024c0-.024.096-.024.048-.096.168.167.431-.024.575.12.12-.024.24-.024.335-.048 0 .024 0 .024-.024.024.144.048.096-.144.24-.096.071.072-.096.048-.025.072.024.167.192-.024.288.072h-.024c.072.047.191-.072.335-.048v.024c.096-.096.263-.12.383-.144-.048.072-.048.024-.024.096.048 0-.024-.096.096-.12.048.024.12.072.144.144h-.12c.048.095.144 0 .191 0v.048c.168-.024.168-.12.335-.12l-.023-.024c.095-.096.071.048.167-.024l.024.096c.072-.024.216-.096.335-.12-.072.072-.191.12-.287.168.072 0 .216 0 .24-.048-.024 0-.048.024-.072.024a.455.455 0 0 1 .31-.12c-.023.191.336.048.432.191.215-.071.455.024.718.024-.096-.143.072 0 .072-.167h.096-.024.024l.191.096c.048.047-.048.024-.048.071.144 0 .048.072.144.096-.024-.048.048-.072.12-.048l-.096-.072c.192-.095.168.12.36.048l-.049.048c.096-.024.36 0 .455-.12.024.024.048.072 0 .072.24.024.503-.143.694-.048l-.024.048c.048 0 .072-.072.12-.024 0 .024-.024.048 0 .048.024-.024.12-.072.168-.048l-.048.048c.215.048.335-.095.527-.143 0 .12.167.143.263.167v.024c.263.024.455-.096.694-.143.12.095.407.071.623.095.024 0 .072-.024.072-.072l.096.072c.167.024.191-.143.335-.12-.048.048.024.096-.072.12.048 0 .096 0 .096-.024.024.024.143-.072.191-.024.024-.024.024-.072.096-.072v.024c0-.023.096-.023.048-.095.167.167.43-.024.575.12.12-.024.239-.024.335-.049 0 .024 0 .024-.024.024.143.048.096-.143.24-.095.071.072-.097.048-.025.072.024.167.192-.024.288.071h-.024c.071.048.191-.072.335-.047v.023c.096-.095.263-.12.383-.143-.048.072-.048.024-.024.096.048 0-.024-.096.096-.12.047.024.12.072.143.144h-.12c.048.095.144 0 .192 0v.047c.168-.024.168-.12.335-.12l-.024-.023c.096-.096.072.048.168-.024l.024.096c.072-.024.215-.096.335-.12-.072.072-.191.12-.287.167.072 0 .215 0 .24-.047-.025 0-.049.024-.073.024a.455.455 0 0 1 .312-.12c-.024.191.335.048.43.191.216-.072.455.024.719.024-.096-.143.072 0 .072-.167h.096-.024.023l.192.095c.048.048-.048.024-.048.072.144 0 .048.072.144.096-.024-.048.048-.072.12-.048l-.096-.072c.191-.096.167.12.359.048l-.048.048c.096-.024.36 0 .455-.12.024.024.048.072 0 .072.24.024.503-.143.694-.048l-.024.048c.048 0 .072-.072.12-.024 0 .024-.024.048 0 .048.024-.024.12-.072.168-.048l-.048.048c.215.048.335-.096.526-.143 0 .12.168.143.264.167v.024c.263.024.455-.096.694-.144.12.096.407.048.623.072v-.934H35.29Z" fill="#B13675"/><path d="m41.061 14.245-4.453-6.536v6.536h-1.221V5.554h1.125l4.86 7.087 4.909-7.087h1.125v8.667h-1.245V7.66l-4.501 6.584h-.599Zm18.34-7.613h-6.057c-.311 0-.623.071-.934.191-.311.12-.598.311-.838.527-.24.24-.455.503-.622.814-.168.311-.24.646-.264 1.006h8.644v1.03h-8.644v.19c0 .408.072.79.216 1.126.143.335.359.622.598.886.264.24.551.43.886.574.335.144.694.192 1.101.192h5.89v1.03H53.08a3.74 3.74 0 0 1-1.364-.264 3.432 3.432 0 0 1-1.173-.766 4.18 4.18 0 0 1-.838-1.173c-.216-.455-.312-.958-.312-1.533v-1.22c0-.551.096-1.054.335-1.509a3.933 3.933 0 0 1 2.06-1.94c.454-.19.91-.263 1.364-.263h6.225v1.102h.024Zm11.636 7.613h-6.249a3.934 3.934 0 0 1-1.436-.263 3.646 3.646 0 0 1-1.15-.742 3.276 3.276 0 0 1-.742-1.173c-.191-.455-.263-.982-.263-1.557V5.578h1.269v4.837c0 .43.072.814.191 1.173.12.335.312.622.527.886.24.239.503.43.814.55.312.12.67.192 1.054.192h5.985v1.03Zm2.299-8.667v3.663h4.573c.36 0 .646-.048.91-.143.24-.096.479-.312.67-.647.048-.096.168-.263.311-.55.168-.288.336-.575.503-.886.192-.312.36-.623.503-.886.144-.288.263-.455.311-.55h1.365l-1.844 3.303a3.2 3.2 0 0 1-.383.55 1.184 1.184 0 0 1-.574.36v.024c.287.048.526.144.694.287.192.144.335.36.479.623l1.915 3.543h-1.365l-1.675-3.112a1.252 1.252 0 0 0-.288-.407c-.096-.12-.24-.192-.383-.264a1.697 1.697 0 0 0-.527-.143 6.426 6.426 0 0 0-.742-.048h-4.453v3.974H72.09V5.58h1.245Zm20.782 1.054H88.06c-.31 0-.622.071-.933.191a2.76 2.76 0 0 0-.838.527 3.51 3.51 0 0 0-.623.814c-.167.311-.24.646-.263 1.006h8.643v1.03h-8.643v.19c0 .408.072.79.215 1.126.144.335.36.622.599.886.263.24.55.43.886.574.335.144.694.192 1.101.192h5.89v1.03h-6.297c-.479 0-.934-.096-1.365-.264a3.432 3.432 0 0 1-1.173-.766 4.18 4.18 0 0 1-.838-1.173c-.215-.455-.311-.958-.311-1.533v-1.22c0-.551.096-1.054.335-1.509.24-.455.503-.838.862-1.173.36-.335.742-.575 1.197-.766.455-.192.91-.264 1.365-.264h6.225v1.102h.024Z" fill="#F2F2F2"/><path d="m28.994 7.494-4.549-6.392V6.68h-.072c-.047.024-.071.024-.095.072h.024c0 .024-.024.024-.048.024 0 .024-.024 0-.024.024-.024.048-.096.072-.12.096-.024 0-.072.048-.096.048h.024c-.048.023 0 .047-.048.071v-.024c0 .024-.023.024-.023 0v.048h.023l-.023.048-.024.024c-.024-.024-.024.024-.024-.024-.048.048-.072.096-.12.12 0 .048-.072.072-.048.096-.024.024-.048.024-.072.024h.024c-.024 0-.048.024-.048.024.024 0 .048-.024.072-.024-.024.024-.072.024-.072.048v.023c-.024 0 0 .024-.024.024-.024.024-.048.024-.072.048 0 0-.024 0-.024.024l.024-.024v.048c-.024.024-.024 0-.024 0 0 .024 0 0 .024 0-.024.024-.047.048-.095.048-.024.024-.048.024-.072.048 0 .024-.072.024-.048.048 0 .024.024-.024.024 0-.024.024-.048 0-.048.024-.024.024-.048.024-.072.048 0 .048-.072.071-.072.12 0-.025-.024 0-.024 0h-.024c0 .023-.023.023-.023.023h-.024.024c-.024.024-.048 0-.072.024v.024h-.024c-.024.048-.096.072-.096.12-.048.024-.096.048-.144.096-.024.024-.047.048-.024.071-.047.024-.071.024-.12.072h.025c0 .024-.024.024-.048.024 0 .024-.024 0-.024.024-.024.048-.096.072-.12.096-.024 0-.072.048-.096.048h.024c-.048.024 0 .048-.048.072v-.024c0 .024-.024.024-.024 0v.048h.024l-.024.048-.023.023c-.024-.023-.024.024-.024-.023-.048.047-.072.095-.12.12 0 .047-.072.071-.048.095-.024.024-.048.024-.072.024h.024c-.024 0-.048.024-.048.024.024 0 .048-.024.072-.024-.024.024-.072.024-.072.048v.024c-.024 0 0 .024-.024.024-.024.024-.048.024-.072.048 0 0-.023 0-.023.024l.023-.024v.047c-.023.024-.023 0-.023 0 0 .024 0 0 .023 0-.023.024-.047.048-.095.048-.024.024-.048.024-.072.048 0 .024-.072.024-.048.048 0 .024.024-.024.024 0-.024.024-.048 0-.048.024-.024.024-.048.024-.072.048 0 .048-.072.072-.072.12 0-.024-.024 0-.024 0h-.024c0 .024-.023.024-.023.024h-.024.024c-.024.024-.048 0-.072.024v.024h-.024c-.024.047-.096.071-.096.12a.501.501 0 0 0-.144.095c-.024.024-.048.048-.024.072-.047.024-.072.024-.12.072h.025c0 .024-.024.024-.048.024 0 .024-.024 0-.024.024-.024.047-.096.071-.12.095-.024 0-.072.048-.096.048h.024c-.048.024 0 .048-.048.072v-.024c0 .024-.024.024-.024 0v.048h.024l-.024.048-.023.024c-.024-.024-.024.024-.024-.024-.048.048-.072.096-.12.12 0 .047-.072.071-.048.095-.024.024-.048.024-.072.024h.024c-.024 0-.048.024-.048.024.024 0 .048-.024.072-.024-.024.024-.072.024-.072.048v.024c-.024 0 0 .024-.024.024-.024.024-.048.024-.072.048 0 0-.024 0-.024.024l.024-.024v.048c-.024.024-.024 0-.024 0 0 .024 0 0 .024 0-.024.024-.047.048-.095.048-.024.024-.048.024-.072.048 0 .024-.072.024-.048.047 0 .024.024-.024.024 0-.024.024-.048 0-.048.024-.024.024-.048.024-.072.048 0 .048-.072.072-.072.12 0-.024-.024 0-.024 0h-.024c0 .024-.024.024-.024.024h-.024.024c-.024.024-.047 0-.071.024v.024h-.024c-.048 0-.024.048-.048.024 0-.024-.048.048-.048.048s-.072.024-.048.048c0 0-.024 0-.024.024v.023h-.024c-.024.024 0 .048-.048.072 0-.024-.024 0 0-.024l-.024.024-.024.024v.048c-.048 0-.071.072-.12.072-.023.024-.047.048-.047.072-.024.024 0 .024-.024.048-.024 0 0-.024 0-.024-.024-.024-.024.024-.072.048-.024 0-.024.048-.048.071 0 .024-.024.048-.048.096v-.024s.024.024 0 .024h-.048l.024-.024c-.024 0-.024.024-.024.024-.024.024-.024.048-.048.072 0 .024-.023 0-.023.024h-.024c0 .024-.024.048-.048.072 0-.024.024-.048.024-.072 0 0-.048.048-.024.048v-.024c0 .024-.024.048-.048.072-.024-.024-.072.048-.096.048-.024.048-.072.071-.12.12.048 0-.024.023 0 .023l-.024.024-.047.024c-.024 0 0-.024 0-.024-.024.024-.024 0-.048 0 0 0 0 .024-.024.024h.024c-.024.048-.048 0-.072.048v-.024c-.024.024-.072.048-.072.096 0 0-.024 0 0 0-.048.024-.072.096-.12.12 0 0 0 .024-.024.024 0 0 0 .023-.024.023v-.023c-.047.023-.047.071-.072.095-.023-.024-.047 0-.071.024-.048.048-.072.096-.096.144-.024 0-.072.048-.12.096v.024h-.024c-.024.024 0 .047-.048.071 0-.024-.023 0 0-.024l-.023.024-.024.024v.048c-.048 0-.072.072-.12.072-.024.024-.048.048-.048.072-.024.024 0 .024-.024.048-.024 0 0-.024 0-.024-.024-.024-.024.024-.072.048-.024 0-.024.048-.048.072 0 .024-.024.047-.048.095v-.024s.024.024 0 .024h-.047l.023-.024c-.023 0-.023.024-.023.024-.024.024-.024.048-.048.072 0 .024-.024 0-.024.024h-.024c0 .024-.024.048-.048.072 0-.024.024-.048.024-.072 0 0-.048.048-.024.048v-.024c0 .024-.024.048-.048.072-.024-.024-.072.048-.096.048-.024.048-.072.072-.12.12.048 0-.024.023 0 .023l-.024.024-.047.024c-.024 0 0-.024 0-.024-.024.024-.024 0-.048 0 0 0 0 .024-.024.024h.024c-.024.048-.048 0-.072.048v-.024c-.024.024-.072.048-.072.096 0 0-.024 0 0 0-.048.024-.072.096-.12.12 0 0 0 .024-.024.024 0 0 0 .024-.024.024v-.024c-.047.024-.047.072-.071.095-.024-.023-.048 0-.072.024a.498.498 0 0 0-.096.144c-.024 0-.072.048-.12.096v.024h-.024c-.024.024 0 .048-.048.072 0-.024-.023 0 0-.024l-.023.024-.024.023v.048c-.048 0-.072.072-.12.072-.024.024-.048.048-.048.072-.024.024 0 .024-.024.048-.024 0 0-.024 0-.024-.024-.024-.024.024-.072.048-.024 0-.024.048-.048.072 0 .024-.024.048-.047.095v-.024s.023.024 0 .024h-.048l.024-.024c-.024 0-.024.024-.024.024-.024.024-.024.048-.048.072 0 .024-.024 0-.024.024h-.024c0 .024-.024.048-.048.072 0-.024.024-.048.024-.072 0 0-.048.048-.024.048v-.024c0 .024-.024.048-.048.072-.024-.024-.072.048-.096.048-.024.048-.072.072-.12.12.049 0-.023.023 0 .023l-.023.024-.048.024c-.024 0 0-.024 0-.024-.024.024-.024 0-.048 0 0 0 0 .024-.024.024h.024c-.024.048-.048 0-.072.048v-.024c-.024.024-.072.048-.072.096 0 0-.024 0 0 0-.048.024-.072.096-.12.12 0 0 0 .024-.023.024 0 0 0 .024-.024.024v-.024c-.048.024-.048.072-.072.096-.024-.024-.048 0-.072.024-.048.047-.072.095-.096.143-.024 0-.024 0-.072.048v14.126l4.526-7.087V12.235l5.434-5.076v7.374l4.621-7.039Z" fill="#AB3473"/><path d="M15.18 15.276s0-.024-.024-.024c.024 0 0 .048.024.024Zm.31-.312s.025 0 .025-.024c0 0-.024 0-.024.024Zm1.365-1.244s0-.025-.023-.025c.023 0 0 .048.023.024Zm.312-.311s.024 0 .024-.024c0 0-.024 0-.024.024Zm1.365-1.246s0-.024-.024-.024c.024 0 0 .048.024.024Zm.311-.311s.024 0 .024-.024c0 0-.024 0-.024.024Zm5.076-4.789c0 .023.023.023 0 0 .047 0 0 .023 0 0Zm-.814.791c-.024 0-.024.023 0 0-.024.023 0 0 0 0Zm.478-.432s0-.024.024-.024c0 0-.024 0-.024.024Zm-1.316 1.222c-.024.024.024 0 0 0 .024-.024 0 .024 0 0Zm-.336.335s0-.024.024-.024c-.024 0-.024 0-.024.024ZM20.59 10.2c0 .024.025.024 0 0 .049 0 0 .024 0 0Zm-.335.335s0-.024.024-.024c-.024 0-.024.024-.024.024Z" fill="#AB3473"/><path d="M13.839 15.252c-.024 0-.024.024-.024.024.048.024 0-.024.024-.024Zm-.359-.312s.024 0 .024.024c0-.024 0-.024-.024-.024Zm-1.317-1.245c-.024 0-.024.024-.024.024.048.024 0-.024.024-.024Zm-.359-.31s.024 0 .024.024c0-.024 0-.024-.024-.024Zm-1.317-1.246c-.024 0-.024.024-.024.024.048.024 0-.024.024-.024Zm-.359-.311s.024 0 .024.024c0-.024 0-.024-.024-.024ZM5.076 7.063c0 .023-.024 0 0 0-.024.023.024.023 0 0Zm.742.695c0 .024.024 0 0 0Zm-.431-.36.024.024c0-.024 0-.024-.024-.024Zm1.365 1.246c0 .024-.048-.024 0 0-.024 0 0 .024 0 0Zm.311.311.024.024c0-.024-.024-.024-.024-.024ZM8.404 10.2c.024.024-.024 0 0 0-.024.024.024.024 0 0Zm.742.695c0 .024.024 0 0 0Zm-.407-.385.024.025c-.024 0-.024-.024-.024-.024Z" fill="#CDD430"/><path d="M14.51 15.874c-.049-.024-.025-.048-.073-.048-.047-.048-.047-.096-.095-.143-.024 0-.048-.024-.072-.024-.024-.024-.024-.072-.072-.096v.024c-.024 0-.024-.024-.024-.024-.024 0 0-.024-.024-.024-.048-.024-.072-.096-.12-.12 0-.024-.048-.072-.071-.096v.024c-.024-.047-.048 0-.072-.047h.024c-.024 0-.024-.025-.024-.025-.024 0-.024.024-.048 0 0 0 .024.024 0 .024l-.048-.024-.024-.023c.024-.024-.024-.024 0-.024-.048-.048-.096-.072-.12-.12-.048 0-.072-.072-.095-.048-.024-.024-.024-.048-.048-.072v.024c0-.024-.024-.048-.024-.048 0 .024.024.048.024.072-.024-.024-.024-.048-.048-.072h-.024c0-.024-.024 0-.024-.024-.024-.024-.024-.047-.048-.072-.024 0-.024-.023-.024-.023l.024.023h-.048c-.024-.023 0-.023 0-.023-.024 0 0 0 0 .023-.024-.023-.048-.047-.048-.095-.024-.024-.024-.048-.048-.072-.024 0-.024-.048-.071-.048-.024 0 .023.024 0 .024-.024-.024 0-.048-.024-.048-.024-.024-.048-.048-.048-.072-.048 0-.072-.072-.12-.072.024 0 0-.024 0-.024v-.023c-.024 0-.024-.024-.024-.024l-.024-.024c.024.024 0 .024 0 .024-.024-.024 0-.048-.048-.072h-.024v-.024a.52.52 0 0 1-.12-.096c-.047-.048-.047-.096-.095-.144-.024 0-.048-.023-.072-.023-.024-.024-.024-.072-.072-.096v.024c-.024 0-.024-.024-.024-.024-.024 0 0-.024-.024-.024-.048-.024-.072-.096-.12-.12 0-.024-.047-.072-.071-.096v.024c-.024-.048-.048 0-.072-.048h.024c-.024 0-.024-.024-.024-.024-.024 0-.024.024-.048 0 0 0 .024.024 0 .024l-.048-.024-.024-.023c.024-.024-.024-.024 0-.024-.048-.048-.096-.072-.12-.12-.047 0-.071-.072-.095-.048-.024-.024-.024-.048-.048-.072v.024c0-.024-.024-.048-.024-.048 0 .024.024.048.024.072-.024-.024-.024-.048-.048-.072h-.024c0-.024-.024 0-.024-.024-.024-.024-.024-.048-.048-.072-.024 0-.024-.024-.024-.024l.024.024h-.048c-.024-.024 0-.024 0-.024-.024 0 0 0 0 .024-.024-.024-.048-.047-.048-.095-.024-.024-.024-.048-.048-.072-.024 0-.024-.048-.071-.048-.024 0 .024.024 0 .024-.024-.024 0-.048-.024-.048-.024-.024-.048-.048-.048-.072-.048 0-.072-.072-.12-.072.024 0 0-.024 0-.024v-.024c-.024 0-.024-.024-.024-.024l-.024-.023c.024.024 0 .024 0 .024-.024-.024 0-.048-.048-.072h-.024v-.024c-.047-.024-.095-.072-.12-.096-.047-.048-.047-.096-.095-.144-.024 0-.048-.024-.072-.024-.024-.024-.024-.071-.072-.095v.024c-.024 0-.024-.024-.024-.024-.024 0 0-.024-.024-.024-.048-.024-.072-.096-.12-.12 0-.024-.047-.072-.071-.096v.024c-.024-.048-.048 0-.072-.048h.024c-.024 0-.024-.024-.024-.024-.024 0-.024.024-.048 0 0 0 .024.024 0 .024l-.048-.024-.024-.024c.024-.024-.024-.024 0-.024-.048-.047-.096-.072-.12-.12-.047 0-.071-.071-.095-.047-.024-.024-.024-.048-.048-.072v.024c0-.024-.024-.048-.024-.048 0 .024.024.048.024.072-.024-.024-.024-.048-.048-.072h-.024c0-.024-.024 0-.024-.024-.024-.024-.024-.048-.048-.072-.024 0-.024-.024-.024-.024l.024.024h-.048c-.024-.024 0-.024 0-.024-.024 0 0 0 0 .024-.024-.024-.048-.048-.048-.095-.024-.024-.024-.048-.047-.072-.024 0-.024-.048-.072-.048-.024 0 .024.024 0 .024-.024-.024 0-.048-.024-.048-.024-.024-.048-.048-.048-.072-.048 0-.072-.072-.12-.072.024 0 0-.024 0-.024v-.024c-.024 0-.024-.024-.024-.024l-.024-.024c.024.024 0 .024 0 .024-.024-.024 0-.048-.048-.072h-.024v-.023c0-.048-.047-.024-.023-.024.023 0-.048-.048-.048-.048s-.024-.072-.048-.048c0 0 0-.024-.048-.024h-.024v-.024c-.024-.024-.048 0-.072-.024.024 0 0-.024.024 0 0 0-.024-.024-.024 0l-.024-.024H9.05c0-.048-.072-.072-.072-.12-.023-.024-.047-.024-.071-.047-.024-.024-.024 0-.048-.024 0-.024.024 0 .024 0 .024-.024-.048-.024-.048-.048s-.048-.024-.072-.048a.182.182 0 0 1-.096-.048h.024s0 .024-.024 0v-.048l.024.024c0-.024-.024-.024-.024-.024-.024-.024-.048 0-.072-.048-.024 0 0-.024-.024-.024v-.024c-.024 0-.047-.024-.071-.048.024 0 .047.024.071.024l-.047-.024h.023c-.023 0-.047 0-.071-.024.024-.024-.048-.071-.048-.095-.048-.024-.072-.072-.12-.12 0 .048-.024 0-.024.024l-.024-.024.12.048c0-.024.024 0 .024 0-.024-.024 0-.024 0-.048H8.38v.024c-.048-.024 0-.048-.048-.072h.024c-.024 0-.072-.048-.096-.048 0 0 0-.024 0 0-.048-.048-.096-.072-.12-.096 0 0-.023 0-.023-.024 0 0-.024 0-.048-.024h.024c-.024-.047-.072-.047-.12-.071.024-.024 0-.048-.024-.072-.048-.048-.096-.048-.144-.096 0-.024-.048-.072-.095-.12h-.024v-.024c-.024-.024-.048 0-.072-.024.024 0 0-.023.024 0 0 0-.024-.023-.024 0l-.024-.023h-.048c0-.048-.072-.072-.072-.12-.024-.024-.048-.024-.072-.048-.024-.024-.024 0-.048-.024 0-.024.024 0 .024 0 .024-.024-.048-.024-.048-.048s-.047-.024-.071-.048a.181.181 0 0 1-.096-.048h.024s0 .024-.024 0v-.048l.024.024c0-.024-.024-.024-.024-.024-.024-.024-.048 0-.072-.047-.024 0 0-.024-.024-.024v-.024c-.024 0-.048-.024-.072-.048.024 0 .048.024.072.024l-.048-.024h.024c-.024 0-.048 0-.072-.024.024-.024-.048-.072-.048-.096-.047-.024-.071-.072-.12-.12 0 .048-.023 0-.023.024l-.024-.024-.048-.071c0-.024.024 0 .024 0-.024-.024 0-.024 0-.048h-.024v.024c-.048-.024 0-.048-.048-.072h.024c-.024 0-.072-.048-.096-.048 0 0 0-.024 0 0-.048-.048-.096-.072-.12-.096 0 0-.023 0-.023-.024 0 0-.024 0-.048-.024h.024c-.024-.048-.072-.048-.12-.072.024-.024 0-.047-.024-.071-.048-.048-.096-.048-.144-.096 0-.024-.048-.072-.095-.12H6.01V7.95c-.024-.024-.048 0-.072-.024.024 0 0-.024.024 0 0 0-.024-.024-.024 0l-.024-.024h-.048c0-.048-.072-.072-.072-.12-.024-.023-.048-.023-.072-.047-.024-.024-.024 0-.048-.024 0-.024.024 0 .024 0 .024-.024-.048-.024-.048-.048s-.047-.024-.071-.048a.182.182 0 0 1-.096-.048h.024s0 .024-.024 0v-.048l.024.024c0-.024-.024-.024-.024-.024-.024-.024-.048 0-.072-.048-.024 0 0-.024-.024-.024v-.024c-.024 0-.048-.024-.072-.047.024 0 .048.023.072.023l-.048-.023h.024c-.024 0-.048 0-.072-.024.024-.024-.048-.072-.048-.096-.047-.024-.071-.072-.12-.12 0 .048-.023 0-.023.024l-.024-.024-.048-.096c0-.024.024 0 .024 0-.024-.024 0-.024 0-.048h-.024v.024c-.048-.024 0-.048-.048-.071h.024c-.024 0-.072-.048-.096-.048 0 0 0-.024 0 0-.048-.048-.096-.072-.12-.096 0 0-.023 0-.023-.024 0 0-.024 0-.048-.024h.024c-.024-.048-.072-.024-.096-.072-.024 0-.024-.024-.072 0V1.102L0 7.494l4.55 7.04V7.158l5.434 5.076v10.678L14.509 30V15.874Z" fill="#CDD430"/><path d="M14.51 0v8.547L23.654 0H14.51Z" fill="#B1618D"/><path d="M14.51 8.547V0H5.34l9.17 8.547Z" fill="#D4DB62"/><path d="M14.51 8.547V1.844L5.34 0l9.17 8.547Z" fill="#C4CA2F"/><path d="M14.51 8.547V1.844L23.654 0 14.51 8.547Z" fill="#B13675"/><path d="M9.984 12.234 14.509 30l-4.525-7.087V12.234Z" fill="#C1C724"/><path d="M19.01 12.234v10.679L14.51 30l4.5-17.766Z" fill="#A13069"/><path d="m0 7.494 4.55-.814V1.102L0 7.494Z" fill="#DCE329"/><path d="m28.994 7.494-4.549-.814V1.102l4.55 6.392Z" fill="#B14A80"/><path d="M50.208 25.57h-.168l-.766-1.82c-.096-.239-.216-.526-.312-.813h-.023c.023.43.023.814.023 1.173v1.484h-.359v-3.088h.527l.718 1.724c.072.191.168.43.264.718.12-.311.191-.55.263-.718l.718-1.724h.527v3.04h-.383v-1.484c0-.335 0-.742.024-1.173h-.024c-.12.311-.215.575-.311.814l-.718 1.867Zm3.447-.239-.12.12c-.047.024-.095.072-.143.096a1.88 1.88 0 0 1-.192.071c-.071.024-.143.024-.215.024a1.2 1.2 0 0 1-.287-.048.348.348 0 0 1-.216-.143.564.564 0 0 1-.143-.216c-.024-.096-.048-.191-.048-.287 0-.12.024-.216.048-.287a.522.522 0 0 1 .167-.216c.072-.048.144-.096.264-.143a1.41 1.41 0 0 1 .335-.048c.12 0 .215 0 .31.023.097.024.193.048.264.072v-.335a.183.183 0 0 0-.048-.12.486.486 0 0 0-.191-.191.8.8 0 0 0-.36-.072c-.119 0-.215 0-.31.024a1.345 1.345 0 0 0-.288.096v-.288c.048-.024.072-.024.12-.047.048-.024.096-.024.168-.048.047 0 .12-.024.167-.024h.192c.215 0 .407.048.526.12.144.071.24.191.312.31.023.049.047.096.047.168 0 .048.024.12.024.192v1.436h-.287l-.096-.239Zm-.024-.718c-.071-.024-.143-.024-.239-.048s-.192-.024-.287-.024c-.144 0-.264.024-.36.096-.095.072-.12.167-.12.287 0 .072 0 .12.025.168.024.047.048.095.096.12.047.023.071.047.12.071.047.024.095.024.167.024.072 0 .143 0 .215-.024.072-.024.12-.048.168-.072.048-.024.096-.072.12-.095.024-.024.072-.048.072-.072v-.431h.023Zm.91-.12c0-.143.024-.287.048-.407s.072-.215.12-.311a.522.522 0 0 1 .167-.215c.072-.048.144-.096.192-.144.048-.048.144-.072.215-.072.072-.024.144-.024.216-.024.143 0 .24.024.335.072.096.048.191.12.263.191v-1.316h.36v3.304h-.264l-.072-.24c-.024.024-.048.072-.096.096-.047.024-.071.072-.12.096a1.106 1.106 0 0 1-.167.072c-.072.024-.143.024-.215.024a.96.96 0 0 1-.36-.072.844.844 0 0 1-.31-.192 1.005 1.005 0 0 1-.216-.335c-.072-.144-.096-.311-.096-.527Zm.383 0c0 .12.024.24.048.335a.884.884 0 0 0 .12.264c.048.072.12.12.191.167.072.048.168.048.264.048.072 0 .143 0 .191-.024.072-.024.12-.048.168-.072a.52.52 0 0 0 .12-.095c.023-.024.071-.072.071-.096v-1.125a.62.62 0 0 0-.263-.168.663.663 0 0 0-.311-.072.697.697 0 0 0-.216.048.564.564 0 0 0-.215.144.714.714 0 0 0-.168.263c.024.072 0 .216 0 .383Zm3.28.815c.12 0 .216 0 .312-.024l.287-.072v.288a.809.809 0 0 1-.287.095c-.12.024-.24.024-.36.024-.143 0-.31-.024-.43-.048-.144-.048-.264-.095-.36-.191a1.2 1.2 0 0 1-.24-.335 1.564 1.564 0 0 1-.023-1.006.902.902 0 0 1 .215-.36.91.91 0 0 1 .67-.286c.12 0 .24.023.336.071a.68.68 0 0 1 .263.192c.072.096.144.192.192.335.048.144.072.311.072.503v.144h-1.485a.8.8 0 0 0 .24.598c.072.072.167.096.263.12.12-.048.216-.048.335-.048Zm-.191-1.676a.57.57 0 0 0-.216.048c-.072.024-.12.072-.191.12-.072.047-.096.12-.12.191-.024.072-.048.144-.072.24h1.102c0-.096 0-.168-.024-.24a.48.48 0 0 0-.096-.191c-.048-.048-.096-.096-.168-.12a.477.477 0 0 0-.215-.048Zm2.442-.743v-.383h.36v.383h-.36Zm0 2.681v-2.154h.36v2.154h-.36Zm1.412-1.867.144-.144c.048-.048.096-.072.168-.12.048-.023.12-.047.191-.071.072-.024.144-.024.24-.024s.191.024.287.048a.349.349 0 0 1 .215.143c.072.072.12.144.144.24.024.096.048.215.048.359v1.46h-.36v-1.388a.633.633 0 0 0-.119-.407.413.413 0 0 0-.311-.12c-.12 0-.24.024-.36.096a.826.826 0 0 0-.287.287v1.532h-.359V23.44h.264l.096.264Zm3.473 1.867h-.384v-3.064h1.82v.335h-1.437v.982h1.293v.335H65.34v1.412Zm3.112-1.891h-.024c-.072 0-.168 0-.24.024-.072.024-.167.048-.215.072a.522.522 0 0 0-.192.12 1.043 1.043 0 0 0-.144.167v1.508h-.359v-2.154h.264l.072.335a.726.726 0 0 1 .12-.168.726.726 0 0 1 .167-.12.849.849 0 0 1 .215-.095c.072-.024.168-.024.24-.024h.096v.335Zm.119-.286h.36l.67 1.7h.024l.694-1.7h.36l-1.341 3.232h-.383l.454-1.102-.838-2.13Zm3.783 1.938-.12.12c-.047.024-.095.072-.143.096a1.88 1.88 0 0 1-.192.071c-.071.024-.143.024-.215.024a1.2 1.2 0 0 1-.287-.048.349.349 0 0 1-.216-.143.565.565 0 0 1-.144-.216 1.199 1.199 0 0 1-.047-.287c0-.12.023-.216.047-.287a.482.482 0 0 1 .168-.216c.072-.048.144-.096.263-.143a1.41 1.41 0 0 1 .336-.048c.12 0 .215 0 .31.023.097.024.192.048.264.072v-.335a.183.183 0 0 0-.048-.12.49.49 0 0 0-.191-.191.8.8 0 0 0-.36-.072c-.119 0-.215 0-.31.024a1.348 1.348 0 0 0-.288.096v-.288c.048-.024.072-.024.12-.047.048-.024.096-.024.167-.048.048 0 .12-.024.168-.024h.192c.215 0 .407.048.526.12.12.071.24.191.312.31.023.049.047.096.047.168 0 .048.024.12.024.192v1.436h-.287l-.096-.239Zm-.024-.718c-.072-.024-.143-.024-.239-.048s-.192-.024-.287-.024c-.144 0-.264.024-.36.096-.095.072-.12.167-.12.287 0 .072 0 .12.025.168.024.047.048.095.096.12.047.023.071.047.12.071.047.024.095.024.167.024.072 0 .144 0 .215-.024.072-.024.12-.048.168-.072.048-.024.096-.072.12-.095.024-.024.071-.048.071-.072v-.431h.024Zm2.083-.909h-1.197v-.311h1.629v.215l-1.198 1.628h1.293v.311h-1.748v-.167l1.222-1.676Zm1.03-.815v-.383h.36v.383h-.36Zm.024 2.681v-2.154h.359v2.154h-.36Zm1.388-1.867.144-.144c.048-.048.096-.072.168-.12.047-.023.12-.047.191-.071.072-.024.144-.024.24-.024.095 0 .191.024.287.048a.349.349 0 0 1 .215.143c.072.072.12.144.144.24.024.096.048.215.048.359v1.46h-.36v-1.388a.633.633 0 0 0-.119-.407c-.072-.096-.168-.12-.311-.12-.12 0-.24.024-.36.096a.826.826 0 0 0-.287.287v1.532h-.359V23.44h.264l.095.264Zm4.071.767c0 .167-.024.335-.072.454a.903.903 0 0 1-.216.36 1.536 1.536 0 0 1-.31.239 1.16 1.16 0 0 1-.432.072 1.16 1.16 0 0 1-.43-.072 1.08 1.08 0 0 1-.336-.24.902.902 0 0 1-.215-.359 1.544 1.544 0 0 1 0-.934.9.9 0 0 1 .215-.358c.096-.096.192-.168.335-.24a1.16 1.16 0 0 1 .431-.072c.168 0 .311.024.431.072.12.048.24.144.335.24a.658.658 0 0 1 .192.359c.048.167.072.311.072.479Zm-.383 0c0-.144-.024-.264-.048-.36a.57.57 0 0 0-.144-.263.521.521 0 0 0-.215-.168c-.096-.047-.168-.047-.264-.047a.86.86 0 0 0-.263.047c-.072.024-.144.096-.215.168a2.617 2.617 0 0 0-.144.263 1.451 1.451 0 0 0-.048.36c0 .143.024.239.048.359a.57.57 0 0 0 .144.263.52.52 0 0 0 .215.168c.072.047.168.047.263.047a.862.862 0 0 0 .264-.047c.072-.048.143-.096.215-.168.048-.072.096-.168.144-.263.048-.096.048-.216.048-.36Z" fill="#F2F2F2"/></g><defs><clipPath id="a"><path fill="#fff" d="M0 0h94.118v30H0z"/></clipPath></defs></svg>