<svg width="157" height="50" fill="none" xmlns="http://www.w3.org/2000/svg"><g clip-path="url(#a)"><path d="M65.642 32.083c.16-.08-.04-.2 0-.24-.239.12.12.12 0 .24Zm6.944-.12h-.04l-.04.04.08-.04Zm.199 0-.04.12c.12.04.08-.12.04-.12Zm-4.03 0c.08.08.16.04.2-.04 0-.04-.12.04-.2.04Zm12.929.08c.16-.08-.04-.2 0-.24-.24.08.16.12 0 .24Zm6.943-.119h-.04l-.04.04.08-.04Zm.2-.04-.04.12c.12.08.12-.08.04-.12Zm-3.991.04c.08.08.16.04.2-.04-.04-.04-.12 0-.2.04Zm12.929.039c.16-.08-.04-.2 0-.24-.24.12.12.16 0 .24Zm6.944-.119h-.04l-.04.04.08-.04Zm.199 0-.04.12c.12.04.08-.08.04-.12Zm-4.03 0c.08.08.159.04.199-.04 0 0-.119.04-.199.04Zm49.042.239c-.159-.12.24-.12 0-.24 0 .04-.199.16 0 .24Zm-7.142 0-.04-.12c-.04 0-.08.16.04.12Zm3.75-.16c.04.08.16.12.2.04-.04 0-.12-.08-.2-.04Zm-12.689.12c-.16-.12.239-.12 0-.24.04 0-.16.16 0 .24Zm-8.061-.08c0-.04-.04-.04 0 0h-.04.04Zm.958.081-.04-.12c-.08 0-.08.16.04.12Zm3.751-.16c.04.08.159.12.199.04-.079-.04-.159-.08-.199-.04Zm-12.69.079c-.159-.12.24-.12 0-.24.04.04-.199.2 0 .24Zm-6.903-.08c0-.04-.04-.04 0 0h-.08.08Zm-.24.08-.039-.12c-.04.04-.08.16.039.12Zm3.751-.159c.04.08.16.12.2.04-.04 0-.12-.04-.2-.04Z" fill="#B13675"/><path d="M58.819 30.527v1.556c.359-.04.838.04 1.037-.12.4.08.719.24 1.158.24v-.04c.16-.04.438-.08.438-.28.32.04.52.32.878.24l-.08-.08c.08-.04.24.04.28.08.04 0 0-.04 0-.08.08-.08.16.04.2.04l-.04-.08c.279-.12.758.12 1.157.08-.08 0-.04-.08 0-.12.16.2.598.16.758.2l-.08-.08c.32.12.28-.2.599-.08l-.16.12c.12-.04.24 0 .2.08.16-.08 0-.16.239-.16 0-.04-.16-.04-.08-.12l.32-.16h.04-.04s.04-.039.16 0c-.04.28.239 0 .119.28.439.04.798-.16 1.197-.04.16-.24.758 0 .718-.319.2 0 .4.08.519.2-.04.04-.08 0-.12-.04.04.08.32.08.4.08-.12-.08-.36-.16-.48-.28.2.04.48.16.56.2l.039-.16c.16.12.12-.12.28.04l-.04.04c.279 0 .319.16.558.2v-.08c.08-.04.24.12.32 0h-.2c0-.12.16-.16.24-.24.199.04.079.2.159.2.04-.12 0-.04-.04-.16.2.04.519.08.638.24v-.04c.24 0 .4.2.559.08h-.04c.16-.16.479.159.479-.12.08-.04-.2 0-.04-.12.28-.08.16.24.4.16-.04 0-.04 0-.04-.04.159 0 .398.04.558.08.24-.24.678.08.958-.2-.08.08.08.12.08.16v-.04c.08 0 .12.08.159.12.08-.08.28.08.32.04 0 .04.079.04.159.04-.16-.08-.04-.12-.12-.2.24-.04.28.279.559.2l.16-.12c0 .08.08.12.12.12.358-.04.837 0 1.037-.16.399.08.718.239 1.157.239v-.04c.16-.04.439-.08.439-.28.319.04.519.32.878.24l-.08-.08c.08-.04.24.04.28.08.04 0 0-.04 0-.08.079-.08.159.04.199.04l-.04-.08c.28-.12.758.12 1.157.08-.08 0-.04-.08 0-.12.16.2.599.16.758.2l-.08-.08c.32.12.28-.2.599-.08l-.16.12c.12-.04.24 0 .2.08.16-.08 0-.16.24-.16 0-.04-.16-.04-.08-.12l.319-.159h.04-.04s.04-.04.16 0c-.04.28.239 0 .12.28.438.04.797-.16 1.196-.04.16-.24.758 0 .719-.32.199 0 .398.08.518.2-.04.04-.08 0-.12-.04.04.08.32.08.4.08-.12-.08-.36-.16-.48-.28.2.04.48.16.56.2l.04-.16c.159.12.119-.12.279.04l-.04.04c.279 0 .319.16.558.2v-.08c.08-.04.24.12.32 0h-.2c0-.12.16-.16.24-.24.199.04.08.2.16.2.039-.12 0-.04-.04-.16.199.04.518.08.638.24v-.04c.24 0 .399.2.558.08h-.04c.16-.16.48.16.48-.12.08-.04-.2 0-.04-.12.279-.08.159.24.398.16-.04 0-.04 0-.04-.04.16 0 .4.04.56.08.239-.24.678.08.957-.2-.08.08.08.12.08.16v-.04c.08 0 .12.08.16.12.08-.08.279.08.319.04 0 .04.08.04.16.04-.16-.08-.04-.12-.12-.2.239-.04.279.28.558.2l.16-.12c0 .08.08.12.12.12.359-.04.837 0 1.037-.16.399.08.718.24 1.157.24v-.04c.16-.04.44-.08.44-.28.318.04.518.32.877.24l-.08-.08c.08-.04.24.04.28.08.04 0 0-.04 0-.08.08-.08.16.04.2.04l-.04-.08c.278-.12.757.12 1.156.08-.08 0-.04-.08 0-.12.16.2.599.16.759.2l-.08-.08c.319.12.28-.2.598-.08l-.16.12c.12-.04.24 0 .2.08.16-.08 0-.16.24-.16 0-.04-.16-.04-.08-.12l.32-.16h.039-.04s.04-.04.16 0c-.04.28.24 0 .12.28.438.04.797-.16 1.197-.04.16-.24.758 0 .718-.32a.76.76 0 0 1 .519.2c-.04.04-.08 0-.12-.04.04.08.319.08.399.08-.12-.08-.359-.16-.479-.28.2.04.479.16.559.2l.04-.16c.159.12.119-.12.279.04l-.04.04c.279 0 .319.16.559.2v-.08c.079-.04.239.12.319 0h-.2c0-.12.16-.16.24-.24.199.04.08.2.159.2.04-.12 0-.04-.039-.16.199.04.518.08.638.24v-.04c.239 0 .399.2.559.08h-.04c.159-.16.479.16.479-.12.079-.04-.2 0-.04-.12.279-.08.159.24.399.16-.04 0-.04 0-.04-.04.159 0 .399.04.559.08.239-.24.678.08.957-.2-.08.08.08.12.08.16v-.04c.08 0 .12.08.16.12.079-.08.279.08.319.04 0 .04.08.04.159.04-.159-.08-.039-.12-.119-.2.239-.04.279.28.558.2l.16-.12s.04 0 .12.04c.239.2.359-.08.359.04-.04.2.399 0 .439 0 .04 0 .479.2.439 0-.04-.08.08.2.359-.04.04-.04.12 0 .12-.04l.159.12c.28.04.319-.24.559-.2-.08.08.04.16-.12.2.08 0 .16 0 .16-.04.04.04.239-.12.319-.04.04-.04.04-.12.16-.12v.04c0-.04.159-.04.079-.16.28.28.719-.04.958.2.2-.04.399-.04.559-.08 0 .04 0 .04-.04.04.239.08.16-.24.399-.16.12.12-.16.08-.04.12.04.28.319-.04.479.12h-.04c.12.08.319-.12.559-.08v.04c.159-.16.439-.2.638-.24-.08.12-.08.04-.04.16.08 0-.04-.16.16-.2.08.04.199.12.239.24h-.199c.08.16.239 0 .319 0v.08c.279-.04.279-.2.559-.2l-.04-.04c.159-.16.119.08.279-.04l.04.16c.12-.04.359-.16.559-.2-.12.12-.32.2-.479.28.12 0 .359 0 .399-.08-.04 0-.08.04-.12.04.12-.12.319-.2.519-.2-.04.32.559.08.718.32.359-.12.758.04 1.197.04-.159-.24.12 0 .12-.28h.16-.04.04l.319.16c.08.08-.08.04-.08.12.239 0 .08.12.239.16-.039-.08.08-.12.2-.08l-.16-.12c.32-.16.28.2.599.08l-.08.08c.16-.04.599 0 .758-.2.04.04.08.12 0 .12.399.04.838-.24 1.158-.08l-.04.08c.079 0 .119-.12.199-.04 0 .04-.04.08 0 .08.04-.04.2-.12.279-.08l-.079.08c.359.08.558-.16.878-.24 0 .2.279.24.439.28v.04c.438.04.758-.16 1.157-.24.199.16.678.12 1.037.16.04 0 .12-.04.12-.12l.16.12c.279.04.319-.24.558-.2-.08.08.04.16-.119.2.079 0 .159 0 .159-.04.04.04.24-.12.319-.04.04-.04.04-.12.16-.12v.04c0-.04.16-.04.08-.16.279.28.718-.04.957.2.2-.04.4-.04.559-.08 0 .04 0 .04-.04.04.24.08.16-.24.399-.16.12.12-.159.08-.04.12.04.28.32-.04.479.12h-.04c.12.08.32-.12.559-.08v.04c.16-.16.439-.2.638-.24-.079.12-.079.04-.039.16.079 0-.04-.16.159-.2.08.04.2.12.24.24h-.2c.08.16.239 0 .319 0v.08c.28-.04.28-.2.559-.2l-.04-.04c.16-.16.12.08.279-.04l.04.16c.12-.04.359-.16.559-.2-.12.12-.319.2-.479.28.12 0 .359 0 .399-.08-.04 0-.08.04-.12.04.12-.12.32-.2.519-.2-.04.32.559.08.718.32.36-.12.759.04 1.198.04-.16-.24.119 0 .119-.28h.16-.04.04l.319.16c.08.08-.08.04-.08.12.24 0 .08.12.24.159-.04-.08.08-.12.199-.08l-.159-.12c.319-.16.279.2.598.08l-.08.08c.16-.04.599 0 .759-.2.04.04.079.12 0 .12.399.04.838-.24 1.157-.08l-.04.08c.08 0 .12-.12.199-.04 0 .04-.039.08 0 .08.04-.04.2-.12.28-.08l-.08.08c.359.08.559-.16.878-.24 0 .2.279.24.439.28v.04c.439.04.758-.16 1.157-.24.2.16.678.12 1.038.16.039 0 .119-.04.119-.12l.16.12c.279.04.319-.24.559-.2-.08.08.039.16-.12.2.08 0 .159 0 .159-.04.04.04.24-.12.32-.04.04-.04.04-.12.159-.12v.04c0-.04.16-.04.08-.159.279.28.718-.04.958.2.199-.04.399-.04.558-.08 0 .04 0 .04-.039.04.239.08.159-.24.399-.16.119.12-.16.08-.04.12.04.279.319-.04.479.12h-.04c.119.08.319-.12.558-.08v.04c.16-.16.439-.2.639-.24-.08.12-.08.04-.04.16.08 0-.04-.16.159-.2.08.04.2.12.24.24h-.2c.08.16.24 0 .32 0v.08c.279-.04.279-.2.558-.2l-.04-.04c.16-.16.12.08.28-.04l.04.16c.119-.04.359-.16.558-.2-.119.12-.319.2-.479.28.12 0 .36 0 .399-.08-.039 0-.079.04-.119.04.119-.12.319-.2.519-.2-.04.32.558.08.718.32.359-.12.758.04 1.197.04-.16-.24.12 0 .12-.28h.159-.04.04l.319.16c.08.08-.079.04-.079.12.239 0 .079.119.239.159-.04-.08.08-.12.2-.08l-.16-.12c.319-.16.279.2.599.08l-.08.08c.159-.04.598 0 .758-.2.04.04.08.12 0 .12.399.04.838-.24 1.157-.08l-.04.08c.08 0 .12-.12.2-.04 0 .04-.04.08 0 .08.04-.04.199-.12.279-.08l-.08.08c.359.08.559-.16.878-.24 0 .2.28.24.439.28v.04c.439.04.758-.16 1.157-.24.2.16.679.08 1.038.12v-1.556H58.819Z" fill="#B13675"/><path d="m68.436 23.743-7.422-10.894v10.894h-2.036V9.258h1.876l8.1 11.812 8.18-11.812h1.876v14.445h-2.075V12.77l-7.502 10.974h-.997Zm30.566-12.69H88.906c-.518 0-1.037.12-1.556.32a4.6 4.6 0 0 0-1.396.878c-.4.399-.759.838-1.038 1.356-.28.519-.4 1.078-.439 1.676h14.405V17H84.477v.32c0 .678.12 1.316.36 1.875.239.559.598 1.037.997 1.476.439.4.918.719 1.476.958.559.24 1.157.32 1.836.32h9.816v1.715H88.467c-.798 0-1.556-.16-2.274-.439a5.721 5.721 0 0 1-1.955-1.277 6.963 6.963 0 0 1-1.397-1.955c-.36-.758-.519-1.596-.519-2.554v-2.035c0-.918.16-1.756.559-2.514a6.365 6.365 0 0 1 1.436-1.955 6.555 6.555 0 0 1 1.996-1.277 5.764 5.764 0 0 1 2.274-.44h10.375v1.836h.04Zm19.394 12.69h-10.415a6.57 6.57 0 0 1-2.395-.439c-.718-.28-1.356-.718-1.915-1.237a5.453 5.453 0 0 1-1.237-1.955c-.319-.758-.439-1.636-.439-2.594v-8.22h2.115v8.06a6.1 6.1 0 0 0 .319 1.956c.2.558.519 1.037.878 1.476.399.4.838.719 1.357.918a4.9 4.9 0 0 0 1.756.32h9.976v1.715Zm3.831-14.445v6.105h7.622c.598 0 1.077-.08 1.516-.24.399-.159.798-.518 1.117-1.077.08-.16.28-.439.519-.917.279-.48.559-.958.838-1.477.319-.519.599-1.037.838-1.476.239-.48.439-.759.519-.918h2.274l-3.072 5.507c-.2.359-.399.638-.639.917a1.97 1.97 0 0 1-.958.599v.04c.479.08.878.24 1.158.479.319.24.558.598.798 1.037l3.192 5.906h-2.274l-2.794-5.188a2.069 2.069 0 0 0-.479-.678c-.159-.2-.399-.32-.638-.439-.239-.12-.559-.2-.878-.24-.359-.04-.758-.079-1.237-.079h-7.422v6.624h-2.075V9.298h2.075Zm34.637 1.755h-10.096c-.519 0-1.038.12-1.557.32-.518.2-.997.518-1.396.878a5.847 5.847 0 0 0-1.038 1.356c-.279.519-.399 1.078-.439 1.676h14.406V17h-14.406v.32c0 .678.12 1.316.36 1.875.239.559.598 1.037.997 1.476.439.4.918.719 1.477.958.558.24 1.157.32 1.835.32h9.817v1.715h-10.495c-.798 0-1.556-.16-2.275-.439a5.726 5.726 0 0 1-1.955-1.277 6.956 6.956 0 0 1-1.397-1.955c-.359-.758-.518-1.596-.518-2.554v-2.035c0-.918.159-1.756.558-2.514.399-.758.838-1.397 1.437-1.955a6.549 6.549 0 0 1 1.995-1.277 5.762 5.762 0 0 1 2.275-.44h10.375v1.836h.04Z" fill="#434343"/><path d="M48.324 12.49 40.742 1.836v9.298h-.12c-.08.04-.12.04-.159.12h.04c0 .04-.04.04-.08.04 0 .04-.04 0-.04.04-.04.079-.16.119-.2.159-.04 0-.119.08-.159.08h.04c-.08.04 0 .08-.08.12v-.04c0 .04-.04.04-.04 0v.08h.04l-.04.079-.04.04c-.04-.04-.04.04-.04-.04-.08.08-.12.16-.2.2 0 .08-.119.12-.079.16-.04.039-.08.039-.12.039h.04c-.04 0-.08.04-.08.04.04 0 .08-.04.12-.04-.04.04-.12.04-.12.08v.04c-.04 0 0 .04-.04.04-.04.04-.08.04-.12.08 0 0-.039 0-.039.04l.04-.04v.08c-.04.04-.04 0-.04 0 0 .04 0 0 .04 0-.04.04-.08.08-.16.08-.04.039-.08.039-.12.079 0 .04-.12.04-.08.08 0 .04.04-.04.04 0-.04.04-.08 0-.08.04-.04.04-.079.04-.119.08 0 .08-.12.12-.12.199 0-.04-.04 0-.04 0h-.04c0 .04-.04.04-.04.04h-.04.04c-.04.04-.08 0-.119.04v.04h-.04c-.04.08-.16.12-.16.2-.08.04-.16.079-.239.159-.04.04-.08.08-.04.12-.08.04-.12.04-.2.12h.04c0 .04-.04.04-.08.04 0 .039-.04 0-.04.039-.04.08-.159.12-.199.16-.04 0-.12.08-.16.08h.04c-.08.04 0 .08-.08.12v-.04c0 .04-.04.04-.04 0v.08h.04l-.04.079-.039.04c-.04-.04-.04.04-.04-.04-.08.08-.12.16-.2.2 0 .08-.12.12-.08.159-.04.04-.08.04-.119.04h.04c-.04 0-.08.04-.08.04.04 0 .08-.04.12-.04-.04.04-.12.04-.12.08v.04c-.04 0 0 .04-.04.04-.04.04-.08.04-.12.08 0 0-.04 0-.04.04l.04-.04v.08c-.04.039-.04 0-.04 0 0 .039 0 0 .04 0-.04.039-.08.079-.16.079-.039.04-.079.04-.119.08 0 .04-.12.04-.08.08 0 .04.04-.04.04 0-.04.04-.08 0-.08.04-.04.04-.08.04-.12.08 0 .08-.119.119-.119.199 0-.04-.04 0-.04 0h-.04c0 .04-.04.04-.04.04h-.04.04c-.04.04-.08 0-.12.04v.04h-.04c-.04.08-.159.12-.159.199-.08.04-.16.08-.24.16-.04.04-.08.08-.04.12-.08.04-.119.04-.199.12h.04c0 .039-.04.039-.08.039 0 .04-.04 0-.04.04-.04.08-.16.12-.2.16-.039 0-.119.08-.159.08h.04c-.08.04 0 .08-.08.119v-.04c0 .04-.04.04-.04 0v.08h.04l-.04.08-.04.04c-.04-.04-.04.04-.04-.04-.08.08-.12.16-.199.2 0 .08-.12.119-.08.159-.04.04-.08.04-.12.04h.04c-.04 0-.08.04-.08.04.04 0 .08-.04.12-.04-.04.04-.12.04-.12.08v.04c-.04 0 0 .04-.04.04-.04.04-.079.04-.119.08 0 0-.04 0-.04.04l.04-.04v.079c-.04.04-.04 0-.04 0 0 .04 0 0 .04 0-.04.04-.08.08-.16.08-.04.04-.08.04-.12.08 0 .04-.119.04-.079.08 0 .04.04-.04.04 0-.04.04-.08 0-.08.04-.04.04-.08.04-.12.08 0 .079-.12.119-.12.199 0-.04-.04 0-.04 0h-.04c0 .04-.04.04-.04.04h-.039.04c-.04.04-.08 0-.12.04v.04h-.04c-.08 0-.04.08-.08.04 0-.04-.08.08-.08.08s-.119.039-.08.079c0 0-.039 0-.039.04v.04h-.04c-.04.04 0 .08-.08.12 0-.04-.04 0 0-.04l-.04.04-.04.04v.08c-.08 0-.12.119-.2.119-.039.04-.079.08-.079.12-.04.04 0 .04-.04.08-.04 0 0-.04 0-.04-.04-.04-.04.04-.12.08-.04 0-.04.08-.08.119 0 .04-.04.08-.08.16v-.04s.04.04 0 .04h-.079l.04-.04c-.04 0-.04.04-.04.04-.04.04-.04.08-.08.12 0 .04-.04 0-.04.04h-.04c0 .04-.04.079-.08.119 0-.04.04-.08.04-.12 0 0-.08.08-.04.08v-.04c0 .04-.04.08-.08.12-.04-.04-.119.08-.159.08-.04.08-.12.12-.2.2.08 0-.04.04 0 .04l-.04.039-.079.04c-.04 0 0-.04 0-.04-.04.04-.04 0-.08 0 0 0 0 .04-.04.04h.04c-.04.08-.08 0-.12.08v-.04c-.04.04-.12.08-.12.16 0 0-.04 0 0 0-.08.04-.119.159-.199.199 0 0 0 .04-.04.04 0 0 0 .04-.04.04v-.04c-.08.04-.08.12-.12.16-.04-.04-.08 0-.119.04a.833.833 0 0 0-.16.239c-.04 0-.12.08-.2.16v.04h-.039c-.04.04 0 .08-.08.119 0-.04-.04 0 0-.04l-.04.04-.04.04v.08c-.08 0-.12.12-.2.12-.04.04-.079.08-.079.12-.04.039 0 .04-.04.079-.04 0 0-.04 0-.04-.04-.04-.04.04-.12.08-.04 0-.04.08-.08.12 0 .04-.04.08-.08.16v-.04s.04.04 0 .04h-.079l.04-.04c-.04 0-.04.04-.04.04-.04.04-.04.079-.08.119 0 .04-.04 0-.04.04h-.04c0 .04-.04.08-.08.12 0-.04.04-.08.04-.12 0 0-.08.08-.04.08v-.04c0 .04-.04.08-.08.12-.04-.04-.119.08-.159.08-.04.079-.12.119-.2.199.08 0-.04.04 0 .04l-.04.04-.08.04c-.039 0 0-.04 0-.04-.039.04-.039 0-.079 0 0 0 0 .04-.04.04h.04c-.04.08-.08 0-.12.08v-.04c-.04.04-.12.08-.12.159 0 0-.04 0 0 0-.08.04-.12.16-.199.2 0 0 0 .04-.04.04 0 0 0 .04-.04.04v-.04c-.08.04-.08.12-.12.159-.04-.04-.08 0-.12.04-.079.08-.119.16-.159.24-.04 0-.12.08-.2.159v.04h-.04c-.04.04 0 .08-.079.12 0-.04-.04 0 0-.04l-.04.04-.04.04v.08c-.08 0-.12.119-.2.119-.04.04-.08.08-.08.12-.039.04 0 .04-.039.08-.04 0 0-.04 0-.04-.04-.04-.04.04-.12.08-.04 0-.04.08-.08.12 0 .04-.04.079-.08.159v-.04s.04.04 0 .04h-.08l.04-.04c-.04 0-.04.04-.04.04-.039.04-.039.08-.079.12 0 .04-.04 0-.04.04h-.04c0 .04-.04.08-.08.12 0-.04.04-.08.04-.12 0 0-.08.08-.04.08v-.04c0 .04-.04.08-.08.119-.04-.04-.12.08-.159.08-.04.08-.12.12-.2.2.08 0-.04.04 0 .04l-.04.04-.08.039c-.04 0 0-.04 0-.04-.04.04-.04 0-.079 0 0 0 0 .04-.04.04h.04c-.04.08-.08 0-.12.08v-.04c-.04.04-.12.08-.12.16 0 0-.04 0 0 0-.08.04-.12.16-.199.2 0 0 0 .039-.04.039 0 0 0 .04-.04.04v-.04c-.08.04-.08.12-.12.16-.04-.04-.08 0-.12.04-.079.08-.119.16-.159.239-.04 0-.04 0-.12.08V50.04l7.542-11.811V20.39l9.059-8.46v12.291l7.701-11.732Z" fill="#AB3473"/><path d="M25.3 25.46s0-.04-.04-.04c.04 0 0 .08.04.04Zm.518-.52s.04 0 .04-.04c0 0-.04 0-.04.04Zm2.275-2.075s0-.04-.04-.04c.04 0 0 .08.04.04Zm.518-.519s.04 0 .04-.04c0 0-.04 0-.04.04Zm2.275-2.075s0-.04-.04-.04c.04 0 0 .08.04.04Zm.519-.518s.04 0 .04-.04c0 0-.04 0-.04.04Zm8.459-7.981c0 .04.04.04 0 0 .08 0 0 .04 0 0Zm-1.356 1.317c-.04 0-.04.04 0 0-.04.04 0 0 0 0Zm.798-.718s0-.04.04-.04c0 0-.04 0-.04.04Zm-2.195 2.035c-.04.04.04 0 0 0 .04-.04 0 .04 0 0Zm-.559.559s0-.04.04-.04c-.04 0-.04 0-.04.04ZM34.318 17c0 .04.04.04 0 0 .08 0 0 .04 0 0Zm-.558.558s0-.04.04-.04c-.04 0-.04.04-.04.04Z" fill="#AB3473"/><path d="M23.065 25.419c-.04 0-.04.04-.04.04.08.04 0-.04.04-.04Zm-.599-.519s.04 0 .04.04c0-.04 0-.04-.04-.04Zm-2.195-2.075c-.04 0-.04.04-.04.04.08.04 0-.04.04-.04Zm-.598-.519s.04 0 .04.04c0-.04 0-.04-.04-.04Zm-2.195-2.075c-.04 0-.04.04-.04.04.08.04 0-.04.04-.04Zm-.598-.519s.04 0 .04.04c0-.04 0-.04-.04-.04Zm-8.42-7.941c0 .04-.04 0 0 0-.04.04.04.04 0 0Zm1.237 1.158c0 .04.04 0 0 0Zm-.719-.599.04.04c0-.04 0-.04-.04-.04Zm2.275 2.075c0 .04-.08-.04 0 0-.04 0 0 .04 0 0Zm.519.519.04.04c0-.04-.04-.04-.04-.04Zm2.234 2.075c.04.04-.04 0 0 0-.04.04.04.04 0 0Zm1.238 1.157c0 .04.04 0 0 0Zm-.679-.638.04.04c-.04 0-.04-.04-.04-.04Z" fill="#CDD430"/><path d="M24.182 26.456c-.08-.04-.04-.08-.12-.08-.08-.08-.08-.16-.16-.239-.04 0-.08-.04-.12-.04-.039-.04-.039-.12-.119-.16v.04c-.04 0-.04-.04-.04-.04-.04 0 0-.04-.04-.04-.08-.04-.12-.159-.2-.199 0-.04-.079-.12-.119-.16v.04c-.04-.08-.08 0-.12-.08h.04c-.04 0-.04-.04-.04-.04-.04 0-.04.04-.08 0 0 0 .04.04 0 .04l-.08-.04-.04-.04c.04-.04-.039-.04 0-.04-.079-.079-.159-.119-.199-.199-.08 0-.12-.12-.16-.08-.04-.04-.04-.08-.079-.12v.04c0-.04-.04-.079-.04-.079 0 .04.04.08.04.12-.04-.04-.04-.08-.08-.12h-.04c0-.04-.04 0-.04-.04-.04-.04-.04-.08-.08-.12-.04 0-.04-.04-.04-.04l.04.04h-.08c-.04-.04 0-.04 0-.04-.04 0 0 0 0 .04-.04-.04-.08-.08-.08-.16-.039-.04-.039-.079-.079-.119-.04 0-.04-.08-.12-.08-.04 0 .04.04 0 .04-.04-.04 0-.08-.04-.08-.04-.04-.08-.08-.08-.12-.08 0-.119-.12-.199-.12.04 0 0-.039 0-.039v-.04c-.04 0-.04-.04-.04-.04l-.04-.04c.04.04 0 .04 0 .04-.04-.04 0-.08-.08-.12h-.04v-.04a.871.871 0 0 1-.199-.159c-.08-.08-.08-.16-.16-.24-.04 0-.08-.04-.12-.04-.04-.04-.04-.12-.119-.159v.04c-.04 0-.04-.04-.04-.04-.04 0 0-.04-.04-.04-.08-.04-.12-.16-.2-.2 0-.04-.079-.12-.119-.159v.04c-.04-.08-.08 0-.12-.08h.04c-.04 0-.04-.04-.04-.04-.04 0-.04.04-.08 0 0 0 .04.04 0 .04l-.08-.04-.04-.04c.04-.04-.04-.04 0-.04-.079-.08-.159-.12-.199-.2-.08 0-.12-.119-.16-.079-.04-.04-.04-.08-.08-.12v.04c0-.04-.039-.08-.039-.08 0 .04.04.08.04.12-.04-.04-.04-.08-.08-.12h-.04c0-.04-.04 0-.04-.04-.04-.04-.04-.08-.08-.12-.04 0-.04-.04-.04-.04l.04.04h-.08c-.04-.04 0-.04 0-.04-.04 0 0 0 0 .04-.04-.04-.08-.079-.08-.159-.04-.04-.04-.08-.079-.12-.04 0-.04-.08-.12-.08-.04 0 .04.04 0 .04-.04-.04 0-.08-.04-.08-.04-.04-.08-.08-.08-.119-.08 0-.12-.12-.199-.12.04 0 0-.04 0-.04v-.04c-.04 0-.04-.04-.04-.04l-.04-.04c.04.04 0 .04 0 .04-.04-.04 0-.08-.08-.12h-.04v-.039a.871.871 0 0 1-.199-.16c-.08-.08-.08-.16-.16-.239-.04 0-.08-.04-.12-.04-.04-.04-.04-.12-.119-.16v.04c-.04 0-.04-.04-.04-.04-.04 0 0-.04-.04-.04-.08-.04-.12-.16-.2-.199 0-.04-.08-.12-.119-.16v.04c-.04-.08-.08 0-.12-.08h.04c-.04 0-.04-.04-.04-.04-.04 0-.04.04-.08 0 0 0 .04.04 0 .04l-.08-.04-.04-.04c.04-.04-.04-.04 0-.04-.08-.079-.159-.119-.199-.199-.08 0-.12-.12-.16-.08-.04-.04-.04-.08-.08-.12v.04c0-.04-.04-.08-.04-.08 0 .04.04.08.04.12-.04-.04-.04-.08-.079-.12h-.04c0-.04-.04 0-.04-.04-.04-.039-.04-.079-.08-.119-.04 0-.04-.04-.04-.04l.04.04h-.08c-.04-.04 0-.04 0-.04-.04 0 0 0 0 .04-.04-.04-.08-.08-.08-.16-.04-.04-.04-.08-.08-.12-.039 0-.039-.079-.119-.079-.04 0 .04.04 0 .04-.04-.04 0-.08-.04-.08-.04-.04-.08-.08-.08-.12-.08 0-.12-.12-.199-.12.04 0 0-.04 0-.04v-.04c-.04 0-.04-.039-.04-.039l-.04-.04c.04.04 0 .04 0 .04-.04-.04 0-.08-.08-.12h-.04v-.04c0-.08-.08-.04-.04-.04s-.08-.08-.08-.08-.04-.119-.08-.08c0 0 0-.039-.079-.039h-.04v-.04c-.04-.04-.08 0-.12-.04.04 0 0-.04.04 0 0 0-.04-.04-.04 0l-.04-.04h-.08c0-.08-.119-.12-.119-.2-.04-.04-.08-.04-.12-.08-.04-.039-.04 0-.08-.039 0-.04.04 0 .04 0 .04-.04-.08-.04-.08-.08s-.08-.04-.12-.08a.304.304 0 0 1-.159-.08h.04s0 .04-.04 0v-.08l.04.04c0-.04-.04-.04-.04-.04-.04-.04-.08 0-.12-.079-.04 0 0-.04-.04-.04v-.04c-.04 0-.08-.04-.119-.08.04 0 .08.04.12.04l-.08-.04h.04c-.04 0-.08 0-.12-.04.04-.04-.08-.12-.08-.16-.08-.039-.12-.119-.2-.199 0 .08-.04 0-.04.04l-.039-.04.2.08c0-.04.04 0 .04 0-.04-.04 0-.04 0-.08h-.04v.04c-.08-.04 0-.08-.08-.12h.04c-.04 0-.12-.08-.16-.08 0 0 0-.04 0 0-.08-.08-.16-.119-.2-.159 0 0-.04 0-.04-.04 0 0-.04 0-.08-.04h.04c-.04-.08-.12-.08-.199-.12.04-.04 0-.08-.04-.12-.08-.079-.16-.079-.24-.159 0-.04-.079-.12-.159-.2h-.04v-.04c-.04-.04-.08 0-.12-.04.04 0 0-.039.04 0 0 0-.04-.039-.04 0l-.04-.039h-.08c0-.08-.119-.12-.119-.2-.04-.04-.08-.04-.12-.08-.04-.04-.04 0-.08-.04 0-.04.04 0 .04 0 .04-.04-.08-.04-.08-.079 0-.04-.08-.04-.119-.08-.04 0-.12-.04-.16-.08h.04s0 .04-.04 0v-.08l.04.04c0-.04-.04-.04-.04-.04-.04-.04-.08 0-.12-.08-.04 0 0-.04-.04-.04v-.04c-.04 0-.08-.039-.119-.079.04 0 .08.04.12.04l-.08-.04h.04c-.04 0-.08 0-.12-.04.04-.04-.08-.12-.08-.16-.08-.04-.12-.12-.2-.199 0 .08-.04 0-.04.04l-.039-.04-.08-.12c0-.04.04 0 .04 0-.04-.04 0-.04 0-.08h-.04v.04c-.08-.04 0-.08-.08-.12h.04c-.04 0-.12-.079-.16-.079 0 0 0-.04 0 0-.08-.08-.159-.12-.199-.16 0 0-.04 0-.04-.04 0 0-.04 0-.08-.04h.04c-.04-.08-.12-.08-.2-.12.04-.04 0-.079-.04-.119-.079-.08-.159-.08-.239-.16 0-.04-.08-.12-.16-.199h-.039v-.04c-.04-.04-.08 0-.12-.04.04 0 0-.04.04 0 0 0-.04-.04-.04 0l-.04-.04h-.08c0-.08-.12-.12-.12-.2-.04-.04-.079-.04-.119-.08-.04-.039-.04 0-.08-.039 0-.04.04 0 .04 0 .04-.04-.08-.04-.08-.08s-.08-.04-.12-.08a.3.3 0 0 1-.159-.08h.04s0 .04-.04 0v-.08l.04.04c0-.04-.04-.04-.04-.04-.04-.04-.08 0-.12-.079-.04 0 0-.04-.04-.04v-.04c-.04 0-.08-.04-.12-.08.04 0 .08.04.12.04l-.08-.04h.04c-.04 0-.08 0-.12-.04.04-.04-.079-.12-.079-.16-.08-.04-.12-.119-.2-.199 0 .08-.04 0-.04.04l-.04-.04-.08-.16c0-.04.04 0 .04 0-.04-.04 0-.04 0-.08h-.04v.04c-.079-.04 0-.079-.079-.119h.04c-.04 0-.12-.08-.16-.08 0 0 0-.04 0 0-.08-.08-.16-.12-.2-.16 0 0-.04 0-.04-.04 0 0-.039 0-.079-.04h.04c-.04-.079-.12-.04-.16-.119-.04 0-.04-.04-.12 0V1.835L0 12.49l7.582 11.732v-12.29l9.058 8.459v17.797L24.182 50V26.456Z" fill="#CDD430"/><path d="M24.182 0v14.246L39.426 0H24.182Z" fill="#B1618D"/><path d="M24.182 14.246V0H8.898l15.284 14.246Z" fill="#D4DB62"/><path d="M24.182 14.246V3.073L8.898 0l15.284 14.246Z" fill="#C4CA2F"/><path d="M24.182 14.246V3.073L39.426 0 24.182 14.246Z" fill="#B13675"/><path d="m16.64 20.391 7.542 29.61-7.542-11.813V20.391Z" fill="#C1C724"/><path d="M31.684 20.391v17.797L24.182 50l7.502-29.609Z" fill="#A13069"/><path d="m0 12.49 7.582-1.357V1.835L0 12.49Z" fill="#DCE329"/><path d="m48.324 12.49-7.582-1.357V1.835l7.582 10.655Z" fill="#B14A80"/><path d="M83.679 42.617h-.28l-1.276-3.032c-.16-.4-.36-.878-.52-1.357h-.039c.04.718.04 1.357.04 1.955v2.474h-.599V37.51h.878l1.197 2.873c.12.32.28.718.44 1.197.199-.519.319-.918.438-1.197l1.197-2.873h.878v5.068h-.638v-2.475c0-.558 0-1.236.04-1.955h-.04c-.2.519-.36.958-.519 1.357l-1.197 3.112Zm5.746-.399-.2.2c-.08.04-.16.12-.239.16-.08.04-.2.08-.32.12-.119.04-.239.04-.358.04-.16 0-.32-.04-.48-.08a.581.581 0 0 1-.358-.24.942.942 0 0 1-.24-.36 1.992 1.992 0 0 1-.08-.478c0-.2.04-.36.08-.479.08-.16.16-.28.28-.36.12-.079.239-.159.438-.239.16-.04.36-.08.56-.08.199 0 .358 0 .518.04.16.04.32.08.439.12v-.558c0-.08-.04-.16-.08-.2-.08-.12-.16-.24-.32-.32a1.338 1.338 0 0 0-.598-.119c-.2 0-.359 0-.519.04-.16.04-.319.08-.478.16v-.48c.08-.04.12-.04.2-.079.079-.04.159-.04.278-.08.08 0 .2-.04.28-.04h.319c.36 0 .678.08.878.2.24.12.399.319.519.518.04.08.08.16.08.28 0 .08.04.2.04.32v2.393h-.48l-.16-.399Zm-.04-1.197c-.12-.04-.24-.04-.399-.08-.16-.04-.32-.04-.479-.04-.24 0-.439.04-.598.16-.16.12-.2.28-.2.479 0 .12 0 .2.04.28.04.08.08.159.16.199.08.04.12.08.2.12.079.04.159.04.278.04.12 0 .24 0 .36-.04s.2-.08.279-.12a.87.87 0 0 0 .2-.16c.04-.04.12-.08.12-.12v-.718h.039Zm1.517-.199c0-.24.04-.479.08-.678.04-.2.12-.36.2-.52.079-.159.159-.279.278-.358.12-.08.24-.16.32-.24.08-.08.24-.12.359-.12.12-.04.24-.04.359-.04.24 0 .4.04.559.12.16.08.319.2.439.32V37.11h.598v5.507h-.439l-.12-.4c-.04.04-.08.12-.16.16-.079.04-.119.12-.199.16-.08.04-.16.08-.279.12-.12.04-.24.04-.36.04-.199 0-.398-.04-.598-.12-.2-.08-.359-.16-.518-.32a1.68 1.68 0 0 1-.36-.558c-.12-.24-.16-.519-.16-.878Zm.638 0c0 .2.04.399.08.559.04.16.12.319.2.438.08.12.2.2.319.28.12.08.28.08.439.08.12 0 .24 0 .32-.04.119-.04.199-.08.278-.12.08-.04.16-.12.2-.16.04-.04.12-.12.12-.16v-1.875c-.12-.12-.28-.24-.44-.279a1.1 1.1 0 0 0-.518-.12c-.12 0-.24.04-.36.08a.939.939 0 0 0-.358.24c-.12.12-.2.239-.28.439.04.12 0 .359 0 .638Zm5.467 1.357c.2 0 .36 0 .519-.04l.479-.12v.479c-.12.08-.28.12-.48.16-.199.04-.398.04-.598.04-.24 0-.519-.04-.718-.08-.24-.08-.44-.16-.599-.32a2.01 2.01 0 0 1-.399-.558c-.08-.24-.16-.519-.16-.838 0-.32.04-.599.12-.838.08-.24.2-.44.36-.599a1.52 1.52 0 0 1 1.117-.479c.2 0 .399.04.559.12.16.08.319.16.439.32.12.159.239.319.319.558.08.24.12.519.12.838v.24H95.61a1.333 1.333 0 0 0 .4.997c.12.12.279.16.438.2.2-.08.36-.08.559-.08Zm-.32-2.794a.945.945 0 0 0-.358.08c-.12.04-.2.12-.32.2-.12.08-.16.2-.2.319-.04.12-.079.24-.119.399h1.836c0-.16 0-.28-.04-.4-.04-.119-.08-.238-.16-.318a.717.717 0 0 0-.28-.2.797.797 0 0 0-.358-.08Zm4.071-1.237v-.638h.598v.638h-.598Zm0 4.47v-3.592h.598v3.591h-.598Zm2.354-3.113.24-.24c.08-.079.159-.119.279-.199.08-.04.2-.08.319-.12.12-.04.24-.04.399-.04.16 0 .32.04.479.08.16.04.28.12.359.24.12.12.2.24.24.399.04.16.08.36.08.599v2.434h-.599v-2.315c0-.319-.08-.519-.2-.678a.687.687 0 0 0-.518-.2c-.2 0-.399.04-.599.16a1.39 1.39 0 0 0-.479.479v2.554h-.598v-3.592h.439l.159.44Zm5.786 3.112h-.638V37.51h3.032v.558h-2.394v1.637h2.155v.558h-2.155v2.355Zm5.188-3.152h-.04c-.119 0-.279 0-.399.04-.119.04-.279.08-.359.12a.867.867 0 0 0-.319.199c-.08.08-.16.16-.24.28v2.513h-.598v-3.591h.439l.12.559c.039-.08.119-.2.199-.28.08-.08.2-.16.279-.2.12-.079.24-.119.36-.159.119-.04.279-.04.399-.04h.159v.559Zm.2-.479h.598l1.118 2.834h.039l1.158-2.834h.598l-2.234 5.387h-.639l.758-1.835-1.396-3.552Zm6.304 3.233-.199.2c-.08.04-.16.119-.24.159-.079.04-.199.08-.319.12-.12.04-.239.04-.359.04-.16 0-.319-.04-.479-.08a.583.583 0 0 1-.359-.24.938.938 0 0 1-.239-.359c-.04-.16-.08-.32-.08-.479 0-.2.04-.359.08-.478.04-.12.159-.28.279-.36.12-.08.239-.16.439-.24.16-.039.359-.079.559-.079.199 0 .359 0 .518.04.16.04.32.08.439.12v-.559c0-.08-.04-.16-.08-.2-.079-.12-.159-.239-.319-.319a1.33 1.33 0 0 0-.598-.12c-.2 0-.359 0-.519.04-.16.04-.319.08-.479.16v-.479c.08-.04.12-.04.2-.08.079-.04.159-.04.279-.08.08 0 .199-.04.279-.04h.319c.36 0 .679.08.878.2.2.12.399.32.519.519.04.08.08.16.08.28 0 .08.04.199.04.319v2.394h-.479l-.16-.4Zm-.04-1.197c-.119-.04-.239-.04-.399-.08-.159-.04-.319-.04-.478-.04-.24 0-.439.04-.599.16-.16.12-.2.279-.2.478 0 .12 0 .2.04.28.04.08.08.16.16.2.08.04.12.08.2.119.079.04.159.04.279.04.12 0 .239 0 .359-.04s.2-.08.279-.12a.87.87 0 0 0 .2-.16c.04-.04.12-.08.12-.12v-.717h.039Zm3.472-1.517h-1.995v-.519h2.713v.36l-1.995 2.713h2.155v.519h-2.913v-.28l2.035-2.793Zm1.716-1.357v-.638h.598v.638h-.598Zm.04 4.47v-3.592h.598v3.591h-.598Zm2.314-3.113.24-.24c.079-.08.159-.12.279-.2.08-.039.199-.079.319-.119.12-.04.24-.04.399-.04.16 0 .319.04.479.08.16.04.279.12.359.24.12.12.2.239.24.398.04.16.079.36.079.6v2.433h-.598v-2.314c0-.32-.08-.519-.2-.679-.119-.16-.279-.2-.518-.2-.2 0-.399.04-.599.16-.199.12-.359.28-.479.48v2.553h-.598v-3.591h.439l.159.439Zm6.784 1.277c0 .28-.04.559-.12.758a1.5 1.5 0 0 1-.359.599 2.53 2.53 0 0 1-.519.399c-.199.08-.439.12-.718.12-.279 0-.519-.04-.718-.12-.2-.08-.399-.24-.559-.4a1.511 1.511 0 0 1-.359-.598c-.08-.24-.12-.479-.12-.758 0-.28.04-.559.12-.798.08-.24.2-.439.359-.599a2 2 0 0 1 .559-.399c.199-.08.439-.12.718-.12.279 0 .519.04.718.12.2.08.399.24.559.4.16.16.279.359.319.598.08.28.12.519.12.798Zm-.638 0c0-.24-.04-.439-.08-.598a.95.95 0 0 0-.24-.44c-.08-.12-.199-.199-.359-.279-.159-.08-.279-.08-.439-.08-.159 0-.319.04-.439.08-.119.04-.239.16-.359.28-.08.12-.16.279-.239.439-.04.16-.08.359-.08.598 0 .24.04.4.08.599.04.16.119.319.239.439.08.12.2.2.359.279.12.08.28.08.439.08.16 0 .319-.04.439-.08.12-.08.24-.16.359-.28.08-.12.16-.279.24-.438.08-.16.08-.36.08-.599Z" fill="#434343"/></g><defs><clipPath id="a"><path fill="#fff" d="M0 0h156.864v50H0z"/></clipPath></defs></svg>