<svg width="36" height="50" fill="none" xmlns="http://www.w3.org/2000/svg"><g clip-path="url(#a)" fill="#12020A"><path d="M27.992 12.595c1.73 1.143 2.315 2.315 1.98 3.877-.32 1.478-1.422 2.385-3.249 2.65-.098.46-.167.934-.293 1.408-.614 2.343-1.925 4.198-3.989 5.454-.641.39-.878.809-.655 1.534a4.61 4.61 0 0 1 2.51 1.674c.335.432 1.52.557 1.98.279a2.463 2.463 0 0 1 3.599 1.199c.125.335.32.474.628.614 2.9 1.325 4.49 3.584 4.574 6.764.084 3.64.028 7.28.014 10.906 0 .74-.307 1.019-1.06 1.019H1.256c-1.004 0-1.242-.237-1.242-1.214 0-3.445-.013-6.89 0-10.335.014-3.43 1.618-5.843 4.756-7.238.168-.07.321-.251.39-.419.656-1.603 2.372-2.147 3.836-1.199.154.098.419.126.614.084a3.094 3.094 0 0 0 1.674-.949c.544-.571 1.325-.906 1.994-1.338l.112.111c0-.279.028-.558-.014-.823a.6.6 0 0 0-.21-.362c-2.761-1.576-4.323-3.947-4.741-7.085 0-.028-.028-.056-.042-.098-1.98-.349-2.999-1.241-3.292-2.887-.25-1.423.447-2.692 1.883-3.543-.07-.725-.21-1.38-.153-2.022.055-.753.544-1.325 1.213-1.646.307-.153.363-.348.363-.655-.014-1.06-.014-2.12 0-3.18C8.369 3.04 9.736 1.409 11.855.99c1.52-.293 3.027-.656 4.547-.907A7.026 7.026 0 0 1 18.564.07c1.618.251 3.208.6 4.812.935 1.98.418 3.333 2.064 3.36 4.1.015 1.116-.013 2.232.015 3.347 0 .168.111.405.25.488 1.354.823 1.744 2.05 1.089 3.473-.042.056-.07.126-.098.182ZM8.355 48.285h18.368c0-1.925 0-3.821-.014-5.718 0-.112-.084-.28-.181-.321-.935-.46-1.409-1.241-1.506-2.26H10.027c-.097 1.033-.571 1.8-1.492 2.26-.098.042-.181.21-.181.307v5.732ZM25.147 13.78c-1.925-.349-3.724-.641-5.51-.99-1.31-.251-2.621-.293-3.932-.056-1.116.195-2.218.405-3.334.614-.78.14-1.548.293-2.343.446v4.491c.028 3.877 2.915 7.03 6.848 7.462 3.668.404 7.295-2.148 7.964-5.872.349-1.98.223-4.03.307-6.095ZM10.042 8.438c2.525-.306 5.021-.836 7.518-.836 2.496 0 4.979.53 7.475.822 0-.013.014-.041.014-.07 0-.99.014-1.98 0-2.97 0-1.562-.739-2.469-2.26-2.79-1.394-.292-2.789-.585-4.197-.836-.502-.098-1.046-.182-1.548-.098-1.716.293-3.417.656-5.105 1.018-1.032.223-1.84 1.074-1.897 2.106-.055 1.228 0 2.469 0 3.654Zm4.993 18.648v4.198c0 .14.084.293.14.432a379.96 379.96 0 0 0 2.148 4.282c.055.111.14.209.237.362a760.672 760.672 0 0 0 2.399-4.825.522.522 0 0 0 .07-.251v-4.212c-1.66.46-3.278.474-4.994.014ZM1.772 43.264h5.007c-.126-.39-.126-.879-.349-1.018-1.004-.6-1.45-1.437-1.436-2.594.014-2.05 0-4.115 0-6.165v-.572c-1.8.935-3.013 2.288-3.194 4.198-.168 2.023-.028 4.073-.028 6.151ZM30.07 32.915v6.946c0 .92-.32 1.73-1.13 2.148-.641.335-.571.753-.516 1.269h4.98c0-1.158.014-2.287 0-3.417-.014-.92.027-1.855-.126-2.748-.307-1.896-1.409-3.263-3.208-4.198ZM17.546 9.122c0 .042-.014.07-.014.111-.195 0-.39-.028-.572 0-2.608.363-5.23.74-7.838 1.13-.558.084-.837.53-.74 1.004.14.614.559.907 1.2.795a295.3 295.3 0 0 0 4.77-.878c1.604-.307 3.222-.558 4.867-.265 2.065.376 4.129.739 6.207 1.13.39.069.767.069 1.046-.28.53-.655.237-1.394-.614-1.534a277.73 277.73 0 0 0-3.347-.516c-1.66-.237-3.305-.46-4.965-.697Zm-7.476 26.22v2.929h6.527c-.53-1.046-1.018-2.05-1.45-2.9-.418.152-.767.39-1.102.376-.474-.028-.641-.433-.697-.893-.056-.446-.363-.711-.823-.711-.46 0-.697.293-.837.725-.098.307-.25.655-.502.837-.418.279-.795-.028-1.116-.363Zm14.965.154c-.334.083-.697.279-1.018.237-.446-.056-.585-.447-.641-.893-.056-.446-.363-.725-.823-.725-.46 0-.767.265-.81.725-.055.446-.194.85-.64.879-.35.028-.712-.21-1.158-.363-.433.865-.92 1.855-1.437 2.887h6.541c-.014-.962-.014-1.91-.014-2.747ZM1.702 48.285h4.951v-3.278h-4.95v3.278Zm26.722 0h4.952v-3.278h-4.951v3.278ZM8.354 35.802v-3.974c0-.67-.306-1.046-.822-1.046-.516-.015-.85.376-.85 1.032v7.935c0 .67.306 1.046.822 1.046.53.014.85-.39.85-1.087v-3.906Zm18.383-.014v3.975c0 .656.32 1.046.837 1.046.516 0 .837-.39.837-1.046v-7.935c0-.656-.321-1.046-.837-1.046s-.837.376-.837 1.046v3.96Zm.028-21.701v3.291c.976-.083 1.632-.767 1.632-1.66 0-.878-.67-1.561-1.632-1.631ZM8.34 14.1c-.81-.084-1.716.753-1.66 1.743.056.837.893 1.66 1.66 1.52V14.1Zm3.389 18.396h1.604V29.33c-1.2.335-1.771 1.478-1.604 3.166Zm10.014 0h1.618c.153-1.73-.433-2.873-1.618-3.152v3.152Z"/><path d="M15.873 15.718a1.673 1.673 0 0 1-1.632 1.688 1.692 1.692 0 0 1-1.701-1.618 1.667 1.667 0 0 1 1.66-1.716c.906-.013 1.66.74 1.673 1.646Zm5.005-1.646c.907 0 1.66.74 1.674 1.646a1.676 1.676 0 0 1-1.688 1.688 1.682 1.682 0 0 1-1.646-1.674c0-.92.753-1.66 1.66-1.66Zm-.584 7.294c-1.604 1.395-3.933 1.395-5.482 0 .35-.39.698-.795.977-1.102.641.181 1.185.447 1.743.447s1.116-.265 1.8-.447c.236.265.585.67.962 1.102Z"/></g><defs><clipPath id="a"><path fill="#fff" d="M0 0h35.105v50H0z"/></clipPath></defs></svg>