<svg width="35" height="50" fill="none" xmlns="http://www.w3.org/2000/svg"><g clip-path="url(#a)" fill="#00171F"><path d="M22.73 0c.714.548.743.969.117 1.624-.225.235-.44.48-.685.695-.362.313-.822.284-1.135-.049-.294-.313-.333-.753-.03-1.106.363-.41.754-.782 1.136-1.174.205.01.4.01.596.01ZM10.45 6.037c.793-.743 1.546-1.409 2.26-2.123.989-.998 2.075-1.429 3.425-.783.118.059.313 0 .45-.058 1.889-.695 3.748.02 4.658 1.81.41.812.372 1.644.059 2.456a19.39 19.39 0 0 1-.91 2.045c-1.243 2.397-.861 4.628.831 6.604 1.018 1.194 2.133 2.349 3.376 3.298 3.21 2.456 5.391 5.597 6.79 9.334a18.19 18.19 0 0 1 1.087 7.818c-.216 2.75.146 5.411.93 8.043.254.852.508 1.723.665 2.593.273 1.517-.793 2.809-2.339 2.907-.127.01-.264.01-.391.01H19.824c-1.644 0-2.573-.813-2.77-2.447-.048-.43-.293-.685-.635-.92-4.286-2.925-8.552-5.87-12.838-8.786-1.409-.95-2.103-2.172-1.722-3.895.02-.107-.078-.303-.186-.371-1.38-.842-2.152-2.496-1.34-4.433.176-.43.274-.91.48-1.33.674-1.351.606-2.73.44-4.198-.255-2.27-.304-4.57-.402-6.86-.039-.91.362-1.663.97-2.328.508-.548.997-1.116 1.525-1.644.294-.294.421-.607.411-1.037a603.2 603.2 0 0 1-.01-7.368c.02-1.536.95-2.622 2.388-2.671a4.106 4.106 0 0 1 4.208 3.454c.039.254.058.518.107.88Zm2.564 10.656c.607 0 1.194-.05 1.77.01.46.049.98.107 1.341.352a100.982 100.982 0 0 1 4.619 3.268c.91.675 1.096 1.85.567 2.857-.058.108-.117.215-.186.333.44.332.871.626 1.263.959a2.294 2.294 0 0 1 .489 2.886c-.93 1.615-2.936 2.466-4.707 1.85-.92-.323-1.722-.95-2.593-1.42-.254-.136-.528-.293-.802-.312-.793-.04-1.595-.02-2.387-.01-.411 0-.744.176-.871.577-.313.979-.656 1.947-.871 2.936-.274 1.252 0 1.859.88 2.387.51.303.676.744.44 1.174-.244.44-.684.538-1.232.294-1.301-.607-1.937-1.8-1.83-3.308.098-1.38.538-2.67 1.008-3.953.43-1.174 1.262-1.751 2.524-1.77.744-.01 1.498 0 2.251 0 .616 0 1.184.166 1.703.518.596.401 1.174.812 1.8 1.155 1.027.557 2.31.264 3.033-.646.44-.558.401-.871-.186-1.292-1.164-.841-2.328-1.663-3.493-2.505-.548-.4-1.154-.567-1.83-.567-2.015.01-4.03 0-6.056 0-1.4 0-2.221.577-2.691 1.888-1.125 3.17-2.24 6.34-3.356 9.511-.43 1.223-.225 1.83.851 2.573 4.266 2.926 8.523 5.852 12.798 8.768.803.547 1.321 1.223 1.42 2.21.068.705.351.92 1.066.92H31.36c.871 0 1.214-.45.998-1.29-.205-.774-.4-1.537-.626-2.3-.753-2.535-1.174-5.108-.959-7.75.264-3.327-.225-6.516-1.702-9.53-1.243-2.544-2.838-4.805-5.147-6.517-1.693-1.252-3.21-2.7-4.433-4.432-1.31-1.86-1.888-3.895-1.242-6.125.274-.93.734-1.8 1.105-2.701.167-.42.362-.842.47-1.282.166-.675-.225-1.154-.714-1.546-.5-.391-1.067-.49-1.683-.293.02.107.02.156.039.195.734 1.918.381 3.513-1.106 4.922-.998.95-2.006 1.898-3.004 2.857-.127.127-.264.303-.293.47-.196 1.203-.274 2.397-.05 3.679ZM2.68 22.133c.04 0 .088.01.127.01.284-.793.578-1.575.852-2.368.538-1.585 1.555-2.632 3.219-3.004.117-.03.225-.186.303-.303.245-.392.392-.871.714-1.165 2.437-2.299 4.922-4.55 7.349-6.849.381-.362.685-.87.86-1.37.314-.851-.029-1.634-.547-2.319-.323-.43-.93-.352-1.458.137-2.094 1.957-4.198 3.895-6.262 5.871-1.605 1.546-3.151 3.141-4.726 4.716-.392.392-.636.852-.607 1.439l.176 5.205Zm-.186 9.932c.069-.186.147-.362.206-.538.91-2.574 1.81-5.147 2.72-7.72.704-1.987 2.153-3.005 4.246-3.005 1.997 0 4.002.01 5.998-.01 1.096-.01 2.085.294 2.956.95.362.274.733.528 1.105.792.274-.557.225-.763-.264-1.105a224.457 224.457 0 0 0-3.982-2.808 1.503 1.503 0 0 0-.813-.255c-2.309-.02-4.618-.02-6.927-.01-1.135.01-2.016.587-2.397 1.664a934.452 934.452 0 0 0-3.552 10c-.304.87-.069 1.506.704 2.045Zm2.955-21.34C6.566 9.676 7.603 8.708 8.63 7.73c.079-.078.108-.235.118-.352.01-.519.029-1.047-.01-1.566-.078-1.252-.9-2.22-2.035-2.407-.91-.147-1.282.167-1.282 1.077v5.704c0 .147.02.284.03.538Zm5.842 5.948c-.04-.714-.069-1.37-.108-2.113-.802.724-1.536 1.38-2.348 2.113h2.456ZM24.04 5.382c-.518-.03-.831-.206-.929-.627-.108-.43.04-.792.46-.949.42-.166.861-.293 1.301-.372.411-.078.724.137.881.529.147.381 0 .831-.382.988-.46.196-.949.313-1.33.43Z"/><path d="M23.444 7.397c.333.108.822.216 1.282.421.381.167.509.529.372.95-.137.42-.46.626-.862.557a5.928 5.928 0 0 1-1.35-.391c-.401-.157-.538-.519-.44-.93.107-.41.401-.607.998-.607Zm.245 35c0 .47-.304.832-.734.881-.44.04-.852-.206-.89-.646-.148-1.976-1.478-3.102-2.966-4.031-1.174-.734-2.475-1.272-3.718-1.889-.156-.078-.342-.127-.48-.225-.332-.254-.46-.587-.273-.988.176-.391.518-.626.9-.48 2.867 1.057 5.587 2.34 7.388 4.971.498.695.743 1.527.773 2.407Zm2.291-5.783c-2.026-.088-3.621-1.056-5-2.456a12.938 12.938 0 0 1-.96-1.105c-.342-.421-.303-.92.05-1.223.361-.314.821-.245 1.212.137.754.733 1.488 1.497 2.3 2.152.704.568 1.595.773 2.505.832.704.039 1.086.587.841 1.154-.176.431-.528.548-.949.51Z"/></g><defs><clipPath id="a"><path fill="#fff" d="M0 0h34.119v50H0z"/></clipPath></defs></svg>