<svg width="50" height="32" fill="none" xmlns="http://www.w3.org/2000/svg"><path d="M49.992 17.618c0-2.05-1.212-3.591-3.207-4.14-.144-.039-.313-.183-.352-.313-.418-1.62-.822-3.24-1.2-4.754.222-.327.508-.549.535-.81.365-2.834-1.435-4.323-3.56-4.27-1.67.039-3.351.012-5.02.012-.17 0-.352-.013-.561-.026V1.972c0-1.384-.587-1.959-1.956-1.959C24.891 0 15.1 0 5.307 0 3.95 0 3.35.6 3.35 1.972v13.44c0 .143-.013.3.013.443.052.457.378.77.809.758.43-.013.717-.327.756-.797.013-.144 0-.287 0-.444V1.593h30.146v13.792c0 .144-.013.3 0 .444.04.483.378.81.822.784.43-.026.717-.34.73-.81.013-.274 0-.536 0-.836 3.234 0 6.402-.026 9.57.013.979.013 1.878.862 2.022 1.737-.756 0-1.5-.013-2.243 0-.587.013-.873.288-.886.862a32.77 32.77 0 0 0 0 1.659c.039 1.293 1.03 2.311 2.32 2.364.326.013.64 0 .978 0v3.474c-.521 0-1.03-.026-1.525.013-.365.026-.535-.105-.678-.444-1.004-2.207-3.364-3.357-5.685-2.769-1.578.405-2.686 1.384-3.377 2.86-.066.13-.235.21-.352.314-.053-.131-.144-.275-.144-.405-.013-.614-.013-1.241-.013-1.855 0-1.188.013-2.377 0-3.565-.013-.68-.665-1.11-1.147-.719-.222.183-.379.575-.392.875-.039 1.711-.013 3.422-.013 5.133v.536c-.143.013-.221.026-.3.026-5.19 0-10.379 0-15.568.013-.274 0-.392-.105-.496-.353-.887-1.933-2.412-2.99-4.524-2.99-2.139-.014-3.664 1.07-4.564 3.003-.117.248-.235.34-.509.34-.847-.013-1.695 0-2.542 0H4.942v-1.79h.56c.926 0 1.852.014 2.778-.012.47-.014.795-.327.808-.745.013-.418-.287-.744-.756-.797-.078-.013-.156-.013-.248-.013h-7.08c-.456 0-.782.17-1.004.562v.483c.235.405.587.549 1.056.523.743-.027 1.487-.014 2.269-.014 0 .275.013.484 0 .693-.143 2.233.587 2.782 2.634 2.677.913-.052 1.825-.013 2.738-.013.157 0 .313.013.457.026.156 3.043 2.32 4.767 4.55 4.976a4.72 4.72 0 0 0 3.195-.836c1.447-.992 2.138-2.403 2.216-4.127h17.577c.209 3.33 2.673 4.846 4.694 4.963a4.806 4.806 0 0 0 3.208-.953c1.343-.993 1.982-2.364 2.06-4.049h2.282c.77 0 1.03-.261 1.03-1.019.04-2.664.04-5.341.026-8.006ZM36.666 4.937c.13-.013.235-.026.352-.026 1.826 0 3.638-.013 5.464 0 1.03.013 1.747.718 1.747 1.75h-7.55c-.013-.575-.013-1.136-.013-1.724Zm8.15 8.424h-8.15V8.306c.13-.013.248-.039.365-.039h6.142c.234 0 .417 0 .495.314.365 1.528.757 3.056 1.135 4.584.026.052.013.104.013.196Zm3.585 6.647c-1.473.222-1.877-.182-1.695-1.697h1.695v1.697Zm-34.24 10.096c-1.852 0-3.39-1.528-3.39-3.383-.014-1.88 1.551-3.434 3.416-3.408 1.864.026 3.377 1.554 3.364 3.408-.013 1.855-1.539 3.383-3.39 3.383Zm27.564 0c-1.851.013-3.39-1.502-3.416-3.37-.026-1.867 1.526-3.434 3.403-3.421 1.852 0 3.39 1.528 3.39 3.382 0 1.855-1.525 3.396-3.377 3.409Z" fill="#00171F"/><path d="M26.81 7.631a2.232 2.232 0 0 0-.326.287c-1.434 1.435-2.882 2.87-4.316 4.318-.808.809-1.617 1.63-2.451 2.465-.17-.156-.3-.274-.418-.404l-3.142-3.144c-.26-.26-.587-.443-.913-.222-.222.144-.443.43-.456.666-.013.248.182.548.365.743a353.534 353.534 0 0 0 3.82 3.835c.561.561.913.561 1.487-.013l7.106-7.11c.117-.116.235-.234.313-.364.196-.34.156-.666-.117-.94-.287-.26-.613-.313-.952-.117Zm-5.658 14.127c-.378.091-.574.379-.574.757.013.391.235.678.652.743.157.027.326.013.482.013h11.123c.626 0 .978-.287.978-.77 0-.482-.365-.782-.965-.795H21.726c-.183 0-.379 0-.574.052ZM3.196 19.933h9.649c.587 0 .939-.287.952-.757.013-.47-.365-.809-.952-.809H3.196c-.6 0-.978.313-.965.796-.013.483.352.77.965.77ZM42.21 25.06c-.9.012-1.604.73-1.591 1.63.013.887.756 1.617 1.63 1.604a1.626 1.626 0 0 0 1.59-1.643 1.606 1.606 0 0 0-1.63-1.592Zm-27.526 0c-.9 0-1.617.73-1.617 1.617 0 .874.757 1.617 1.63 1.617.887 0 1.604-.73 1.604-1.63a1.606 1.606 0 0 0-1.617-1.605Z" fill="#00171F"/></svg>