<svg width="50" height="50" fill="none" xmlns="http://www.w3.org/2000/svg"><path d="M26.595 26.942a5.15 5.15 0 0 0 3.65-1.507 5.119 5.119 0 0 0 1.512-3.646 5.12 5.12 0 0 0-1.512-3.647 5.173 5.173 0 0 0-7.3 0 5.12 5.12 0 0 0-1.512 3.647 5.12 5.12 0 0 0 1.512 3.646 5.149 5.149 0 0 0 3.65 1.507Zm-2.746-7.895a3.874 3.874 0 0 1 2.746-1.134c.995 0 1.99.378 2.746 1.134a3.849 3.849 0 0 1 1.138 2.742 3.849 3.849 0 0 1-1.138 2.74 3.892 3.892 0 0 1-5.492 0 3.848 3.848 0 0 1-1.137-2.74 3.85 3.85 0 0 1 1.137-2.742Zm7.501-3.34a.638.638 0 0 0 .451-.187l3.234-3.229c.585-.584-.318-1.489-.903-.905l-3.235 3.23c-.38.379-.085 1.091.452 1.091Zm1.657 1.921c.302.25.603.25.904.001l3.235-3.229c.585-.584-.319-1.489-.904-.905l-3.234 3.23a.64.64 0 0 0 0 .903Z" fill="#12020A"/><path d="M46.569 36.586h-2.125l-.013-6.405a.64.64 0 0 0-.64-.638l-10.844-.003 14.087-14.067c.25-.301.25-.603 0-.905l-13.21-13.19a.64.64 0 0 0-.903 0l-5.247 5.239c-.585.584.319 1.489.904.905l4.795-4.789 12.305 12.288-14.533 14.512h-1.572l12.517-12.49c.25-.302.25-.604 0-.905a1.567 1.567 0 0 1-.463-1.117c0-.422.165-.818.463-1.117.25-.301.25-.603 0-.905l-6.694-6.685a.64.64 0 0 0-.904 0 1.586 1.586 0 0 1-2.238 0 .64.64 0 0 0-.904 0L11.099 26.535c-.25.302-.25.604 0 .905.299.299.463.695.463 1.117 0 .359-.12.7-.34.977l-2.733-.001-.978-.976L26.177 9.919c.585-.584-.319-1.489-.904-.905L6.155 28.104c-.25.302-.25.604 0 .905l.525.524H4.21c-.323 0-.64.325-.639.64l.014 6.977a.64.64 0 0 0 .64.638h2.124l.013 6.405a.64.64 0 0 0 .64.638l21.478.01c.796 0 .871-1.283 0-1.283l-8.68-.002v-5.698l13.97.003v5.698h-1.444c-.842 0-.842 1.282 0 1.282h14.257c.323 0 .64-.325.64-.64l-.015-6.977a.64.64 0 0 0-.64-.638Zm-29.545-5.771 12.78.003h1.189v5.698l-13.97-.003v-5.698Zm26.141 5.705-10.893-.003v-1.119h10.89l.003 1.122Zm-.01-4.587h-3.91c-.827 0-.827 1.28 0 1.28h3.913l.002.906H32.272v-.907h4.18c.826 0 .826-1.279 0-1.279h-4.18V30.82l10.882.003.002 1.111Zm-30.75-4.895L31.852 7.62c.927.58 2.115.58 3.041 0l5.891 5.882a2.838 2.838 0 0 0-.436 1.519c0 .545.152 1.068.436 1.518L27.762 29.534H21.99l.437-.435c.585-.584-.317-1.49-.903-.906l-1.346 1.34h-2.411l2.549-2.544c.585-.584-.319-1.489-.904-.905l-3.234 3.23a.637.637 0 0 0-.145.222H12.67a2.86 2.86 0 0 0 .17-.978c0-.545-.151-1.068-.435-1.518Zm-7.544 8.36h8.742c.827 0 .827-1.279 0-1.279H4.858l-.002-.907h1.916c.827 0 .827-1.279 0-1.279H4.854l-.003-1.121 10.894.003v1.118H9.504c-.827 0-.827 1.28 0 1.28h6.24v3.3l-10.88-.003-.002-1.112Zm2.779 8.154-.002-1.111h3.91c.828 0 .828-1.28 0-1.28H7.636l-.002-.906h10.889v.907h-4.18c-.827 0-.827 1.279 0 1.279h4.18v1.114L7.64 43.552Zm10.882-4.576H7.63l-.003-1.121 10.894.002v1.12Zm16.527 4.583v-1.118h6.24c.827 0 .827-1.28 0-1.28h-6.24v-3.3l10.882.004.002 1.111H37.19c-.826 0-.826 1.279 0 1.279h8.745l.002.907h-1.916c-.827 0-.827 1.279 0 1.279h1.919l.002 1.121-10.893-.003Z" fill="#12020A"/></svg>