<svg width="21" height="20" fill="none" xmlns="http://www.w3.org/2000/svg"><g clip-path="url(#a)" fill="#fff"><path d="m16.311 20-1.435-.485c-2.83-.965-5.339-2.478-7.577-4.457-2.312-2.038-4.213-4.404-5.594-7.172C1.043 6.56.539 5.173.093 3.762.053 3.64.03 3.512 0 3.385v-.549c.064-.215.108-.44.196-.646.23-.53.617-.916 1.176-1.073C2.723.74 4.085.387 5.447.029c.333-.088.578.069.74.422l1.126 2.537L8.357 5.35c.166.372.127.573-.162.862-.514.52-1.024 1.039-1.558 1.577a27.438 27.438 0 0 0 5.619 5.629c.196-.196.387-.382.573-.573.338-.343.676-.686 1.019-1.03.245-.244.465-.288.778-.15 1.651.734 3.307 1.473 4.958 2.213.382.172.5.416.392.823a586.591 586.591 0 0 1-1.024 3.835c-.191.71-.647 1.176-1.338 1.416-.034.01-.068.034-.102.05h-1.2Zm2.43-5.202c-.034-.02-.054-.04-.078-.049-1.362-.607-2.724-1.215-4.085-1.827-.108-.049-.162-.015-.236.059-.514.519-1.033 1.033-1.552 1.548-.265.264-.54.289-.843.078-.28-.191-.563-.377-.828-.588-2.15-1.7-4.08-3.615-5.648-5.878-.26-.377-.24-.632.079-.955.5-.505 1.004-1.004 1.504-1.514.044-.044.083-.156.058-.205A328.917 328.917 0 0 0 5.32 1.416c-.02-.05-.123-.103-.167-.088-1.117.284-2.229.582-3.34.876a.795.795 0 0 0-.55.466c-.117.264-.112.534-.034.803.363 1.2.784 2.376 1.333 3.507 1.484 3.072 3.59 5.648 6.22 7.798 1.549 1.27 3.219 2.332 5.08 3.082.907.362 1.832.675 2.763.97.578.18 1.063-.089 1.205-.618.309-1.126.607-2.263.911-3.414ZM10.394.005c2.832.147 5.217 1.254 7.113 3.365 1.43 1.592 2.238 3.473 2.468 5.599.035.318.044.637.05.96.01.372-.23.632-.569.642-.348.01-.602-.245-.602-.627-.01-1.284-.265-2.523-.833-3.674-1.337-2.724-3.502-4.39-6.48-4.957-.486-.093-.985-.103-1.475-.137-.25-.02-.46-.098-.578-.334a.574.574 0 0 1 .45-.832c.152-.02.304-.005.456-.005Z"/><path d="M10.35 2.356c1.798.103 3.385.73 4.732 1.935a7.458 7.458 0 0 1 2.42 4.276c.083.446.112.906.137 1.362.02.372-.226.632-.559.641-.347.01-.597-.24-.607-.622-.03-1.42-.446-2.704-1.303-3.84a6.324 6.324 0 0 0-3.664-2.405c-.377-.088-.769-.118-1.156-.167-.142-.02-.289-.014-.426-.034a.58.58 0 0 1 .02-1.146c.132-.01.269 0 .406 0Z"/><path d="M10.262 4.712c2.273.089 4.281 1.7 4.84 3.91.102.416.147.847.186 1.273.034.392-.216.666-.568.671-.343.005-.588-.245-.598-.632-.034-1.21-.495-2.229-1.401-3.037a3.925 3.925 0 0 0-2.464-1.014c-.098-.005-.196-.01-.294-.024-.328-.044-.553-.3-.534-.613.02-.323.275-.553.617-.553.074.01.143.015.216.02Z"/></g><defs><clipPath id="a"><path fill="#fff" d="M0 0h20.029v20H0z"/></clipPath></defs></svg>