<svg width="95" height="30" viewBox="0 0 95 30" fill="none" xmlns="http://www.w3.org/2000/svg">
<g clip-path="url(#clip0_203_920)">
<path d="M39.3855 19.2501C39.4813 19.2022 39.3616 19.1304 39.3855 19.1064C39.2419 19.1783 39.4574 19.1783 39.3855 19.2501Z" fill="#B13675"/>
<path d="M43.5513 19.1777H43.5274C43.5274 19.1777 43.5274 19.1777 43.5034 19.2017L43.5513 19.1777Z" fill="#B13675"/>
<path d="M43.6712 19.1777L43.6472 19.2496C43.719 19.2735 43.6951 19.1777 43.6712 19.1777Z" fill="#B13675"/>
<path d="M41.2529 19.1781C41.3008 19.226 41.3487 19.202 41.3726 19.1542C41.3726 19.1302 41.3008 19.1781 41.2529 19.1781Z" fill="#B13675"/>
<path d="M49.0103 19.2267C49.1061 19.1788 48.9864 19.1069 49.0103 19.083C48.8666 19.1309 49.1061 19.1548 49.0103 19.2267Z" fill="#B13675"/>
<path d="M53.1763 19.1543H53.1524C53.1524 19.1543 53.1524 19.1543 53.1284 19.1782L53.1763 19.1543Z" fill="#B13675"/>
<path d="M53.2959 19.1309L53.272 19.2027C53.3438 19.2506 53.3438 19.1548 53.2959 19.1309Z" fill="#B13675"/>
<path d="M50.9019 19.155C50.9497 19.2028 50.9976 19.1789 51.0216 19.131C50.9976 19.1071 50.9497 19.131 50.9019 19.155Z" fill="#B13675"/>
<path d="M58.6592 19.1778C58.755 19.1299 58.6353 19.0581 58.6592 19.0342C58.5156 19.106 58.7311 19.1299 58.6592 19.1778Z" fill="#B13675"/>
<path d="M62.8252 19.1064H62.8012C62.8012 19.1064 62.8013 19.1064 62.7773 19.1304L62.8252 19.1064Z" fill="#B13675"/>
<path d="M62.9449 19.1064L62.921 19.1783C62.9928 19.2022 62.9688 19.1304 62.9449 19.1064Z" fill="#B13675"/>
<path d="M60.5266 19.107C60.5745 19.1548 60.6224 19.1309 60.6463 19.083C60.6463 19.083 60.5745 19.107 60.5266 19.107Z" fill="#B13675"/>
<path d="M89.9521 19.2501C89.8563 19.1783 90.0957 19.1783 89.9521 19.1064C89.9521 19.1304 89.8323 19.2022 89.9521 19.2501Z" fill="#B13675"/>
<path d="M85.6665 19.2496L85.6426 19.1777C85.6187 19.1777 85.5947 19.2735 85.6665 19.2496Z" fill="#B13675"/>
<path d="M87.917 19.1542C87.9409 19.202 88.0127 19.226 88.0367 19.1781C88.0127 19.1781 87.9648 19.1302 87.917 19.1542Z" fill="#B13675"/>
<path d="M80.3033 19.2267C80.2076 19.1548 80.447 19.1548 80.3033 19.083C80.3273 19.083 80.2076 19.1788 80.3033 19.2267Z" fill="#B13675"/>
<path d="M75.4668 19.1781C75.4668 19.1542 75.4429 19.1542 75.4668 19.1781C75.4429 19.1781 75.4429 19.1781 75.4429 19.1781C75.4429 19.1781 75.4429 19.1781 75.4668 19.1781Z" fill="#B13675"/>
<path d="M76.0417 19.2261L76.0177 19.1543C75.9699 19.1543 75.9699 19.2501 76.0417 19.2261Z" fill="#B13675"/>
<path d="M78.292 19.131C78.3159 19.1789 78.3878 19.2028 78.4117 19.155C78.3638 19.131 78.3159 19.1071 78.292 19.131Z" fill="#B13675"/>
<path d="M70.6784 19.1778C70.5826 19.106 70.822 19.106 70.6784 19.0342C70.7023 19.0581 70.5587 19.1539 70.6784 19.1778Z" fill="#B13675"/>
<path d="M66.5363 19.1303C66.5363 19.1063 66.5123 19.1063 66.5363 19.1303H66.4884H66.5363Z" fill="#B13675"/>
<path d="M66.3926 19.1783L66.3687 19.1064C66.3447 19.1304 66.3208 19.2022 66.3926 19.1783Z" fill="#B13675"/>
<path d="M68.6433 19.083C68.6673 19.1309 68.7391 19.1548 68.763 19.107C68.7391 19.107 68.6912 19.083 68.6433 19.083Z" fill="#B13675"/>
<path d="M35.2913 18.3164C35.2913 18.3882 35.2913 19.1544 35.2913 19.2502C35.5067 19.2262 35.7941 19.2741 35.9138 19.1783C36.1532 19.2262 36.3447 19.322 36.6081 19.322V19.298C36.7039 19.2741 36.8715 19.2502 36.8715 19.1305C37.063 19.1544 37.1827 19.322 37.3982 19.2741L37.3503 19.2262C37.3982 19.2023 37.494 19.2502 37.5179 19.2741C37.5419 19.2741 37.5179 19.2502 37.5179 19.2262C37.5658 19.1783 37.6137 19.2502 37.6376 19.2502L37.6137 19.2023C37.7813 19.1305 38.0686 19.2741 38.308 19.2502C38.2601 19.2502 38.2841 19.2023 38.308 19.1783C38.4038 19.298 38.6672 19.2741 38.7629 19.298L38.715 19.2502C38.9066 19.322 38.8826 19.1305 39.0742 19.2023L38.9784 19.2741C39.0502 19.2502 39.1221 19.2741 39.0981 19.322C39.1939 19.2741 39.0981 19.2262 39.2418 19.2262C39.2418 19.2023 39.146 19.2023 39.1939 19.1544L39.3854 19.0586C39.3854 19.0586 39.3854 19.0586 39.4094 19.0586H39.3854C39.3854 19.0586 39.4094 19.0347 39.4812 19.0586C39.4573 19.2262 39.6249 19.0586 39.553 19.2262C39.8164 19.2502 40.0319 19.1305 40.2713 19.2023C40.3671 19.0586 40.7262 19.2023 40.7023 19.0107C40.822 19.0107 40.9417 19.0586 41.0135 19.1305C40.9896 19.1544 40.9656 19.1305 40.9417 19.1065C40.9656 19.1544 41.1332 19.1544 41.1811 19.1544C41.1093 19.1065 40.9656 19.0586 40.8938 18.9868C41.0135 19.0107 41.1811 19.0826 41.229 19.1065L41.253 19.0107C41.3487 19.0826 41.3248 18.9389 41.4206 19.0347L41.3966 19.0586C41.5642 19.0586 41.5882 19.1544 41.7318 19.1783V19.1305C41.7797 19.1065 41.8755 19.2023 41.9233 19.1305H41.8036C41.8036 19.0586 41.8994 19.0347 41.9473 18.9868C42.067 19.0107 41.9952 19.1065 42.0431 19.1065C42.067 19.0347 42.0431 19.0826 42.0191 19.0107C42.1388 19.0347 42.3304 19.0586 42.4022 19.1544V19.1305C42.5459 19.1305 42.6416 19.2502 42.7374 19.1783H42.7134C42.8092 19.0826 43.0008 19.2741 43.0008 19.1065C43.0486 19.0826 42.881 19.1065 42.9768 19.0347C43.1444 18.9868 43.0726 19.1783 43.2162 19.1305C43.1923 19.1305 43.1923 19.1305 43.1923 19.1065C43.2881 19.1065 43.4317 19.1305 43.5275 19.1544C43.6712 19.0107 43.9345 19.2023 44.1021 19.0347C44.0542 19.0826 44.15 19.1065 44.15 19.1305V19.1065C44.1979 19.1065 44.2218 19.1544 44.2458 19.1783C44.2937 19.1305 44.4134 19.2262 44.4373 19.2023C44.4373 19.2262 44.4852 19.2262 44.5331 19.2262C44.4373 19.1783 44.5091 19.1544 44.4613 19.1065C44.6049 19.0826 44.6289 19.2741 44.7965 19.2262L44.8922 19.1544C44.8922 19.2023 44.9401 19.2262 44.964 19.2262C45.1795 19.2023 45.4668 19.2262 45.5866 19.1305C45.826 19.1783 46.0175 19.2741 46.2809 19.2741V19.2502C46.3767 19.2262 46.5443 19.2023 46.5443 19.0826C46.7358 19.1065 46.8555 19.2741 47.071 19.2262L47.0231 19.1783C47.071 19.1544 47.1668 19.2023 47.1907 19.2262C47.2146 19.2262 47.1907 19.2023 47.1907 19.1783C47.2386 19.1305 47.2865 19.2023 47.3104 19.2023L47.2865 19.1544C47.4541 19.0826 47.7414 19.2262 47.9808 19.2023C47.9329 19.2023 47.9569 19.1544 47.9808 19.1305C48.0766 19.2502 48.3399 19.2262 48.4357 19.2502L48.3878 19.2023C48.5794 19.2741 48.5554 19.0826 48.747 19.1544L48.6512 19.2262C48.723 19.2023 48.7949 19.2262 48.7709 19.2741C48.8667 19.2262 48.7709 19.1783 48.9146 19.1783C48.9146 19.1544 48.8188 19.1544 48.8667 19.1065L49.0582 19.0107C49.0582 19.0107 49.0582 19.0107 49.0822 19.0107H49.0582C49.0582 19.0107 49.0822 18.9868 49.154 19.0107C49.1301 19.1783 49.2977 19.0107 49.2258 19.1783C49.4892 19.2023 49.7047 19.0826 49.9441 19.1544C50.0399 19.0107 50.399 19.1544 50.3751 18.9629C50.4948 18.9629 50.6145 19.0107 50.6863 19.0826C50.6624 19.1065 50.6384 19.0826 50.6145 19.0586C50.6384 19.1065 50.806 19.1065 50.8539 19.1065C50.7821 19.0586 50.6384 19.0107 50.5666 18.9389C50.6863 18.9629 50.8539 19.0347 50.9018 19.0586L50.9257 18.9629C51.0215 19.0347 50.9976 18.891 51.0933 18.9868L51.0694 19.0107C51.237 19.0107 51.2609 19.1065 51.4046 19.1305V19.0826C51.4525 19.0586 51.5482 19.1544 51.5961 19.0826H51.4764C51.4764 19.0107 51.5722 18.9868 51.6201 18.9389C51.7398 18.9629 51.668 19.0586 51.7158 19.0586C51.7398 18.9868 51.7158 19.0347 51.6919 18.9629C51.8116 18.9868 52.0032 19.0107 52.075 19.1065V19.0826C52.2186 19.0826 52.3144 19.2023 52.4102 19.1305H52.3862C52.482 19.0347 52.6735 19.2262 52.6735 19.0586C52.7214 19.0347 52.5538 19.0586 52.6496 18.9868C52.8172 18.9389 52.7454 19.1305 52.889 19.0826C52.8651 19.0826 52.8651 19.0826 52.8651 19.0586C52.9609 19.0586 53.1045 19.0826 53.2003 19.1065C53.3439 18.9629 53.6073 19.1544 53.7749 18.9868C53.727 19.0347 53.8228 19.0586 53.8228 19.0826V19.0586C53.8707 19.0586 53.8946 19.1065 53.9186 19.1305C53.9664 19.0826 54.0862 19.1783 54.1101 19.1544C54.1101 19.1783 54.158 19.1783 54.2059 19.1783C54.1101 19.1305 54.1819 19.1065 54.134 19.0586C54.2777 19.0347 54.3016 19.2262 54.4692 19.1783L54.565 19.1065C54.565 19.1544 54.6129 19.1783 54.6368 19.1783C54.8523 19.1544 55.1396 19.1783 55.2593 19.0826C55.4988 19.1305 55.6903 19.2262 55.9537 19.2262V19.2023C56.0494 19.1783 56.217 19.1544 56.217 19.0347C56.4086 19.0586 56.5283 19.2262 56.7438 19.1783L56.6959 19.1305C56.7438 19.1065 56.8396 19.1544 56.8635 19.1783C56.8874 19.1783 56.8635 19.1544 56.8635 19.1305C56.9114 19.0826 56.9593 19.1544 56.9832 19.1544L56.9593 19.1065C57.1269 19.0347 57.4142 19.1783 57.6536 19.1544C57.6057 19.1544 57.6297 19.1065 57.6536 19.0826C57.7494 19.2023 58.0127 19.1783 58.1085 19.2023L58.0606 19.1544C58.2522 19.2262 58.2282 19.0347 58.4198 19.1065L58.324 19.1783C58.3958 19.1544 58.4676 19.1783 58.4437 19.2262C58.5395 19.1783 58.4437 19.1305 58.5874 19.1305C58.5874 19.1065 58.4916 19.1065 58.5395 19.0586L58.731 18.9629C58.731 18.9629 58.731 18.9629 58.755 18.9629H58.731C58.731 18.9629 58.755 18.9389 58.8268 18.9629C58.8028 19.1305 58.9704 18.9629 58.8986 19.1305C59.162 19.1544 59.3775 19.0347 59.6169 19.1065C59.7127 18.9629 60.0718 19.1065 60.0479 18.915C60.1676 18.915 60.2873 18.9629 60.3591 19.0347C60.3352 19.0586 60.3112 19.0347 60.2873 19.0107C60.3112 19.0586 60.4788 19.0586 60.5267 19.0586C60.4549 19.0107 60.3112 18.9629 60.2394 18.891C60.3591 18.915 60.5267 18.9868 60.5746 19.0107L60.5985 18.915C60.6943 18.9868 60.6704 18.8431 60.7661 18.9389L60.7422 18.9629C60.9098 18.9629 60.9337 19.0586 61.0774 19.0826V19.0347C61.1253 19.0107 61.221 19.1065 61.2689 19.0347H61.1492C61.1492 18.9629 61.245 18.9389 61.2929 18.891C61.4126 18.915 61.3407 19.0107 61.3886 19.0107C61.4126 18.9389 61.3886 18.9868 61.3647 18.915C61.4844 18.9389 61.6759 18.9629 61.7478 19.0586V19.0347C61.8914 19.0347 61.9872 19.1544 62.083 19.0826H62.059C62.1548 18.9868 62.3463 19.1783 62.3463 19.0107C62.3942 18.9868 62.2266 19.0107 62.3224 18.9389C62.49 18.891 62.4182 19.0826 62.5618 19.0347C62.5379 19.0347 62.5379 19.0347 62.5379 19.0107C62.6336 19.0107 62.7773 19.0347 62.8731 19.0586C63.0167 18.915 63.2801 19.1065 63.4477 18.9389C63.3998 18.9868 63.4956 19.0107 63.4956 19.0347V19.0107C63.5435 19.0107 63.5674 19.0586 63.5913 19.0826C63.6392 19.0347 63.7589 19.1305 63.7829 19.1065C63.7829 19.1305 63.8308 19.1305 63.8787 19.1305C63.7829 19.0826 63.8547 19.0586 63.8068 19.0107C63.9505 18.9868 63.9744 19.1783 64.142 19.1305L64.2378 19.0586C64.2378 19.0586 64.2617 19.0586 64.3096 19.0826C64.4533 19.2023 64.5251 19.0347 64.5251 19.1065C64.5012 19.2262 64.7645 19.1065 64.7885 19.1065C64.8124 19.1065 65.0758 19.2262 65.0518 19.1065C65.0279 19.0586 65.0997 19.2262 65.2673 19.0826C65.2913 19.0586 65.3392 19.0826 65.3392 19.0586L65.4349 19.1305C65.6025 19.1544 65.6265 18.9868 65.7701 19.0107C65.7222 19.0586 65.7941 19.1065 65.6983 19.1305C65.7462 19.1305 65.7941 19.1305 65.7941 19.1065C65.818 19.1305 65.9377 19.0347 65.9856 19.0826C66.0095 19.0586 66.0095 19.0107 66.0814 19.0107V19.0347C66.0814 19.0107 66.1771 19.0107 66.1293 18.9389C66.2969 19.1065 66.5602 18.915 66.7039 19.0586C66.8236 19.0347 66.9433 19.0347 67.0391 19.0107C67.0391 19.0347 67.0391 19.0347 67.0151 19.0347C67.1588 19.0826 67.1109 18.891 67.2546 18.9389C67.3264 19.0107 67.1588 18.9868 67.2306 19.0107C67.2546 19.1783 67.4222 18.9868 67.5179 19.0826H67.494C67.5658 19.1305 67.6855 19.0107 67.8292 19.0347V19.0586C67.9249 18.9629 68.0925 18.9389 68.2123 18.915C68.1644 18.9868 68.1644 18.9389 68.1883 19.0107C68.2362 19.0107 68.1644 18.915 68.2841 18.891C68.332 18.915 68.4038 18.9629 68.4277 19.0347H68.308C68.3559 19.1305 68.4517 19.0347 68.4996 19.0347V19.0826C68.6672 19.0586 68.6672 18.9629 68.8348 18.9629L68.8108 18.9389C68.9066 18.8431 68.8827 18.9868 68.9784 18.915L69.0024 19.0107C69.0742 18.9868 69.2178 18.915 69.3376 18.891C69.2657 18.9629 69.146 19.0107 69.0502 19.0586C69.1221 19.0586 69.2657 19.0586 69.2897 19.0107C69.2657 19.0107 69.2418 19.0347 69.2178 19.0347C69.2897 18.9629 69.4094 18.915 69.5291 18.915C69.5052 19.1065 69.8643 18.9629 69.9601 19.1065C70.1755 19.0347 70.415 19.1305 70.6783 19.1305C70.5826 18.9868 70.7502 19.1305 70.7502 18.9629C70.822 18.9629 70.822 18.9629 70.8459 18.9629H70.822C70.822 18.9629 70.822 18.9629 70.8459 18.9629L71.0375 19.0586C71.0854 19.1065 70.9896 19.0826 70.9896 19.1305C71.1332 19.1305 71.0375 19.2023 71.1333 19.2262C71.1093 19.1783 71.1811 19.1544 71.253 19.1783L71.1572 19.1065C71.3487 19.0107 71.3248 19.2262 71.5163 19.1544L71.4684 19.2023C71.5642 19.1783 71.8276 19.2023 71.9234 19.0826C71.9473 19.1065 71.9712 19.1544 71.9234 19.1544C72.1628 19.1783 72.4261 19.0107 72.6177 19.1065L72.5937 19.1544C72.6416 19.1544 72.6656 19.0826 72.7135 19.1305C72.7135 19.1544 72.6895 19.1783 72.7135 19.1783C72.7374 19.1544 72.8332 19.1065 72.8811 19.1305L72.8332 19.1783C73.0487 19.2262 73.1684 19.0826 73.3599 19.0347C73.3599 19.1544 73.5275 19.1783 73.6233 19.2023V19.2262C73.8866 19.2502 74.0782 19.1305 74.3176 19.0826C74.4373 19.1783 74.7246 19.1544 74.9401 19.1783C74.9641 19.1783 75.0119 19.1544 75.0119 19.1065L75.1077 19.1783C75.2753 19.2023 75.2993 19.0347 75.4429 19.0586C75.395 19.1065 75.4668 19.1544 75.3711 19.1783C75.419 19.1783 75.4669 19.1783 75.4669 19.1544C75.4908 19.1783 75.6105 19.0826 75.6584 19.1305C75.6823 19.1065 75.6823 19.0586 75.7542 19.0586V19.0826C75.7542 19.0586 75.8499 19.0586 75.802 18.9868C75.9696 19.1544 76.233 18.9629 76.3767 19.1065C76.4964 19.0826 76.6161 19.0826 76.7119 19.0586C76.7119 19.0826 76.7119 19.0826 76.6879 19.0826C76.8316 19.1305 76.7837 18.9389 76.9273 18.9868C76.9992 19.0586 76.8316 19.0347 76.9034 19.0586C76.9273 19.2262 77.0949 19.0347 77.1907 19.1305H77.1668C77.2386 19.1783 77.3583 19.0586 77.502 19.0826V19.1065C77.5977 19.0107 77.7653 18.9868 77.885 18.9629C77.8372 19.0347 77.8372 18.9868 77.8611 19.0586C77.909 19.0586 77.8372 18.9629 77.9569 18.9389C78.0048 18.9629 78.0766 19.0107 78.1005 19.0826H77.9808C78.0287 19.1783 78.1245 19.0826 78.1724 19.0826V19.1305C78.34 19.1065 78.34 19.0107 78.5075 19.0107L78.4836 18.9868C78.5794 18.891 78.5554 19.0347 78.6512 18.9629L78.6752 19.0586C78.747 19.0347 78.8906 18.9629 79.0103 18.9389C78.9385 19.0107 78.8188 19.0586 78.723 19.1065C78.7949 19.1065 78.9385 19.1065 78.9625 19.0586C78.9385 19.0586 78.9146 19.0826 78.8906 19.0826C78.9625 19.0107 79.0822 18.9629 79.2019 18.9629C79.1779 19.1544 79.5371 19.0107 79.6329 19.1544C79.8483 19.0826 80.0878 19.1783 80.3511 19.1783C80.2554 19.0347 80.423 19.1783 80.423 19.0107C80.4948 19.0107 80.4948 19.0107 80.5187 19.0107H80.4948C80.4948 19.0107 80.4948 19.0107 80.5187 19.0107L80.7103 19.1065C80.7582 19.1544 80.6624 19.1305 80.6624 19.1783C80.806 19.1783 80.7103 19.2502 80.806 19.2741C80.7821 19.2262 80.8539 19.2023 80.9258 19.2262L80.83 19.1544C81.0215 19.0586 80.9976 19.2741 81.1891 19.2023L81.1412 19.2502C81.237 19.2262 81.5004 19.2502 81.5961 19.1305C81.6201 19.1544 81.644 19.2023 81.5961 19.2023C81.8356 19.2262 82.0989 19.0586 82.2905 19.1544L82.2665 19.2023C82.3144 19.2023 82.3384 19.1305 82.3862 19.1783C82.3862 19.2023 82.3623 19.2262 82.3862 19.2262C82.4102 19.2023 82.506 19.1544 82.5538 19.1783L82.506 19.2262C82.7214 19.2741 82.8411 19.1305 83.0327 19.0826C83.0327 19.2023 83.2003 19.2262 83.2961 19.2502V19.2741C83.5594 19.2981 83.751 19.1783 83.9904 19.1305C84.1101 19.2262 84.3974 19.2023 84.6129 19.2262C84.6368 19.2262 84.6847 19.2023 84.6847 19.1544L84.7805 19.2262C84.9481 19.2502 84.972 19.0826 85.1157 19.1065C85.0678 19.1544 85.1396 19.2023 85.0439 19.2262C85.0918 19.2262 85.1396 19.2262 85.1396 19.2023C85.1636 19.2262 85.2833 19.1305 85.3312 19.1783C85.3551 19.1544 85.3551 19.1065 85.4269 19.1065V19.1305C85.4269 19.1065 85.5227 19.1065 85.4748 19.0347C85.6424 19.2023 85.9058 19.0107 86.0495 19.1544C86.1692 19.1305 86.2889 19.1305 86.3846 19.1065C86.3846 19.1305 86.3847 19.1305 86.3607 19.1305C86.5044 19.1783 86.4565 18.9868 86.6001 19.0347C86.672 19.1065 86.5044 19.0826 86.5762 19.1065C86.6001 19.2741 86.7677 19.0826 86.8635 19.1783H86.8396C86.9114 19.2262 87.0311 19.1065 87.1748 19.1305V19.1544C87.2705 19.0586 87.4381 19.0347 87.5578 19.0107C87.51 19.0826 87.5099 19.0347 87.5339 19.1065C87.5818 19.1065 87.5099 19.0107 87.6297 18.9868C87.6775 19.0107 87.7494 19.0586 87.7733 19.1305H87.6536C87.7015 19.2262 87.7973 19.1305 87.8451 19.1305V19.1783C88.0127 19.1544 88.0127 19.0586 88.1803 19.0586L88.1564 19.0347C88.2522 18.9389 88.2282 19.0826 88.324 19.0107L88.3479 19.1065C88.4198 19.0826 88.5634 19.0107 88.6831 18.9868C88.6113 19.0586 88.4916 19.1065 88.3958 19.1544C88.4677 19.1544 88.6113 19.1544 88.6353 19.1065C88.6113 19.1065 88.5874 19.1305 88.5634 19.1305C88.6352 19.0586 88.755 19.0107 88.8747 19.0107C88.8507 19.2023 89.2099 19.0586 89.3056 19.2023C89.5211 19.1305 89.7605 19.2262 90.0239 19.2262C89.9281 19.0826 90.0957 19.2262 90.0957 19.0586C90.1676 19.0586 90.1676 19.0586 90.1915 19.0586H90.1676C90.1676 19.0586 90.1676 19.0586 90.1915 19.0586L90.3831 19.1544C90.4309 19.2023 90.3352 19.1783 90.3352 19.2262C90.4788 19.2262 90.3831 19.298 90.4788 19.322C90.4549 19.2741 90.5267 19.2502 90.5985 19.2741L90.5028 19.2023C90.6943 19.1065 90.6704 19.322 90.8619 19.2502L90.814 19.298C90.9098 19.2741 91.1732 19.298 91.2689 19.1783C91.2929 19.2023 91.3168 19.2502 91.2689 19.2502C91.5084 19.2741 91.7717 19.1065 91.9633 19.2023L91.9393 19.2502C91.9872 19.2502 92.0111 19.1783 92.059 19.2262C92.059 19.2502 92.0351 19.2741 92.059 19.2741C92.083 19.2502 92.1787 19.2023 92.2266 19.2262L92.1787 19.2741C92.3942 19.322 92.5139 19.1783 92.7055 19.1305C92.7055 19.2502 92.8731 19.2741 92.9688 19.298V19.322C93.2322 19.3459 93.4238 19.2262 93.6632 19.1783C93.7829 19.2741 94.0702 19.2262 94.2857 19.2502C94.2857 19.1305 94.2857 18.3882 94.2857 18.3164H35.2913Z" fill="#B13675"/>
<path d="M41.0613 14.2449L36.608 7.70854V14.2449H35.387V5.55371H36.5123L41.3726 12.6407L46.2808 5.55371H47.4061V14.2209H46.1611V7.66065L41.6599 14.2449H41.0613Z" fill="#F2F2F2"/>
<path d="M59.4013 6.63163H53.3439C53.0326 6.63163 52.7214 6.70346 52.4101 6.82317C52.0988 6.94288 51.8115 7.13442 51.5721 7.34991C51.3327 7.58933 51.1172 7.8527 50.9496 8.16395C50.782 8.47521 50.7102 8.8104 50.6862 9.16954H59.3295V10.1991H50.6862V10.3906C50.6862 10.7976 50.7581 11.1807 50.9017 11.5159C51.0454 11.8511 51.2609 12.1384 51.5003 12.4018C51.7637 12.6412 52.051 12.8327 52.3862 12.9764C52.7214 13.1201 53.0805 13.1679 53.4875 13.1679H59.3774V14.1975H53.0805C52.6016 14.1975 52.1467 14.1017 51.7158 13.9341C51.2848 13.7665 50.8778 13.5031 50.5426 13.1679C50.2074 12.8327 49.9201 12.4497 49.7046 11.9948C49.4891 11.5399 49.3933 11.0371 49.3933 10.4624V9.24137C49.3933 8.69069 49.4891 8.1879 49.7285 7.73299C49.944 7.27808 50.2313 6.895 50.5905 6.5598C50.9496 6.22461 51.3327 5.98518 51.7876 5.79364C52.2425 5.6021 52.6974 5.53027 53.1523 5.53027H59.3774V6.63163H59.4013Z" fill="#F2F2F2"/>
<path d="M71.0374 14.2453H64.7884C64.2617 14.2453 63.7828 14.1496 63.3519 13.982C62.9209 13.8144 62.5378 13.551 62.2026 13.2397C61.8914 12.9285 61.628 12.5215 61.4604 12.0666C61.2689 11.6116 61.197 11.0849 61.197 10.5103V5.57812H62.466V10.4145C62.466 10.8455 62.5378 11.2286 62.6575 11.5877C62.7772 11.9229 62.9688 12.2102 63.1843 12.4736C63.4237 12.713 63.687 12.9045 63.9983 13.0243C64.3095 13.144 64.6687 13.2158 65.0518 13.2158H71.0374V14.2453Z" fill="#F2F2F2"/>
<path d="M73.3359 5.57812V9.24133H77.9089C78.2681 9.24133 78.5554 9.19345 78.8187 9.09768C79.0582 9.00191 79.2976 8.78642 79.4891 8.45123C79.537 8.35546 79.6567 8.18786 79.8004 7.90055C79.968 7.61324 80.1356 7.32593 80.3032 7.01468C80.4947 6.70342 80.6623 6.39217 80.806 6.1288C80.9496 5.84149 81.0693 5.6739 81.1172 5.57812H82.4819L80.6384 8.88219C80.5187 9.09768 80.3989 9.26528 80.2553 9.43287C80.1116 9.60047 79.9201 9.72018 79.6807 9.79201V9.81595C79.968 9.86384 80.2074 9.95961 80.375 10.1033C80.5665 10.2469 80.7102 10.4624 80.8539 10.7258L82.7693 14.2693H81.4045L79.7286 11.1567C79.6567 10.9891 79.561 10.8694 79.4412 10.7497C79.3455 10.63 79.2018 10.5582 79.0582 10.4863C78.9145 10.4145 78.723 10.3666 78.5314 10.3427C78.3159 10.3187 78.0765 10.2948 77.7892 10.2948H73.3359V14.2693H72.0909V5.57812H73.3359Z" fill="#F2F2F2"/>
<path d="M94.1179 6.63163H88.0604C87.7491 6.63163 87.4379 6.70346 87.1266 6.82317C86.8154 6.94288 86.5281 7.13442 86.2886 7.34991C86.0492 7.58933 85.8337 7.8527 85.6661 8.16395C85.4985 8.47521 85.4267 8.8104 85.4028 9.16954H94.046V10.1991H85.4028V10.3906C85.4028 10.7976 85.4746 11.1807 85.6182 11.5159C85.7619 11.8511 85.9774 12.1384 86.2168 12.4018C86.4802 12.6412 86.7675 12.8327 87.1027 12.9764C87.4379 13.1201 87.797 13.1679 88.204 13.1679H94.0939V14.1975H87.797C87.3182 14.1975 86.8633 14.1017 86.4323 13.9341C86.0013 13.7665 85.5943 13.5031 85.2591 13.1679C84.9239 12.8327 84.6366 12.4497 84.4211 11.9948C84.2056 11.5399 84.1099 11.0371 84.1099 10.4624V9.24137C84.1099 8.69069 84.2056 8.1879 84.4451 7.73299C84.6845 7.27808 84.9479 6.895 85.307 6.5598C85.6661 6.22461 86.0492 5.98518 86.5041 5.79364C86.959 5.6021 87.4139 5.53027 87.8688 5.53027H94.0939V6.63163H94.1179Z" fill="#F2F2F2"/>
<path d="M28.9944 7.49422L24.4453 1.10156V6.68017C24.4214 6.68017 24.3974 6.68017 24.3735 6.68017C24.3256 6.70412 24.3017 6.70412 24.2777 6.752H24.3017C24.3017 6.77594 24.2777 6.77594 24.2538 6.77594C24.2538 6.79989 24.2298 6.77594 24.2298 6.79989C24.2059 6.84777 24.1341 6.87171 24.1101 6.89566C24.0862 6.89566 24.0383 6.94354 24.0143 6.94354H24.0383C23.9904 6.96748 24.0383 6.99143 23.9904 7.01537V6.99143C23.9904 7.01537 23.9665 7.01537 23.9665 6.99143C23.9665 7.01537 23.9665 7.01537 23.9665 7.03931H23.9904L23.9665 7.0872C23.9665 7.0872 23.9665 7.0872 23.9425 7.11114C23.9186 7.0872 23.9186 7.13508 23.9186 7.0872C23.8707 7.13508 23.8468 7.18297 23.7989 7.20691C23.7989 7.25479 23.727 7.27874 23.751 7.30268C23.727 7.32662 23.7031 7.32662 23.6792 7.32662C23.6792 7.32662 23.6792 7.32662 23.7031 7.32662C23.6792 7.32662 23.6552 7.35056 23.6552 7.35056C23.6792 7.35056 23.7031 7.32662 23.727 7.32662C23.7031 7.35056 23.6552 7.35056 23.6552 7.37451V7.39845C23.6313 7.39845 23.6552 7.42239 23.6313 7.42239C23.6073 7.44633 23.5834 7.44633 23.5594 7.47028C23.5594 7.47028 23.5355 7.47028 23.5355 7.49422L23.5594 7.47028C23.5594 7.49422 23.5594 7.49422 23.5594 7.51816C23.5355 7.5421 23.5355 7.51816 23.5355 7.51816C23.5355 7.5421 23.5355 7.51816 23.5594 7.51816C23.5355 7.5421 23.5116 7.56605 23.4637 7.56605C23.4397 7.58999 23.4158 7.58999 23.3918 7.61393C23.3918 7.63787 23.32 7.63787 23.344 7.66182C23.344 7.68576 23.3679 7.63787 23.3679 7.66182C23.344 7.68576 23.32 7.66182 23.32 7.68576C23.2961 7.7097 23.2721 7.7097 23.2482 7.73364C23.2482 7.78153 23.1764 7.80547 23.1764 7.85336C23.1764 7.82941 23.1524 7.85336 23.1524 7.85336H23.1285C23.1285 7.8773 23.1045 7.8773 23.1045 7.8773C23.1045 7.8773 23.1045 7.8773 23.0806 7.8773C23.1045 7.8773 23.1045 7.8773 23.1045 7.8773C23.0806 7.90124 23.0566 7.8773 23.0327 7.90124V7.92518H23.0088C22.9848 7.97307 22.913 7.99701 22.913 8.0449C22.8651 8.06884 22.8172 8.09278 22.7693 8.14067C22.7454 8.16461 22.7215 8.18855 22.7454 8.21249C22.6975 8.23644 22.6736 8.23644 22.6257 8.28432H22.6496C22.6496 8.30826 22.6257 8.30827 22.6017 8.30827C22.6017 8.33221 22.5778 8.30827 22.5778 8.33221C22.5539 8.38009 22.482 8.40404 22.4581 8.42798C22.4341 8.42798 22.3863 8.47586 22.3623 8.47586H22.3863C22.3384 8.49981 22.3863 8.52375 22.3384 8.54769V8.52375C22.3384 8.54769 22.3144 8.54769 22.3144 8.52375C22.3144 8.54769 22.3144 8.54769 22.3144 8.57163H22.3384L22.3144 8.61952C22.3144 8.61952 22.3144 8.61952 22.2905 8.64346C22.2665 8.61952 22.2665 8.6674 22.2665 8.61952C22.2187 8.6674 22.1947 8.71529 22.1468 8.73923C22.1468 8.78712 22.075 8.81106 22.0989 8.835C22.075 8.85894 22.0511 8.85894 22.0271 8.85894C22.0271 8.85894 22.0271 8.85894 22.0511 8.85894C22.0271 8.85894 22.0032 8.88289 22.0032 8.88289C22.0271 8.88289 22.0511 8.85894 22.075 8.85894C22.0511 8.88289 22.0032 8.88289 22.0032 8.90683V8.93077C21.9792 8.93077 22.0032 8.95471 21.9792 8.95471C21.9553 8.97866 21.9313 8.97866 21.9074 9.0026C21.9074 9.0026 21.8835 9.0026 21.8835 9.02654L21.9074 9.0026C21.9074 9.02654 21.9074 9.02654 21.9074 9.05048C21.8835 9.07443 21.8835 9.05048 21.8835 9.05048C21.8835 9.07443 21.8835 9.05048 21.9074 9.05048C21.8835 9.07443 21.8595 9.09837 21.8116 9.09837C21.7877 9.12231 21.7638 9.12231 21.7398 9.14625C21.7398 9.1702 21.668 9.1702 21.6919 9.19414C21.6919 9.21808 21.7159 9.1702 21.7159 9.19414C21.6919 9.21808 21.668 9.19414 21.668 9.21808C21.644 9.24202 21.6201 9.24202 21.5962 9.26597C21.5962 9.31385 21.5243 9.3378 21.5243 9.38568C21.5243 9.36174 21.5004 9.38568 21.5004 9.38568H21.4764C21.4764 9.40962 21.4525 9.40962 21.4525 9.40962C21.4525 9.40962 21.4525 9.40962 21.4286 9.40962C21.4525 9.40962 21.4525 9.40962 21.4525 9.40962C21.4286 9.43357 21.4046 9.40962 21.3807 9.43357V9.45751H21.3567C21.3328 9.50539 21.261 9.52934 21.261 9.57722C21.2131 9.60116 21.1652 9.62511 21.1173 9.67299C21.0934 9.69693 21.0694 9.72088 21.0934 9.74482C21.0455 9.76876 21.0215 9.76876 20.9736 9.81665H20.9976C20.9976 9.84059 20.9736 9.84059 20.9497 9.84059C20.9497 9.86453 20.9258 9.84059 20.9258 9.86453C20.9018 9.91242 20.83 9.93636 20.806 9.9603C20.7821 9.9603 20.7342 10.0082 20.7103 10.0082H20.7342C20.6863 10.0321 20.7342 10.0561 20.6863 10.08V10.0561C20.6863 10.08 20.6624 10.08 20.6624 10.0561C20.6624 10.08 20.6624 10.08 20.6624 10.104H20.6863L20.6624 10.1518C20.6624 10.1518 20.6624 10.1518 20.6385 10.1758C20.6145 10.1518 20.6145 10.1997 20.6145 10.1518C20.5666 10.1997 20.5427 10.2476 20.4948 10.2716C20.4948 10.3194 20.423 10.3434 20.4469 10.3673C20.423 10.3913 20.399 10.3913 20.3751 10.3913C20.3751 10.3913 20.3751 10.3913 20.399 10.3913C20.3751 10.3913 20.3511 10.4152 20.3511 10.4152C20.3751 10.4152 20.399 10.3913 20.423 10.3913C20.399 10.4152 20.3511 10.4152 20.3511 10.4392V10.4631C20.3272 10.4631 20.3511 10.487 20.3272 10.487C20.3033 10.511 20.2793 10.511 20.2554 10.5349C20.2554 10.5349 20.2314 10.5349 20.2314 10.5589L20.2554 10.5349C20.2554 10.5589 20.2554 10.5589 20.2554 10.5828C20.2314 10.6067 20.2314 10.5828 20.2314 10.5828C20.2314 10.6067 20.2314 10.5828 20.2554 10.5828C20.2314 10.6067 20.2075 10.6307 20.1596 10.6307C20.1357 10.6546 20.1117 10.6546 20.0878 10.6786C20.0878 10.7025 20.0159 10.7025 20.0399 10.7265C20.0399 10.7504 20.0638 10.7025 20.0638 10.7265C20.0399 10.7504 20.0159 10.7265 20.0159 10.7504C19.992 10.7743 19.9681 10.7743 19.9441 10.7983C19.9441 10.8462 19.8723 10.8701 19.8723 10.918C19.8723 10.8941 19.8483 10.918 19.8483 10.918H19.8244C19.8244 10.9419 19.8005 10.9419 19.8005 10.9419C19.8005 10.9419 19.8005 10.9419 19.7765 10.9419C19.8005 10.9419 19.8005 10.9419 19.8005 10.9419C19.7765 10.9659 19.7526 10.9419 19.7286 10.9659V10.9898C19.7286 10.9898 19.7286 10.9898 19.7047 10.9898C19.6568 10.9898 19.6807 11.0377 19.6568 11.0138C19.6568 10.9898 19.6089 11.0617 19.6089 11.0617C19.6089 11.0617 19.5371 11.0856 19.561 11.1095C19.561 11.1095 19.5371 11.1095 19.5371 11.1335C19.5371 11.1335 19.5371 11.1335 19.5371 11.1574H19.5132C19.4892 11.1814 19.5132 11.2053 19.4653 11.2293C19.4653 11.2053 19.4413 11.2293 19.4653 11.2053L19.4413 11.2293L19.4174 11.2532V11.2771V11.3011C19.3695 11.3011 19.3456 11.3729 19.2977 11.3729C19.2737 11.3969 19.2498 11.4208 19.2498 11.4447C19.2258 11.4687 19.2498 11.4687 19.2258 11.4926C19.2019 11.4926 19.2258 11.4687 19.2258 11.4687C19.2019 11.4447 19.2019 11.4926 19.154 11.5166C19.1301 11.5166 19.1301 11.5645 19.1061 11.5884C19.1061 11.6123 19.0822 11.6363 19.0582 11.6842C19.0582 11.6602 19.0582 11.6602 19.0582 11.6602C19.0582 11.6602 19.0822 11.6842 19.0582 11.6842C19.0582 11.6842 19.0343 11.6842 19.0104 11.6842L19.0343 11.6602C19.0104 11.6602 19.0104 11.6842 19.0104 11.6842C18.9864 11.7081 18.9864 11.732 18.9625 11.756C18.9625 11.7799 18.9385 11.756 18.9385 11.7799H18.9146C18.9146 11.8039 18.8906 11.8278 18.8667 11.8518C18.8667 11.8278 18.8906 11.8039 18.8906 11.7799C18.8906 11.7799 18.8428 11.8278 18.8667 11.8278V11.8039C18.8667 11.8278 18.8428 11.8518 18.8188 11.8757C18.7949 11.8518 18.747 11.9236 18.723 11.9236C18.6991 11.9715 18.6512 11.9954 18.6033 12.0433C18.6512 12.0433 18.5794 12.0672 18.6033 12.0672L18.5794 12.0912L18.5315 12.1151C18.5076 12.1151 18.5315 12.0912 18.5315 12.0912C18.5076 12.1151 18.5076 12.0912 18.4836 12.0912C18.4836 12.0912 18.4836 12.1151 18.4597 12.1151H18.4836C18.4597 12.163 18.4357 12.1151 18.4118 12.163V12.1391C18.3879 12.163 18.34 12.187 18.34 12.2348C18.34 12.2348 18.316 12.2348 18.34 12.2348C18.2921 12.2588 18.2681 12.3306 18.2203 12.3546C18.2203 12.3546 18.2203 12.3785 18.1963 12.3785C18.1963 12.3785 18.1963 12.4024 18.1724 12.4024V12.3785C18.1245 12.4024 18.1245 12.4503 18.1005 12.4743C18.0766 12.4503 18.0527 12.4743 18.0287 12.4982C17.9808 12.5461 17.9569 12.594 17.9329 12.6419C17.909 12.6419 17.8611 12.6897 17.8132 12.7376V12.7616H17.7893C17.7653 12.7855 17.7893 12.8095 17.7414 12.8334C17.7414 12.8095 17.7175 12.8334 17.7414 12.8095L17.7175 12.8334L17.6935 12.8573V12.8813V12.9052C17.6456 12.9052 17.6217 12.9771 17.5738 12.9771C17.5499 13.001 17.5259 13.0249 17.5259 13.0489C17.502 13.0728 17.5259 13.0728 17.502 13.0968C17.478 13.0968 17.502 13.0728 17.502 13.0728C17.478 13.0489 17.478 13.0968 17.4302 13.1207C17.4062 13.1207 17.4062 13.1686 17.3823 13.1925C17.3823 13.2165 17.3583 13.2404 17.3344 13.2883C17.3344 13.2644 17.3344 13.2644 17.3344 13.2644C17.3344 13.2644 17.3583 13.2883 17.3344 13.2883C17.3344 13.2883 17.3104 13.2883 17.2865 13.2883L17.3104 13.2644C17.2865 13.2644 17.2865 13.2883 17.2865 13.2883C17.2626 13.3123 17.2626 13.3362 17.2386 13.3601C17.2386 13.3841 17.2147 13.3601 17.2147 13.3841H17.1907C17.1907 13.408 17.1668 13.432 17.1428 13.4559C17.1428 13.432 17.1668 13.408 17.1668 13.3841C17.1668 13.3841 17.1189 13.432 17.1428 13.432V13.408C17.1428 13.432 17.1189 13.4559 17.095 13.4799C17.071 13.4559 17.0231 13.5277 16.9992 13.5277C16.9752 13.5756 16.9274 13.5996 16.8795 13.6475C16.9274 13.6475 16.8555 13.6714 16.8795 13.6714L16.8555 13.6953L16.8076 13.7193C16.7837 13.7193 16.8076 13.6953 16.8076 13.6953C16.7837 13.7193 16.7837 13.6953 16.7598 13.6953C16.7598 13.6953 16.7598 13.7193 16.7358 13.7193H16.7598C16.7358 13.7672 16.7119 13.7193 16.6879 13.7672V13.7432C16.664 13.7672 16.6161 13.7911 16.6161 13.839C16.6161 13.839 16.5922 13.839 16.6161 13.839C16.5682 13.8629 16.5443 13.9348 16.4964 13.9587C16.4964 13.9587 16.4964 13.9826 16.4724 13.9826C16.4724 13.9826 16.4724 14.0066 16.4485 14.0066V13.9826C16.4006 14.0066 16.4006 14.0545 16.3767 14.0784C16.3527 14.0545 16.3288 14.0784 16.3049 14.1024C16.257 14.1502 16.233 14.1981 16.2091 14.246C16.1851 14.246 16.1373 14.2939 16.0894 14.3418V14.3657H16.0654C16.0415 14.3897 16.0654 14.4136 16.0175 14.4376C16.0175 14.4136 15.9936 14.4376 16.0175 14.4136L15.9936 14.4376L15.9697 14.4615V14.4854V14.5094C15.9218 14.5094 15.8978 14.5812 15.8499 14.5812C15.826 14.6052 15.8021 14.6291 15.8021 14.653C15.7781 14.677 15.8021 14.677 15.7781 14.7009C15.7542 14.7009 15.7781 14.677 15.7781 14.677C15.7542 14.653 15.7542 14.7009 15.7063 14.7249C15.6823 14.7249 15.6823 14.7727 15.6584 14.7967C15.6584 14.8206 15.6345 14.8446 15.6105 14.8925C15.6105 14.8685 15.6105 14.8685 15.6105 14.8685C15.6105 14.8685 15.6345 14.8925 15.6105 14.8925C15.6105 14.8925 15.5866 14.8925 15.5626 14.8925L15.5866 14.8685C15.5626 14.8685 15.5626 14.8925 15.5626 14.8925C15.5387 14.9164 15.5387 14.9403 15.5147 14.9643C15.5147 14.9882 15.4908 14.9643 15.4908 14.9882H15.4669C15.4669 15.0122 15.4429 15.0361 15.419 15.0601C15.419 15.0361 15.4429 15.0122 15.4429 14.9882C15.4429 14.9882 15.395 15.0361 15.419 15.0361V15.0122C15.419 15.0361 15.395 15.0601 15.3711 15.084C15.3471 15.0601 15.2993 15.1319 15.2753 15.1319C15.2514 15.1798 15.2035 15.2037 15.1556 15.2516C15.2035 15.2516 15.1317 15.2755 15.1556 15.2755L15.1317 15.2995L15.0838 15.3234C15.0598 15.3234 15.0838 15.2995 15.0838 15.2995C15.0598 15.3234 15.0598 15.2995 15.0359 15.2995C15.0359 15.2995 15.0359 15.3234 15.012 15.3234H15.0359C15.012 15.3713 14.988 15.3234 14.9641 15.3713V15.3474C14.9401 15.3713 14.8922 15.3953 14.8922 15.4431C14.8922 15.4431 14.8683 15.4431 14.8922 15.4431C14.8444 15.4671 14.8204 15.5389 14.7725 15.5629C14.7725 15.5629 14.7725 15.5868 14.7486 15.5868C14.7486 15.5868 14.7486 15.6107 14.7246 15.6107V15.5868C14.6768 15.6107 14.6768 15.6586 14.6528 15.6826C14.6289 15.6586 14.6049 15.6826 14.581 15.7065C14.5331 15.7544 14.5092 15.8023 14.4852 15.8502C14.4613 15.8502 14.4613 15.8502 14.4134 15.898C14.4134 15.922 14.4134 15.9699 14.4134 15.9938V30.0241L18.9385 22.9372V12.2348L24.3735 7.15902V14.5333L28.9944 7.49422Z" fill="#AB3473"/>
<path d="M15.1795 15.2759C15.1795 15.2759 15.1795 15.252 15.1556 15.252C15.1795 15.252 15.1556 15.2998 15.1795 15.2759Z" fill="#AB3473"/>
<path d="M15.4908 14.9644C15.4908 14.9644 15.5147 14.9644 15.5147 14.9404C15.5147 14.9404 15.4908 14.9404 15.4908 14.9644Z" fill="#AB3473"/>
<path d="M16.8555 13.7193C16.8555 13.7193 16.8555 13.6953 16.8316 13.6953C16.8555 13.6953 16.8316 13.7432 16.8555 13.7193Z" fill="#AB3473"/>
<path d="M17.1668 13.4087C17.1668 13.4087 17.1908 13.4087 17.1908 13.3848C17.1908 13.3848 17.1668 13.3848 17.1668 13.4087Z" fill="#AB3473"/>
<path d="M18.5316 12.1626C18.5316 12.1626 18.5316 12.1387 18.5076 12.1387C18.5316 12.1387 18.5076 12.1866 18.5316 12.1626Z" fill="#AB3473"/>
<path d="M18.8428 11.8521C18.8428 11.8521 18.8668 11.8521 18.8668 11.8281C18.8668 11.8281 18.8428 11.8281 18.8428 11.8521Z" fill="#AB3473"/>
<path d="M23.9185 7.0625C23.9185 7.08644 23.9425 7.08644 23.9185 7.0625C23.9664 7.0625 23.9185 7.08644 23.9185 7.0625Z" fill="#AB3473"/>
<path d="M23.1045 7.85352C23.0806 7.85352 23.0806 7.87746 23.1045 7.85352C23.0806 7.87746 23.1045 7.85352 23.1045 7.85352Z" fill="#AB3473"/>
<path d="M23.5834 7.42238C23.5834 7.42238 23.5834 7.39844 23.6073 7.39844C23.6073 7.39844 23.5834 7.39844 23.5834 7.42238Z" fill="#AB3473"/>
<path d="M22.2666 8.64363C22.2426 8.66757 22.2905 8.64363 22.2666 8.64363C22.2905 8.61969 22.2666 8.66757 22.2666 8.64363Z" fill="#AB3473"/>
<path d="M21.9312 8.97902C21.9312 8.97902 21.9312 8.95508 21.9552 8.95508C21.9312 8.95508 21.9312 8.95508 21.9312 8.97902Z" fill="#AB3473"/>
<path d="M20.5906 10.2002C20.5906 10.2241 20.6146 10.2241 20.5906 10.2002C20.6385 10.2002 20.5906 10.2241 20.5906 10.2002Z" fill="#AB3473"/>
<path d="M20.2554 10.5347C20.2554 10.5347 20.2554 10.5107 20.2793 10.5107C20.2554 10.5107 20.2554 10.5347 20.2554 10.5347Z" fill="#AB3473"/>
<path d="M13.8389 15.252C13.8149 15.252 13.8149 15.2759 13.8149 15.2759C13.8628 15.2998 13.8149 15.252 13.8389 15.252Z" fill="#CDD430"/>
<path d="M13.4797 14.9404C13.4797 14.9404 13.5036 14.9404 13.5036 14.9644C13.5036 14.9404 13.5036 14.9404 13.4797 14.9404Z" fill="#CDD430"/>
<path d="M12.1628 13.6953C12.1389 13.6953 12.1389 13.7193 12.1389 13.7193C12.1867 13.7432 12.1389 13.6953 12.1628 13.6953Z" fill="#CDD430"/>
<path d="M11.8037 13.3848C11.8037 13.3848 11.8277 13.3848 11.8277 13.4087C11.8277 13.3848 11.8277 13.3848 11.8037 13.3848Z" fill="#CDD430"/>
<path d="M10.4868 12.1387C10.4629 12.1387 10.4629 12.1626 10.4629 12.1626C10.5108 12.1866 10.4629 12.1387 10.4868 12.1387Z" fill="#CDD430"/>
<path d="M10.1277 11.8281C10.1277 11.8281 10.1516 11.8281 10.1516 11.8521C10.1516 11.8281 10.1516 11.8281 10.1277 11.8281Z" fill="#CDD430"/>
<path d="M5.07583 7.0625C5.07583 7.08644 5.05188 7.0625 5.07583 7.0625C5.05188 7.08644 5.09977 7.08644 5.07583 7.0625Z" fill="#CDD430"/>
<path d="M5.81812 7.75781C5.81812 7.78175 5.84206 7.75781 5.81812 7.75781V7.75781Z" fill="#CDD430"/>
<path d="M5.38696 7.39844L5.41091 7.42238C5.41091 7.39844 5.41091 7.39844 5.38696 7.39844Z" fill="#CDD430"/>
<path d="M6.75181 8.64363C6.75181 8.66757 6.70393 8.61969 6.75181 8.64363C6.72787 8.64363 6.75181 8.66757 6.75181 8.64363Z" fill="#CDD430"/>
<path d="M7.06299 8.95508L7.08693 8.97902C7.08693 8.95508 7.06299 8.95508 7.06299 8.95508Z" fill="#CDD430"/>
<path d="M8.40388 10.2002C8.42783 10.2241 8.37994 10.2002 8.40388 10.2002C8.37994 10.2241 8.42783 10.2241 8.40388 10.2002Z" fill="#CDD430"/>
<path d="M9.146 10.8945C9.146 10.9185 9.16994 10.8945 9.146 10.8945V10.8945Z" fill="#CDD430"/>
<path d="M8.73901 10.5107L8.76296 10.5347C8.73901 10.5347 8.73901 10.5107 8.73901 10.5107Z" fill="#CDD430"/>
<path d="M14.5092 15.8741C14.4613 15.8502 14.4852 15.8262 14.4373 15.8262C14.3895 15.7783 14.3895 15.7305 14.3416 15.6826C14.3176 15.6826 14.2937 15.6586 14.2698 15.6586C14.2458 15.6347 14.2458 15.5868 14.1979 15.5629V15.5868C14.174 15.5868 14.174 15.5629 14.174 15.5629C14.15 15.5629 14.174 15.5389 14.15 15.5389C14.1022 15.515 14.0782 15.4431 14.0303 15.4192C14.0303 15.3953 13.9824 15.3474 13.9585 15.3234V15.3474C13.9346 15.2995 13.9106 15.3474 13.8867 15.2995H13.9106C13.8867 15.2995 13.8867 15.2755 13.8867 15.2755C13.8627 15.2755 13.8627 15.2995 13.8388 15.2755C13.8388 15.2755 13.8627 15.2995 13.8388 15.2995L13.7909 15.2755C13.7909 15.2755 13.7909 15.2755 13.767 15.2516C13.7909 15.2277 13.743 15.2277 13.767 15.2277C13.7191 15.1798 13.6712 15.1558 13.6472 15.1079C13.5994 15.1079 13.5754 15.0361 13.5515 15.0601C13.5275 15.0361 13.5275 15.0122 13.5036 14.9882C13.5036 14.9882 13.5036 14.9882 13.5036 15.0122C13.5036 14.9882 13.4796 14.9643 13.4796 14.9643C13.4796 14.9882 13.5036 15.0122 13.5036 15.0361C13.4796 15.0122 13.4796 14.9882 13.4557 14.9643H13.4318C13.4318 14.9403 13.4078 14.9643 13.4078 14.9403C13.3839 14.9164 13.3839 14.8925 13.3599 14.8685C13.336 14.8685 13.336 14.8446 13.336 14.8446L13.3599 14.8685C13.3599 14.8685 13.336 14.8685 13.312 14.8685C13.2881 14.8446 13.312 14.8446 13.312 14.8446C13.2881 14.8446 13.312 14.8446 13.312 14.8685C13.2881 14.8446 13.2642 14.8206 13.2642 14.7728C13.2402 14.7488 13.2402 14.7249 13.2163 14.7009C13.1923 14.7009 13.1923 14.653 13.1445 14.653C13.1205 14.653 13.1684 14.677 13.1445 14.677C13.1205 14.653 13.1445 14.6291 13.1205 14.6291C13.0966 14.6052 13.0726 14.5812 13.0726 14.5573C13.0247 14.5573 13.0008 14.4854 12.9529 14.4854C12.9769 14.4854 12.9529 14.4615 12.9529 14.4615V14.4376C12.929 14.4376 12.929 14.4136 12.929 14.4136C12.929 14.4136 12.929 14.4136 12.905 14.3897C12.929 14.4136 12.905 14.4136 12.905 14.4136C12.8811 14.3897 12.905 14.3657 12.8571 14.3418H12.8332V14.3178C12.7853 14.2939 12.7374 14.246 12.7135 14.2221C12.6656 14.1742 12.6656 14.1263 12.6177 14.0784C12.5938 14.0784 12.5698 14.0545 12.5459 14.0545C12.5219 14.0305 12.5219 13.9826 12.4741 13.9587V13.9826C12.4501 13.9826 12.4501 13.9587 12.4501 13.9587C12.4262 13.9587 12.4501 13.9348 12.4262 13.9348C12.3783 13.9108 12.3543 13.839 12.3065 13.8151C12.3065 13.7911 12.2586 13.7432 12.2346 13.7193V13.7432C12.2107 13.6953 12.1868 13.7432 12.1628 13.6953H12.1868C12.1628 13.6953 12.1628 13.6714 12.1628 13.6714C12.1389 13.6714 12.1389 13.6953 12.1149 13.6714C12.1149 13.6714 12.1389 13.6953 12.1149 13.6953L12.067 13.6714C12.067 13.6714 12.067 13.6714 12.0431 13.6475C12.067 13.6235 12.0192 13.6235 12.0431 13.6235C11.9952 13.5756 11.9473 13.5517 11.9234 13.5038C11.8755 13.5038 11.8516 13.432 11.8276 13.4559C11.8037 13.432 11.8037 13.408 11.7797 13.3841C11.7797 13.3841 11.7797 13.3841 11.7797 13.408C11.7797 13.3841 11.7558 13.3601 11.7558 13.3601C11.7558 13.3841 11.7797 13.408 11.7797 13.432C11.7558 13.408 11.7558 13.3841 11.7318 13.3601H11.7079C11.7079 13.3362 11.684 13.3601 11.684 13.3362C11.66 13.3123 11.66 13.2883 11.6361 13.2644C11.6121 13.2644 11.6121 13.2404 11.6121 13.2404L11.6361 13.2644C11.6361 13.2644 11.6121 13.2644 11.5882 13.2644C11.5642 13.2404 11.5882 13.2404 11.5882 13.2404C11.5642 13.2404 11.5882 13.2404 11.5882 13.2644C11.5642 13.2404 11.5403 13.2165 11.5403 13.1686C11.5164 13.1447 11.5164 13.1207 11.4924 13.0968C11.4685 13.0968 11.4685 13.0489 11.4206 13.0489C11.3966 13.0489 11.4445 13.0728 11.4206 13.0728C11.3966 13.0489 11.4206 13.0249 11.3966 13.0249C11.3727 13.001 11.3488 12.9771 11.3488 12.9531C11.3009 12.9531 11.2769 12.8813 11.229 12.8813C11.253 12.8813 11.229 12.8573 11.229 12.8573V12.8334C11.2051 12.8334 11.2051 12.8095 11.2051 12.8095C11.2051 12.8095 11.2051 12.8095 11.1812 12.7855C11.2051 12.8095 11.1812 12.8095 11.1812 12.8095C11.1572 12.7855 11.1812 12.7616 11.1333 12.7376H11.1093V12.7137C11.0615 12.6898 11.0136 12.6419 10.9896 12.6179C10.9417 12.57 10.9417 12.5222 10.8939 12.4743C10.8699 12.4743 10.846 12.4503 10.822 12.4503C10.7981 12.4264 10.7981 12.3785 10.7502 12.3546V12.3785C10.7263 12.3785 10.7263 12.3546 10.7263 12.3546C10.7023 12.3546 10.7263 12.3306 10.7023 12.3306C10.6544 12.3067 10.6305 12.2348 10.5826 12.2109C10.5826 12.187 10.5347 12.1391 10.5108 12.1151V12.1391C10.4868 12.0912 10.4629 12.1391 10.4389 12.0912H10.4629C10.4389 12.0912 10.4389 12.0672 10.4389 12.0672C10.415 12.0672 10.415 12.0912 10.3911 12.0672C10.3911 12.0672 10.415 12.0912 10.3911 12.0912L10.3432 12.0672C10.3432 12.0672 10.3432 12.0672 10.3192 12.0433C10.3432 12.0194 10.2953 12.0194 10.3192 12.0194C10.2713 11.9715 10.2235 11.9475 10.1995 11.8996C10.1516 11.8996 10.1277 11.8278 10.1038 11.8518C10.0798 11.8278 10.0798 11.8039 10.0559 11.7799C10.0559 11.7799 10.0559 11.7799 10.0559 11.8039C10.0559 11.7799 10.0319 11.756 10.0319 11.756C10.0319 11.7799 10.0559 11.8039 10.0559 11.8278C10.0319 11.8039 10.0319 11.7799 10.008 11.756H9.98404C9.98404 11.732 9.96009 11.756 9.96009 11.732C9.93615 11.7081 9.93615 11.6842 9.91221 11.6602C9.88827 11.6602 9.88827 11.6363 9.88827 11.6363L9.91221 11.6602C9.91221 11.6602 9.88827 11.6602 9.86432 11.6602C9.84038 11.6363 9.86432 11.6363 9.86432 11.6363C9.84038 11.6363 9.86432 11.6363 9.86432 11.6602C9.84038 11.6363 9.81644 11.6123 9.81644 11.5645C9.7925 11.5405 9.7925 11.5166 9.76855 11.4926C9.74461 11.4926 9.74461 11.4447 9.69673 11.4447C9.67278 11.4447 9.72067 11.4687 9.69673 11.4687C9.67278 11.4447 9.69673 11.4208 9.67278 11.4208C9.64884 11.3969 9.6249 11.3729 9.6249 11.349C9.57701 11.349 9.55307 11.2771 9.50519 11.2771C9.52913 11.2771 9.50519 11.2532 9.50519 11.2532V11.2293C9.48124 11.2293 9.48124 11.2053 9.48124 11.2053C9.48124 11.2053 9.48124 11.2053 9.4573 11.1814C9.48124 11.2053 9.4573 11.2053 9.4573 11.2053C9.43336 11.1814 9.4573 11.1574 9.40942 11.1335H9.38547C9.38547 11.1335 9.38547 11.1335 9.38547 11.1095C9.38547 11.0617 9.33759 11.0856 9.36153 11.0856C9.38547 11.0856 9.31365 11.0377 9.31365 11.0377C9.31365 11.0377 9.2897 10.9659 9.26576 10.9898C9.26576 10.9898 9.26576 10.9659 9.21788 10.9659H9.19393V10.9419C9.16999 10.918 9.14605 10.9419 9.12211 10.918C9.14605 10.918 9.12211 10.8941 9.14605 10.918C9.14605 10.918 9.12211 10.8941 9.12211 10.918L9.09816 10.8941H9.07422H9.05028C9.05028 10.8462 8.97845 10.8222 8.97845 10.7743C8.95451 10.7504 8.93057 10.7504 8.90662 10.7265C8.88268 10.7025 8.88268 10.7265 8.85874 10.7025C8.85874 10.6786 8.88268 10.7025 8.88268 10.7025C8.90662 10.6786 8.8348 10.6786 8.8348 10.6546C8.8348 10.6307 8.78691 10.6307 8.76297 10.6068C8.73903 10.6068 8.69114 10.5828 8.6672 10.5589C8.69114 10.5589 8.69114 10.5589 8.69114 10.5589C8.69114 10.5589 8.69114 10.5828 8.6672 10.5589C8.6672 10.5589 8.6672 10.5349 8.6672 10.511L8.69114 10.5349C8.69114 10.511 8.6672 10.511 8.6672 10.511C8.64326 10.487 8.61931 10.511 8.59537 10.4631C8.57143 10.4631 8.59537 10.4392 8.57143 10.4392V10.4152C8.54748 10.4152 8.52354 10.3913 8.4996 10.3673C8.52354 10.3673 8.54748 10.3913 8.57143 10.3913L8.52354 10.3673H8.54749C8.52354 10.3673 8.4996 10.3673 8.47566 10.3434C8.4996 10.3194 8.42777 10.2716 8.42777 10.2476C8.37989 10.2237 8.35594 10.1758 8.30806 10.1279C8.30806 10.1758 8.28412 10.1279 8.28412 10.1518L8.26017 10.1279L8.37989 10.1758C8.37989 10.1518 8.40383 10.1758 8.40383 10.1758C8.37989 10.1518 8.40383 10.1518 8.40383 10.1279H8.37989V10.1518C8.332 10.1279 8.37989 10.104 8.332 10.08H8.35594C8.332 10.08 8.28412 10.0321 8.26017 10.0321C8.26017 10.0321 8.26017 10.0082 8.26017 10.0321C8.21229 9.98424 8.1644 9.9603 8.14046 9.93636C8.14046 9.93636 8.11652 9.93636 8.11652 9.91242C8.11652 9.91242 8.09258 9.91242 8.06863 9.88847H8.09258C8.06863 9.84059 8.02075 9.84059 7.97286 9.81665C7.99681 9.7927 7.97286 9.76876 7.94892 9.74482C7.90104 9.69693 7.85315 9.69693 7.80527 9.64905C7.80527 9.62511 7.75738 9.57722 7.7095 9.52934H7.68555V9.50539C7.66161 9.48145 7.63767 9.50539 7.61373 9.48145C7.63767 9.48145 7.61373 9.45751 7.63767 9.48145C7.63767 9.48145 7.61373 9.45751 7.61373 9.48145L7.58978 9.45751H7.56584H7.5419C7.5419 9.40962 7.47007 9.38568 7.47007 9.3378C7.44613 9.31385 7.42219 9.31385 7.39824 9.28991C7.3743 9.26597 7.3743 9.28991 7.35036 9.26597C7.35036 9.24203 7.3743 9.26597 7.3743 9.26597C7.39824 9.24203 7.32642 9.24203 7.32642 9.21808C7.32642 9.19414 7.27853 9.19414 7.25459 9.1702C7.23065 9.1702 7.18276 9.14626 7.15882 9.12231C7.18276 9.12231 7.18276 9.12231 7.18276 9.12231C7.18276 9.12231 7.18276 9.14626 7.15882 9.12231C7.15882 9.12231 7.15882 9.09837 7.15882 9.07443L7.18276 9.09837C7.18276 9.07443 7.15882 9.07443 7.15882 9.07443C7.13488 9.05049 7.11093 9.07443 7.08699 9.02654C7.06305 9.02654 7.08699 9.0026 7.06305 9.0026V8.97866C7.03911 8.97866 7.01516 8.95472 6.99122 8.93077C7.01516 8.93077 7.03911 8.95472 7.06305 8.95472L7.01516 8.93077H7.0391C7.01516 8.93077 6.99122 8.93077 6.96728 8.90683C6.99122 8.88289 6.91939 8.835 6.91939 8.81106C6.87151 8.78712 6.84756 8.73923 6.79968 8.69135C6.79968 8.73923 6.77574 8.69135 6.77574 8.71529L6.75179 8.69135L6.70391 8.61952C6.70391 8.59558 6.72785 8.61952 6.72785 8.61952C6.70391 8.59558 6.72785 8.59558 6.72785 8.57163H6.70391V8.59558C6.65602 8.57163 6.70391 8.54769 6.65602 8.52375H6.67997C6.65602 8.52375 6.60814 8.47586 6.5842 8.47586C6.5842 8.47586 6.5842 8.45192 6.5842 8.47586C6.53631 8.42798 6.48843 8.40404 6.46448 8.38009C6.46448 8.38009 6.44054 8.38009 6.44054 8.35615C6.44054 8.35615 6.4166 8.35615 6.39266 8.33221H6.4166C6.39266 8.28432 6.34477 8.28432 6.29689 8.26038C6.32083 8.23644 6.29689 8.2125 6.27294 8.18855C6.22506 8.14067 6.17717 8.14067 6.12929 8.09278C6.12929 8.06884 6.0814 8.02096 6.03352 7.97307H6.00958V7.94913C5.98563 7.92519 5.96169 7.94913 5.93775 7.92519C5.96169 7.92519 5.93775 7.90124 5.96169 7.92519C5.96169 7.92519 5.93775 7.90124 5.93775 7.92519L5.91381 7.90124H5.88986H5.86592C5.86592 7.85336 5.79409 7.82942 5.79409 7.78153C5.77015 7.75759 5.74621 7.75759 5.72227 7.73364C5.69832 7.7097 5.69832 7.73365 5.67438 7.7097C5.67438 7.68576 5.69832 7.7097 5.69832 7.7097C5.72227 7.68576 5.65044 7.68576 5.65044 7.66182C5.65044 7.63788 5.60255 7.63788 5.57861 7.61393C5.55467 7.61393 5.50678 7.58999 5.48284 7.56605C5.50678 7.56605 5.50678 7.56605 5.50678 7.56605C5.50678 7.56605 5.50678 7.58999 5.48284 7.56605C5.48284 7.56605 5.48284 7.5421 5.48284 7.51816L5.50678 7.54211C5.50678 7.51816 5.48284 7.51816 5.48284 7.51816C5.4589 7.49422 5.43496 7.51816 5.41101 7.47028C5.38707 7.47028 5.41101 7.44633 5.38707 7.44633V7.42239C5.36313 7.42239 5.33919 7.39845 5.31524 7.37451C5.33919 7.37451 5.36313 7.39845 5.38707 7.39845L5.33919 7.37451H5.36313C5.33919 7.37451 5.31524 7.37451 5.2913 7.35056C5.31524 7.32662 5.24341 7.27874 5.24341 7.25479C5.19553 7.23085 5.17159 7.18297 5.1237 7.13508C5.1237 7.18297 5.09976 7.13508 5.09976 7.15902L5.07582 7.13508L5.02793 7.03931C5.02793 7.01537 5.05188 7.03931 5.05188 7.03931C5.02793 7.01537 5.05188 7.01537 5.05188 6.99143H5.02793V7.01537C4.98005 6.99143 5.02793 6.96748 4.98005 6.94354H5.00399C4.98005 6.94354 4.93216 6.89566 4.90822 6.89566C4.90822 6.89566 4.90822 6.87171 4.90822 6.89566C4.86033 6.84777 4.81245 6.82383 4.78851 6.79989C4.78851 6.79989 4.76456 6.79989 4.76456 6.77594C4.76456 6.77594 4.74062 6.77594 4.71668 6.752H4.74062C4.71668 6.70412 4.66879 6.72806 4.64485 6.68017C4.62091 6.68017 4.62091 6.65623 4.57302 6.68017V1.10156L0 7.49422L4.54908 14.5333V7.15902L9.98404 12.2348V22.9132L14.5092 30.0002V15.9699C14.5092 15.9459 14.5092 15.922 14.5092 15.8741Z" fill="#CDD430"/>
<path d="M14.5093 0V8.54749L23.6553 0H14.5093Z" fill="#B1618D"/>
<path d="M14.5092 8.54749V0H5.33917L14.5092 8.54749Z" fill="#D4DB62"/>
<path d="M14.5092 8.54749V1.84358L5.33917 0L14.5092 8.54749Z" fill="#C4CA2F"/>
<path d="M14.5093 8.54749V1.84358L23.6553 0L14.5093 8.54749Z" fill="#B13675"/>
<path d="M9.98389 12.2344L14.509 29.9997L9.98389 22.9127V12.2344Z" fill="#C1C724"/>
<path d="M19.0105 12.2344V22.9127L14.5093 29.9997L19.0105 12.2344Z" fill="#A13069"/>
<path d="M0 7.49422L4.54908 6.68017V1.10156L0 7.49422Z" fill="#DCE329"/>
<path d="M28.9944 7.49422L24.4453 6.68017V1.10156L28.9944 7.49422Z" fill="#B14A80"/>
<path d="M50.2075 25.5705H50.0399L49.2738 23.7509C49.178 23.5114 49.0583 23.2241 48.9625 22.9368H48.9386C48.9625 23.3678 48.9625 23.7509 48.9625 24.11V25.5944H48.6034V22.5059H49.1301L49.8484 24.2297C49.9202 24.4213 50.016 24.6607 50.1117 24.948C50.2315 24.6367 50.3033 24.3973 50.3751 24.2297L51.0934 22.5059H51.6201V25.5466H51.237V24.0621C51.237 23.7269 51.237 23.3199 51.261 22.8889H51.237C51.1173 23.2002 51.0216 23.4636 50.9258 23.703L50.2075 25.5705Z" fill="#F2F2F2"/>
<path d="M53.6553 25.331C53.6075 25.3789 53.5835 25.4028 53.5356 25.4507C53.4877 25.4746 53.4399 25.5225 53.392 25.5465C53.3441 25.5704 53.2723 25.5943 53.2004 25.6183C53.1286 25.6422 53.0568 25.6422 52.985 25.6422C52.8892 25.6422 52.7934 25.6183 52.6976 25.5943C52.6019 25.5704 52.53 25.5225 52.4822 25.4507C52.4103 25.3789 52.3624 25.307 52.3385 25.2352C52.3146 25.1394 52.2906 25.0437 52.2906 24.9479C52.2906 24.8282 52.3146 24.7324 52.3385 24.6606C52.3864 24.5648 52.4343 24.493 52.5061 24.4451C52.5779 24.3972 52.6498 24.3493 52.7695 24.3015C52.8652 24.2775 52.985 24.2536 53.1047 24.2536C53.2244 24.2536 53.3201 24.2536 53.4159 24.2775C53.5117 24.3015 53.6075 24.3254 53.6793 24.3493V24.1817C53.6793 24.1339 53.6793 24.062 53.6793 24.0141C53.6793 23.9663 53.6553 23.9184 53.6314 23.8944C53.5835 23.8226 53.5356 23.7508 53.4399 23.7029C53.3441 23.655 53.2244 23.6311 53.0807 23.6311C52.961 23.6311 52.8652 23.6311 52.7695 23.655C52.6737 23.6789 52.5779 23.7029 52.4822 23.7508V23.4635C52.53 23.4395 52.554 23.4395 52.6019 23.4156C52.6498 23.3916 52.6976 23.3916 52.7695 23.3677C52.8174 23.3677 52.8892 23.3438 52.9371 23.3438C53.0089 23.3438 53.0568 23.3438 53.1286 23.3438C53.3441 23.3438 53.5356 23.3916 53.6553 23.4635C53.799 23.5353 53.8948 23.655 53.9666 23.7747C53.9905 23.8226 54.0145 23.8705 54.0145 23.9423C54.0145 23.9902 54.0384 24.062 54.0384 24.1339V25.5704H53.7511L53.6553 25.331ZM53.6314 24.6127C53.5596 24.5888 53.4877 24.5888 53.392 24.5648C53.2962 24.5409 53.2004 24.5409 53.1047 24.5409C52.961 24.5409 52.8413 24.5648 52.7455 24.6366C52.6498 24.7085 52.6258 24.8042 52.6258 24.924C52.6258 24.9958 52.6258 25.0437 52.6498 25.0916C52.6737 25.1394 52.6976 25.1873 52.7455 25.2113C52.7934 25.2352 52.8174 25.2592 52.8652 25.2831C52.9131 25.307 52.961 25.307 53.0328 25.307C53.1047 25.307 53.1765 25.307 53.2483 25.2831C53.3201 25.2592 53.368 25.2352 53.4159 25.2113C53.4638 25.1873 53.5117 25.1394 53.5356 25.1155C53.5596 25.0916 53.6075 25.0676 53.6075 25.0437V24.6127H53.6314Z" fill="#F2F2F2"/>
<path d="M54.5411 24.4933C54.5411 24.3496 54.565 24.2059 54.589 24.0862C54.6129 23.9665 54.6608 23.8708 54.7087 23.775C54.7566 23.6792 54.8045 23.6074 54.8763 23.5595C54.9481 23.5116 55.02 23.4637 55.0678 23.4158C55.1157 23.368 55.2115 23.344 55.2833 23.344C55.3552 23.3201 55.427 23.3201 55.4988 23.3201C55.6425 23.3201 55.7382 23.344 55.834 23.3919C55.9298 23.4398 56.0255 23.5116 56.0974 23.5834V22.2666H56.4565V25.5707H56.1931L56.1213 25.3312C56.0974 25.3552 56.0734 25.4031 56.0255 25.427C55.9777 25.451 55.9537 25.4988 55.9058 25.5228C55.8579 25.5467 55.8101 25.5707 55.7382 25.5946C55.6664 25.6186 55.5946 25.6186 55.5227 25.6186C55.403 25.6186 55.2833 25.5946 55.1636 25.5467C55.0439 25.4988 54.9481 25.451 54.8524 25.3552C54.7566 25.2594 54.6848 25.1397 54.6369 25.02C54.565 24.8763 54.5411 24.7087 54.5411 24.4933ZM54.9242 24.4933C54.9242 24.613 54.9481 24.7327 54.9721 24.8285C54.996 24.9242 55.0439 25.02 55.0918 25.0918C55.1397 25.1636 55.2115 25.2115 55.2833 25.2594C55.3552 25.3073 55.4509 25.3073 55.5467 25.3073C55.6185 25.3073 55.6903 25.3073 55.7382 25.2834C55.8101 25.2594 55.8579 25.2355 55.9058 25.2115C55.9537 25.1876 56.0016 25.1397 56.0255 25.1158C56.0495 25.0918 56.0974 25.0439 56.0974 25.02V23.8947C56.0255 23.8229 55.9298 23.751 55.834 23.7271C55.7382 23.6792 55.6425 23.6553 55.5227 23.6553C55.4509 23.6553 55.3791 23.6792 55.3073 23.7032C55.2354 23.7271 55.1636 23.775 55.0918 23.8468C55.02 23.9186 54.9721 23.9905 54.9242 24.1102C54.9481 24.182 54.9242 24.3257 54.9242 24.4933Z" fill="#F2F2F2"/>
<path d="M58.2043 25.308C58.324 25.308 58.4198 25.308 58.5155 25.284C58.6113 25.2601 58.7071 25.2362 58.8029 25.2122V25.4995C58.731 25.5474 58.6353 25.5713 58.5155 25.5953C58.3958 25.6192 58.2761 25.6192 58.1564 25.6192C58.0127 25.6192 57.8451 25.5953 57.7254 25.5713C57.5818 25.5235 57.4621 25.4756 57.3663 25.3798C57.2705 25.284 57.1987 25.1883 57.1269 25.0446C57.079 24.901 57.0311 24.7334 57.0311 24.5418C57.0311 24.3503 57.055 24.1827 57.1029 24.039C57.1508 23.8954 57.2226 23.7757 57.3184 23.6799C57.4142 23.5841 57.5099 23.5123 57.6297 23.4644C57.7494 23.4165 57.8691 23.3926 57.9888 23.3926C58.1085 23.3926 58.2282 23.4165 58.324 23.4644C58.4198 23.5123 58.5155 23.5602 58.5874 23.6559C58.6592 23.7517 58.731 23.8475 58.7789 23.9911C58.8268 24.1348 58.8507 24.3024 58.8507 24.4939C58.8507 24.5179 58.8507 24.5179 58.8507 24.5418C58.8507 24.5658 58.8507 24.5897 58.8507 24.6376H57.3663C57.3663 24.7812 57.3902 24.901 57.4381 24.9967C57.486 25.0925 57.5339 25.1643 57.6057 25.2362C57.6776 25.308 57.7733 25.3319 57.8691 25.3559C57.9888 25.308 58.0846 25.308 58.2043 25.308ZM58.0127 23.632C57.9409 23.632 57.8451 23.6559 57.7973 23.6799C57.7254 23.7038 57.6776 23.7517 57.6057 23.7996C57.5339 23.8475 57.51 23.9193 57.486 23.9911C57.4621 24.063 57.4381 24.1348 57.4142 24.2306H58.5155C58.5155 24.1348 58.5155 24.063 58.4916 23.9911C58.4677 23.9193 58.4437 23.8475 58.3958 23.7996C58.3479 23.7517 58.3001 23.7038 58.2282 23.6799C58.1803 23.6559 58.1085 23.632 58.0127 23.632Z" fill="#F2F2F2"/>
<path d="M60.4549 22.8889V22.5059H60.8141V22.8889H60.4549ZM60.4549 25.5705V23.4157H60.8141V25.5705H60.4549Z" fill="#F2F2F2"/>
<path d="M61.8675 23.7029C61.9154 23.655 61.9633 23.6071 62.0112 23.5592C62.0591 23.5113 62.107 23.4874 62.1788 23.4395C62.2267 23.4156 62.2985 23.3916 62.3703 23.3677C62.4422 23.3437 62.514 23.3438 62.6097 23.3438C62.7055 23.3438 62.8013 23.3677 62.8971 23.3916C62.9928 23.4156 63.0647 23.4635 63.1125 23.5353C63.1844 23.6071 63.2323 23.6789 63.2562 23.7747C63.2801 23.8705 63.3041 23.9902 63.3041 24.1339V25.5943H62.9449V24.2057C62.9449 24.0141 62.8971 23.8944 62.8252 23.7987C62.7534 23.7268 62.6576 23.6789 62.514 23.6789C62.3943 23.6789 62.2746 23.7029 62.1548 23.7747C62.0351 23.8465 61.9394 23.9423 61.8675 24.062V25.5943H61.5084V23.4395H61.7718L61.8675 23.7029Z" fill="#F2F2F2"/>
<path d="M65.3392 25.5705H64.9561V22.5059H66.7757V22.8411H65.3392V23.8227H66.6321V24.1579H65.3392V25.5705Z" fill="#F2F2F2"/>
<path d="M68.4516 23.6789H68.4276C68.3558 23.6789 68.2601 23.6789 68.1882 23.7029C68.1164 23.7268 68.0206 23.7508 67.9727 23.7747C67.9009 23.7987 67.8291 23.8465 67.7812 23.8944C67.7333 23.9423 67.6854 23.9902 67.6375 24.062V25.5704H67.2784V23.4156H67.5418L67.6136 23.7508C67.6375 23.7029 67.6854 23.6311 67.7333 23.5832C67.7812 23.5353 67.853 23.4874 67.9009 23.4635C67.9727 23.4156 68.0446 23.3916 68.1164 23.3677C68.1882 23.3437 68.284 23.3438 68.3558 23.3438C68.3798 23.3438 68.3798 23.3438 68.4037 23.3438C68.4277 23.3438 68.4276 23.3438 68.4516 23.3438V23.6789Z" fill="#F2F2F2"/>
<path d="M68.5714 23.3926H68.9305L69.6009 25.0925H69.6249L70.3192 23.3926H70.6783L69.3375 26.6248H68.9545L69.4094 25.5235L68.5714 23.3926Z" fill="#F2F2F2"/>
<path d="M72.3543 25.331C72.3064 25.3789 72.2825 25.4028 72.2346 25.4507C72.1867 25.4746 72.1388 25.5225 72.091 25.5465C72.0431 25.5704 71.9712 25.5943 71.8994 25.6183C71.8276 25.6422 71.7558 25.6422 71.6839 25.6422C71.5882 25.6422 71.4924 25.6183 71.3966 25.5943C71.3008 25.5704 71.229 25.5225 71.1811 25.4507C71.1093 25.3789 71.0614 25.307 71.0375 25.2352C71.0135 25.1394 70.9896 25.0437 70.9896 24.9479C70.9896 24.8282 71.0135 24.7324 71.0375 24.6606C71.0614 24.5888 71.1332 24.493 71.2051 24.4451C71.2769 24.3972 71.3487 24.3493 71.4684 24.3015C71.5642 24.2775 71.6839 24.2536 71.8036 24.2536C71.9234 24.2536 72.0191 24.2536 72.1149 24.2775C72.2107 24.3015 72.3064 24.3254 72.3783 24.3493V24.1817C72.3783 24.1339 72.3783 24.062 72.3783 24.0141C72.3783 23.9663 72.3543 23.9184 72.3304 23.8944C72.2825 23.8226 72.2346 23.7508 72.1388 23.7029C72.0431 23.655 71.9233 23.6311 71.7797 23.6311C71.66 23.6311 71.5642 23.6311 71.4684 23.655C71.3727 23.6789 71.2769 23.7029 71.1811 23.7508V23.4635C71.229 23.4395 71.253 23.4395 71.3008 23.4156C71.3487 23.3916 71.3966 23.3916 71.4684 23.3677C71.5163 23.3677 71.5882 23.3438 71.636 23.3438C71.7079 23.3438 71.7558 23.3438 71.8276 23.3438C72.0431 23.3438 72.2346 23.3916 72.3543 23.4635C72.474 23.5353 72.5937 23.655 72.6656 23.7747C72.6895 23.8226 72.7135 23.8705 72.7135 23.9423C72.7135 23.9902 72.7374 24.062 72.7374 24.1339V25.5704H72.4501L72.3543 25.331ZM72.3304 24.6127C72.2585 24.5888 72.1867 24.5888 72.091 24.5648C71.9952 24.5409 71.8994 24.5409 71.8036 24.5409C71.66 24.5409 71.5403 24.5648 71.4445 24.6366C71.3487 24.7085 71.3248 24.8042 71.3248 24.924C71.3248 24.9958 71.3248 25.0437 71.3487 25.0916C71.3727 25.1394 71.3966 25.1873 71.4445 25.2113C71.4924 25.2352 71.5163 25.2592 71.5642 25.2831C71.6121 25.307 71.66 25.307 71.7318 25.307C71.8036 25.307 71.8755 25.307 71.9473 25.2831C72.0191 25.2592 72.067 25.2352 72.1149 25.2113C72.1628 25.1873 72.2107 25.1394 72.2346 25.1155C72.2586 25.0916 72.3064 25.0676 72.3064 25.0437V24.6127H72.3304Z" fill="#F2F2F2"/>
<path d="M74.4135 23.7038H73.2164V23.3926H74.8445V23.6081L73.6474 25.2362H74.9403V25.5474H73.1925V25.3798L74.4135 23.7038Z" fill="#F2F2F2"/>
<path d="M75.4429 22.8889V22.5059H75.8021V22.8889H75.4429ZM75.4669 25.5705V23.4157H75.826V25.5705H75.4669Z" fill="#F2F2F2"/>
<path d="M76.8553 23.7029C76.9032 23.655 76.9511 23.6071 76.999 23.5592C77.0469 23.5113 77.0947 23.4874 77.1666 23.4395C77.2145 23.4156 77.2863 23.3916 77.3581 23.3677C77.4299 23.3437 77.5018 23.3438 77.5975 23.3438C77.6933 23.3438 77.7891 23.3677 77.8849 23.3916C77.9806 23.4156 78.0525 23.4635 78.1003 23.5353C78.1722 23.6071 78.22 23.6789 78.244 23.7747C78.2679 23.8705 78.2919 23.9902 78.2919 24.1339V25.5943H77.9327V24.2057C77.9327 24.0141 77.8849 23.8944 77.813 23.7987C77.7412 23.7029 77.6454 23.6789 77.5018 23.6789C77.3821 23.6789 77.2624 23.7029 77.1426 23.7747C77.0229 23.8465 76.9272 23.9423 76.8553 24.062V25.5943H76.4962V23.4395H76.7596L76.8553 23.7029Z" fill="#F2F2F2"/>
<path d="M80.9258 24.4696C80.9258 24.6372 80.9018 24.8047 80.854 24.9245C80.8061 25.0681 80.7342 25.1878 80.6385 25.2836C80.5427 25.3794 80.4469 25.4512 80.3272 25.523C80.2075 25.5709 80.0639 25.5949 79.8963 25.5949C79.7287 25.5949 79.585 25.5709 79.4653 25.523C79.3456 25.4751 79.2259 25.3794 79.1301 25.2836C79.0343 25.1878 78.9625 25.0681 78.9146 24.9245C78.8667 24.7808 78.8428 24.6372 78.8428 24.4696C78.8428 24.302 78.8667 24.1344 78.9146 23.9907C78.9625 23.847 79.0343 23.7273 79.1301 23.6316C79.2259 23.5358 79.3216 23.464 79.4653 23.3921C79.585 23.3443 79.7287 23.3203 79.8963 23.3203C80.0639 23.3203 80.2075 23.3443 80.3272 23.3921C80.4469 23.44 80.5666 23.5358 80.6624 23.6316C80.7582 23.7273 80.83 23.847 80.854 23.9907C80.9018 24.1583 80.9258 24.302 80.9258 24.4696ZM80.5427 24.4696C80.5427 24.3259 80.5188 24.2062 80.4948 24.1104C80.4709 24.0146 80.423 23.9189 80.3512 23.847C80.3033 23.7752 80.2314 23.7273 80.1357 23.6795C80.0399 23.6316 79.9681 23.6316 79.8723 23.6316C79.7765 23.6316 79.6808 23.6555 79.6089 23.6795C79.5371 23.7034 79.4653 23.7752 79.3935 23.847C79.3456 23.9189 79.2977 24.0146 79.2498 24.1104C79.2259 24.2062 79.2019 24.3259 79.2019 24.4696C79.2019 24.6132 79.2259 24.709 79.2498 24.8287C79.2737 24.9245 79.3216 25.0202 79.3935 25.0921C79.4413 25.1639 79.5132 25.2118 79.6089 25.2597C79.6808 25.3075 79.7765 25.3075 79.8723 25.3075C79.9681 25.3075 80.0639 25.2836 80.1357 25.2597C80.2075 25.2118 80.2793 25.1639 80.3512 25.0921C80.399 25.0202 80.4469 24.9245 80.4948 24.8287C80.5427 24.7329 80.5427 24.6132 80.5427 24.4696Z" fill="#F2F2F2"/>
</g>
<defs>
<clipPath id="clip0_203_920">
<rect width="94.1181" height="30" fill="white"/>
</clipPath>
</defs>
</svg>
