<svg width="11" height="20" viewBox="0 0 11 20" fill="none" xmlns="http://www.w3.org/2000/svg">
<g clip-path="url(#clip0_203_623)">
<path d="M1.39697 9.34808C1.39697 11.1001 1.39115 12.8463 1.39697 14.5984C1.40279 16.4261 2.57858 17.9802 4.29569 18.4517C6.84516 19.1502 9.29568 17.2643 9.30732 14.5867C9.31314 11.8685 9.30732 9.156 9.31314 6.43772C9.31314 6.31548 9.31314 6.18743 9.34225 6.07101C9.42374 5.76834 9.71477 5.57625 10.0349 5.58789C10.3434 5.59953 10.6053 5.80908 10.6752 6.11758C10.6985 6.21071 10.7043 6.30384 10.7043 6.39697C10.7043 9.12689 10.7101 11.8568 10.7043 14.5867C10.6985 17.1653 9.00464 19.2782 6.50756 19.8603C3.53899 20.553 0.512223 18.4866 0.0756693 15.4657C0.0291036 15.163 0.00582071 14.8603 0.00582071 14.5576C0 11.0477 0 7.54366 0 4.03376C0 2.078 1.27474 0.494761 3.16065 0.0873107C5.42491 -0.40163 7.69498 1.27474 7.88125 3.57392C7.89871 3.78347 7.91035 3.99302 7.91035 4.20256C7.91035 7.42724 7.91617 10.6519 7.91035 13.8766C7.91035 15.1513 7.07799 16.1991 5.88474 16.4494C4.30151 16.7811 2.80558 15.6054 2.79394 13.9756C2.77066 10.9604 2.78812 7.94529 2.78812 4.93597C2.78812 4.48778 3.08498 4.19092 3.49825 4.19674C3.89988 4.20256 4.17927 4.49942 4.17927 4.94179C4.17927 7.90454 4.17927 10.8673 4.17927 13.83C4.17927 14.2841 4.31897 14.6566 4.70314 14.9185C5.40162 15.3842 6.3504 14.9767 6.48428 14.1502C6.50174 14.057 6.50756 13.9639 6.50756 13.8708C6.50756 10.5821 6.51338 7.29336 6.50756 3.99884C6.50756 2.7532 5.66938 1.71711 4.49359 1.461C2.89289 1.11758 1.40861 2.32247 1.39697 3.99302C1.39115 5.77416 1.39697 7.56112 1.39697 9.34808Z" fill="#12020A"/>
</g>
<defs>
<clipPath id="clip0_203_623">
<rect width="10.7043" height="20" fill="white"/>
</clipPath>
</defs>
</svg>
